v 2.3 5.87677 0.0
v 2.075 5.87677 0.0
v 2.075 6.88159 0.0
newmtl 1
Ka 0.2980392156862745 0.2980392156862745 0.2980392156862745
Kd 0.2980392156862745 0.2980392156862745 0.2980392156862745
Ks 0.09019607843137255 0.09019607843137255 0.09019607843137255
d 0.0
endmtl
v 1.9 4.875 0.0
v 1.5 4.875 0.0
v 1.231708 5.87677 0.0
v 3.6 4.875 0.0
v 3.2 4.875 0.0
v 2.975 5.87677 0.0
v -7.4 2.775 0.0
v -7.4 2.375 0.0
v -7.55 2.15 0.0
v -0.625 0.45 0.0
v -1.275 0.45 0.0
v -1.275 1.3 0.0
v -1.275 -8.05 0.0
v -2.3 -8.05 0.0
v -2.3 -7.2 0.0
v 1.231708 -8.05 0.0
v 0.789635 -8.05 0.0
v 0.789635 -7.2 0.0
v -4.05 -9.125 0.0
v -4.45 -9.125 0.0
v -4.675 -8.05 0.0
v -0.65 -9.125 0.0
v -1.05 -9.125 0.0
v 0.2 -9.125 0.0
v -0.2 -9.125 0.0
v -0.557622 -8.05 0.0
v 0.625 -10.087501 0.0
v 0.423781 -10.087501 0.0
v 0.423781 -8.05 0.0
v 1.9 -9.125 0.0
v 1.5 -9.125 0.0
v 2.3 -10.087501 0.0
v 2.075 -10.087501 0.0
v 2.075 -8.05 0.0
v -7.55 -10.25 0.0
v -7.7 -10.25 0.0
v -7.7 -10.087501 0.0
v -2.3 -10.25 0.0
v -3.825 -10.25 0.0
v -3.825 -10.087501 0.0
v 4.675 -10.25 0.0
v 2.975 -10.25 0.0
v 2.975 -10.087501 0.0
v 6.375 -10.25 0.0
v 5.525 -10.25 0.0
v 5.525 -10.087501 0.0
v 0.423781 -3.15 0.0
v -0.557622 -3.15 0.0
v -0.557622 -3.125 0.0
v 0.65 4.075 0.0
v 0.789635 4.075 0.0
v 0.789635 3.85 0.0
v 1.05 -1.475 0.0
v 1.231708 -1.475 0.0
v 1.231708 -1.9 0.0
v 0.789635 -5.5 0.0
v 0.789635 -4.6 0.0
v 1.05 -4.6 0.0
v 0.789635 -3.8 0.0
v 1.05 -3.8 0.0
v 1.05 -3.575 0.0
v 0.789635 -3.15 0.0
v 1.231708 -3.575 0.0
v 1.231708 -3.15 0.0
v 2.075 -3.575 0.0
v 2.075 -3.15 0.0
v 2.25 -3.575 0.0
v 2.3 -3.15 0.0
v 2.3 -3.8 0.0
v 2.25 -3.8 0.0
v 2.3 -4.6 0.0
v 2.3 -5.5 0.0
v 2.25 -4.775 0.0
v 2.25 -4.6 0.0
v 1.231708 -4.775 0.0
v 2.075 -4.775 0.0
v 2.075 -5.5 0.0
v -1.275 -3.15 0.0
v -1.275 -3.575 0.0
v -2.3 -3.15 0.0
v -2.25 -3.575 0.0
v -2.3 -3.8 0.0
v -1.05 -3.8 0.0
v -1.05 -3.575 0.0
v -0.625 -3.15 0.0
v -1.275 -4.775 0.0
v -1.05 -4.775 0.0
v -0.625 -5.5 0.0
v -0.625 -4.6 0.0
v -1.275 -3.125 0.0
v -1.05 -3.125 0.0
v -2.25 -3.125 0.0
v -2.25 -1.925 0.0
v -2.3 -1.9 0.0
v -1.275 -1.925 0.0
v -1.275 -1.9 0.0
v -1.05 -1.925 0.0
v -0.625 -1.9 0.0
v -2.3 -0.45 0.0
v -2.25 -0.875 0.0
v -2.3 -1.25 0.0
v -2.25 -1.25 0.0
v -2.25 -1.475 0.0
v -2.3 0.45 0.0
v -1.65 -0.275 0.0
v -1.825 -0.45 0.0
v -1.275 -0.275 0.0
v -1.05 -0.275 0.0
v -1.05 -0.45 0.0
v -1.05 -1.475 0.0
v -1.275 -1.475 0.0
v 1.231708 -0.275 0.0
v 1.05 -0.275 0.0
v 0.789635 0.45 0.0
v 2.3 -1.25 0.0
v 2.25 -0.45 0.0
v 2.3 -0.45 0.0
v 2.25 -0.275 0.0
v 2.3 0.45 0.0
v 2.075 -1.9 0.0
v 2.075 -1.475 0.0
v 2.3 -1.9 0.0
v 2.25 -1.475 0.0
v 2.25 -1.25 0.0
v 1.05 -1.25 0.0
v 0.789635 -1.9 0.0
v 0.789635 -1.25 0.0
v 0.789635 -0.45 0.0
v 1.05 -0.45 0.0
v 0.625 5.87677 0.0
v 0.789635 5.87677 0.0
v 0.789635 4.875 0.0
v 1.231708 3.85 0.0
v 1.05 4.075 0.0
v 1.05 4.875 0.0
v 0.789635 6.88159 0.0
v 0.838415 6.910553 0.0
v 0.891712 6.888669 0.0
v 0.896223 7.386606 0.0
v 0.838415 7.370919 0.0
v 0.789635 10.25 0.0
v 0.838415 7.303846 0.0
v 0.838415 6.965431 0.0
v 0.894735 7.327963 0.0
v 0.847376 6.960468 0.0
v 0.955507 7.335858 0.0
v 1.004742 7.330329 0.0
v 1.086071 6.901611 0.0
v 1.126291 6.927294 0.0
v 1.231708 6.88159 0.0
v 1.163847 6.966833 0.0
v 1.190483 7.014376 0.0
v 1.183978 7.252945 0.0
v 1.154672 7.299692 0.0
v 1.231708 10.25 0.0
v 1.109531 7.343106 0.0
v 1.042166 7.316823 0.0
v 1.076773 7.293671 0.0
v 1.106967 7.260337 0.0
v 1.143293 7.129303 0.0
v 1.13823 7.075176 0.0
v 1.124646 7.032168 0.0
v 1.013386 6.93865 0.0
v 0.96675 6.933419 0.0
v 1.049818 6.952063 0.0
v 1.080504 6.972745 0.0
v 1.103967 6.997498 0.0
v 0.900379 6.940786 0.0
v 1.12758 7.221732 0.0
v 1.140908 7.168206 0.0
v 1.205531 7.0673 0.0
v 1.210366 7.125207 0.0
v 1.203174 7.196292 0.0
v 1.062039 7.370443 0.0
v 1.006299 7.386636 0.0
v 0.956079 7.390736 0.0
v 0.942236 6.88159 0.0
v 0.96232 6.878776 0.0
v 0.975991 6.878541 0.0
v 1.005395 6.88159 0.0
v 1.037609 6.88493 0.0
v 0.472561 6.939517 0.0
v 0.472561 6.884639 0.0
v 0.423781 6.88159 0.0
v 0.625 6.88159 0.0
v 0.673781 7.110248 0.0
v 0.673781 6.939517 0.0
v 0.625 7.110248 0.0
v 0.625 6.939517 0.0
v 0.496952 7.110248 0.0
v 0.496952 7.165126 0.0
v 0.673781 7.329761 0.0
v 0.673781 7.165126 0.0
v 0.625 7.329761 0.0
v 0.625 7.165126 0.0
v 0.484756 7.329761 0.0
v 0.625 6.884639 0.0
v 0.740854 6.884639 0.0
v 0.740854 7.384639 0.0
v 0.484756 7.384639 0.0
v 0.423781 10.25 0.0
v 0.625 7.384639 0.0
v 0.625 10.25 0.0
v 0.789635 -9.125 0.0
v 1.05 -9.125 0.0
v 1.231708 -10.087501 0.0
v 0.65 -9.925 0.0
v 0.789635 -10.087501 0.0
v 0.789635 -9.925 0.0
v 1.05 -9.925 0.0
v -0.6 -0.275 0.0
v -0.6 -0.45 0.0
v -0.625 -0.45 0.0
v -0.6 -1.25 0.0
v -0.625 -1.25 0.0
v -0.6 -1.475 0.0
v -0.557622 -0.275 0.0
v -1.05 -1.25 0.0
v -0.557622 -1.9 0.0
v -0.557622 -1.475 0.0
v 0.423781 -1.9 0.0
v 0.423781 -1.475 0.0
v 0.625 -1.9 0.0
v 0.6 -1.475 0.0
v 0.625 -1.25 0.0
v -0.6 -3.125 0.0
v -0.6 -1.925 0.0
v -0.557622 -1.925 0.0
v 0.423781 -1.925 0.0
v 0.6 -1.925 0.0
v 0.6 -3.125 0.0
v 0.625 -3.15 0.0
v 0.423781 -3.125 0.0
v -1.05 -4.6 0.0
v -0.625 -3.8 0.0
v -0.6 -3.575 0.0
v -0.557622 -3.575 0.0
v 0.423781 -3.575 0.0
v 0.6 -3.575 0.0
v 0.625 -3.8 0.0
v 0.6 -3.8 0.0
v 0.625 -4.6 0.0
v 0.625 -5.5 0.0
v 0.6 -4.775 0.0
v 0.6 -4.6 0.0
v -0.557622 -4.775 0.0
v 0.423781 -4.775 0.0
v 0.423781 -5.5 0.0
v 1.05 -1.925 0.0
v 1.05 -3.125 0.0
v 1.231708 -3.125 0.0
v 2.075 -3.125 0.0
v 2.25 -3.125 0.0
v 2.25 -1.925 0.0
v 2.075 -1.925 0.0
v 1.231708 -1.925 0.0
v 6.375 -10.087501 0.0
v 7.7 -10.25 0.0
v 7.7 -10.087501 0.0
v 4.675 -10.087501 0.0
v 0.423781 -10.25 0.0
v 0.625 -10.25 0.0
v 0.789635 -10.25 0.0
v 1.231708 -10.25 0.0
v 2.075 -10.25 0.0
v 2.3 -10.25 0.0
v -0.625 -8.05 0.0
v -0.557622 -10.087501 0.0
v -0.625 -10.087501 0.0
v -0.557622 -10.25 0.0
v -0.625 -10.25 0.0
v -2.3 -10.087501 0.0
v -1.275 -10.087501 0.0
v -1.275 -10.25 0.0
v -4.675 -10.087501 0.0
v -7.55 -10.087501 0.0
v -6.375 -10.25 0.0
v -6.375 -10.087501 0.0
v -4.675 -10.25 0.0
v 6.6 -9.125 0.0
v 6.6 -9.925 0.0
v 7.4 -8.674999 0.0
v 7.4 -8.275001 0.0
v 7.7 -8.05 0.0
v 7.4 -9.925 0.0
v 7.4 -9.125 0.0
v 6.375 -8.05 0.0
v 6.6 -8.275001 0.0
v 6.6 -8.674999 0.0
v 5.75 -9.925 0.0
v 6.15 -9.925 0.0
v 6.15 -9.125 0.0
v 5.3 -9.125 0.0
v 5.525 -8.05 0.0
v 5.75 -9.125 0.0
v 4.675 -8.05 0.0
v 4.9 -9.125 0.0
v 4.9 -9.925 0.0
v 5.3 -9.925 0.0
v 3.2 -9.125 0.0
v 3.2 -9.925 0.0
v 3.6 -9.925 0.0
v 4.05 -9.925 0.0
v 4.05 -9.125 0.0
v 4.45 -9.925 0.0
v 4.45 -9.125 0.0
v 3.6 -9.125 0.0
v 2.35 -9.925 0.0
v 2.75 -9.925 0.0
v 2.75 -9.125 0.0
v 2.975 -8.05 0.0
v 1.5 -9.925 0.0
v -0.2 -9.925 0.0
v -1.05 -9.925 0.0
v -1.5 -9.925 0.0
v -1.5 -9.125 0.0
v -1.9 -9.925 0.0
v -1.9 -9.125 0.0
v -3.6 -9.925 0.0
v -3.2 -9.925 0.0
v -2.75 -9.925 0.0
v -2.35 -9.925 0.0
v -2.35 -9.125 0.0
v -2.75 -9.125 0.0
v -3.2 -9.125 0.0
v -3.825 -8.05 0.0
v -3.6 -9.125 0.0
v -4.45 -9.925 0.0
v -4.05 -9.925 0.0
v -6.15 -9.925 0.0
v -5.75 -9.925 0.0
v -5.3 -9.925 0.0
v -5.3 -9.125 0.0
v -4.9 -9.925 0.0
v -4.9 -9.125 0.0
v -5.75 -9.125 0.0
v -6.6 -9.125 0.0
v -6.375 -8.05 0.0
v -6.15 -9.125 0.0
v -7.4 -9.125 0.0
v -7.4 -9.925 0.0
v -6.6 -9.925 0.0
v -7.55 -8.05 0.0
v -7.4 -8.674999 0.0
v -6.6 -8.674999 0.0
v -6.6 -8.275001 0.0
v -7.4 -8.275001 0.0
v 7.4 -7.825 0.0
v 6.6 -7.825 0.0
v 6.6 -7.425 0.0
v 6.375 -7.2 0.0
v 7.4 -7.425 0.0
v 7.7 -7.2 0.0
v 1.9 -9.925 0.0
v 1.231708 -7.2 0.0
v -0.65 -9.925 0.0
v -1.275 -7.2 0.0
v -2.3 -5.5 0.0
v -6.6 -7.425 0.0
v -6.375 -7.2 0.0
v -6.6 -7.825 0.0
v -7.4 -7.825 0.0
v -7.4 -7.425 0.0
v -7.55 -7.2 0.0
v 7.4 -6.575 0.0
v 7.7 -5.5 0.0
v 6.6 -6.575 0.0
v 6.6 -6.975 0.0
v 7.4 -6.975 0.0
v 6.375 -5.5 0.0
v 6.6 -6.125 0.0
v 7.4 -6.125 0.0
v 7.4 -5.725 0.0
v 6.6 -5.725 0.0
v 2.3 -7.2 0.0
v 1.05 -4.775 0.0
v 1.231708 -5.5 0.0
v 2.075 -7.2 0.0
v 2.3 -8.05 0.0
v 2.35 -9.125 0.0
v 0.625 -7.2 0.0
v -0.6 -4.775 0.0
v -0.557622 -5.5 0.0
v 0.423781 -7.2 0.0
v 0.625 -8.05 0.0
v -0.6 -3.8 0.0
v -0.6 -4.6 0.0
v -0.557622 -7.2 0.0
v 0.65 -9.125 0.0
v 0.2 -9.925 0.0
v -0.625 -7.2 0.0
v -1.275 -5.5 0.0
v -2.25 -4.775 0.0
v -2.25 -3.8 0.0
v -2.25 -4.6 0.0
v -2.3 -4.6 0.0
v -7.4 -6.575 0.0
v -7.4 -6.975 0.0
v -6.6 -6.575 0.0
v -6.375 -5.5 0.0
v -6.6 -6.975 0.0
v -7.55 -5.5 0.0
v -7.4 -6.125 0.0
v -6.6 -6.125 0.0
v -6.6 -5.725 0.0
v -7.4 -5.725 0.0
v 7.4 -5.275 0.0
v 6.6 -5.275 0.0
v 6.6 -4.875 0.0
v 6.375 -4.6 0.0
v 7.4 -4.875 0.0
v 7.7 -4.6 0.0
v -6.6 -4.875 0.0
v -6.375 -4.6 0.0
v -6.6 -5.275 0.0
v -7.4 -5.275 0.0
v -7.4 -4.875 0.0
v -7.55 -4.6 0.0
v 7.4 -4.425 0.0
v 6.6 -4.425 0.0
v 6.6 -4.025 0.0
v 6.375 -3.8 0.0
v 7.4 -4.025 0.0
v 7.7 -3.8 0.0
v -6.6 -4.025 0.0
v -6.375 -3.8 0.0
v -6.6 -4.425 0.0
v -7.4 -4.425 0.0
v -7.4 -4.025 0.0
v -7.55 -3.8 0.0
v 7.4 -3.575 0.0
v 6.6 -3.575 0.0
v 6.6 -3.175 0.0
v 6.375 -3.15 0.0
v 7.4 -3.175 0.0
v 7.7 -3.15 0.0
v -6.6 -3.175 0.0
v -6.375 -3.15 0.0
v -6.6 -3.575 0.0
v -7.4 -3.575 0.0
v -7.4 -3.175 0.0
v -7.55 -3.15 0.0
v 7.4 -2.325 0.0
v 7.7 -1.9 0.0
v 7.4 -2.725 0.0
v 6.6 -2.725 0.0
v 6.6 -2.325 0.0
v 6.375 -1.9 0.0
v -6.6 -2.325 0.0
v -6.375 -1.9 0.0
v -6.6 -2.725 0.0
v -7.4 -2.725 0.0
v -7.4 -2.325 0.0
v -7.55 -1.9 0.0
v 6.6 -1.875 0.0
v 7.4 -1.875 0.0
v 6.6 -1.475 0.0
v 6.375 -1.25 0.0
v 7.4 -1.475 0.0
v 7.7 -1.25 0.0
v -7.4 -1.875 0.0
v -6.6 -1.875 0.0
v -7.4 -1.475 0.0
v -7.55 -1.25 0.0
v -6.6 -1.475 0.0
v -6.375 -1.25 0.0
v 7.4 -0.625 0.0
v 7.7 -0.45 0.0
v 7.4 -1.025 0.0
v 6.6 -1.025 0.0
v 6.6 -0.625 0.0
v 6.375 -0.45 0.0
v 0.625 0.45 0.0
v 0.625 -0.45 0.0
v -7.4 -0.625 0.0
v -7.55 -0.45 0.0
v -6.6 -0.625 0.0
v -6.375 -0.45 0.0
v -6.6 -1.025 0.0
v -7.4 -1.025 0.0
v 7.4 0.225 0.0
v 7.7 0.45 0.0
v 7.4 -0.175 0.0
v 6.6 -0.175 0.0
v 6.6 0.225 0.0
v 6.375 0.45 0.0
v 5.525 1.3 0.0
v 5.525 0.45 0.0
v 5.525 -0.45 0.0
v 5.525 -1.25 0.0
v 5.525 -1.9 0.0
v 5.525 -3.15 0.0
v 5.525 -3.8 0.0
v 5.525 -4.6 0.0
v 5.525 -5.5 0.0
v 5.525 -7.2 0.0
v -7.4 0.225 0.0
v -7.55 0.45 0.0
v -6.6 0.225 0.0
v -6.375 0.45 0.0
v -6.6 -0.175 0.0
v -7.4 -0.175 0.0
v 6.6 1.075 0.0
v 6.375 1.3 0.0
v 7.4 1.075 0.0
v 7.7 1.3 0.0
v 7.4 0.675 0.0
v 6.6 0.675 0.0
v 4.675 2.15 0.0
v 4.675 1.3 0.0
v 4.675 0.45 0.0
v 4.675 -0.45 0.0
v 4.675 -1.25 0.0
v 4.675 -1.9 0.0
v 4.675 -3.15 0.0
v 4.675 -3.8 0.0
v 4.675 -4.6 0.0
v 4.675 -5.5 0.0
v 4.675 -7.2 0.0
v -2.3 2.15 0.0
v -2.3 1.3 0.0
v -7.4 1.075 0.0
v -7.55 1.3 0.0
v -6.6 1.075 0.0
v -6.375 1.3 0.0
v -6.6 0.675 0.0
v -7.4 0.675 0.0
v 6.6 1.925 0.0
v 6.6 1.525 0.0
v 7.4 1.525 0.0
v 7.7 2.15 0.0
v 7.4 1.925 0.0
v 6.375 2.15 0.0
v 5.525 2.15 0.0
v 2.975 3.85 0.0
v 2.975 2.15 0.0
v 2.975 1.3 0.0
v 2.975 0.45 0.0
v 2.975 -0.45 0.0
v 2.975 -1.25 0.0
v 2.975 -1.9 0.0
v 2.975 -3.15 0.0
v 2.975 -3.8 0.0
v 2.975 -4.6 0.0
v 2.975 -5.5 0.0
v 2.975 -7.2 0.0
v -3.825 3.85 0.0
v -3.825 2.15 0.0
v -3.825 1.3 0.0
v -3.825 0.45 0.0
v -3.825 -0.45 0.0
v -3.825 -1.25 0.0
v -3.825 -1.9 0.0
v -3.825 -3.15 0.0
v -3.825 -3.8 0.0
v -3.825 -4.6 0.0
v -3.825 -5.5 0.0
v -3.825 -7.2 0.0
v -7.4 1.925 0.0
v -6.6 1.925 0.0
v -6.375 2.15 0.0
v -6.6 1.525 0.0
v -7.4 1.525 0.0
v 6.6 2.775 0.0
v 6.6 2.375 0.0
v 7.4 3.225 0.0
v 7.4 3.625 0.0
v 7.7 3.85 0.0
v 7.4 2.375 0.0
v 7.4 2.775 0.0
v 6.375 3.85 0.0
v 6.6 3.625 0.0
v 6.6 3.225 0.0
v 5.525 3.85 0.0
v 4.675 3.85 0.0
v 2.075 0.45 0.0
v 2.075 1.3 0.0
v 2.3 1.3 0.0
v 2.075 2.15 0.0
v 2.3 2.15 0.0
v 2.075 3.85 0.0
v 2.3 3.85 0.0
v 1.231708 2.15 0.0
v 0.65 4.875 0.0
v 0.625 3.85 0.0
v 0.789635 2.15 0.0
v 1.231708 1.3 0.0
v 2.075 -0.275 0.0
v 1.231708 0.45 0.0
v 0.789635 1.3 0.0
v 0.625 1.3 0.0
v 0.625 2.15 0.0
v 0.423781 2.15 0.0
v 0.423781 3.85 0.0
v -0.557622 3.85 0.0
v 0.6 -1.25 0.0
v 0.6 -0.45 0.0
v 0.6 -0.275 0.0
v 0.423781 0.45 0.0
v 0.423781 1.3 0.0
v -0.557622 1.3 0.0
v -0.557622 2.15 0.0
v -0.625 2.15 0.0
v -0.625 3.85 0.0
v -1.275 3.85 0.0
v 0.423781 -0.275 0.0
v -0.557622 0.45 0.0
v -0.625 1.3 0.0
v -1.275 2.15 0.0
v -2.3 3.85 0.0
v -4.675 -7.2 0.0
v -4.675 -5.5 0.0
v -4.675 -4.6 0.0
v -4.675 -3.8 0.0
v -4.675 -3.15 0.0
v -4.675 -1.9 0.0
v -4.675 -1.25 0.0
v -4.675 -0.45 0.0
v -4.675 0.45 0.0
v -4.675 1.3 0.0
v -4.675 2.15 0.0
v -4.675 3.85 0.0
v -6.6 2.775 0.0
v -6.375 3.85 0.0
v -6.6 2.375 0.0
v -7.55 3.85 0.0
v -7.4 3.225 0.0
v -6.6 3.225 0.0
v -6.6 3.625 0.0
v -7.4 3.625 0.0
v 6.6 4.075 0.0
v 7.4 4.075 0.0
v 7.4 4.875 0.0
v 6.6 4.875 0.0
v 6.375 5.87677 0.0
v 7.7 5.87677 0.0
v 5.75 4.075 0.0
v 6.15 4.075 0.0
v 6.15 4.875 0.0
v 5.75 4.875 0.0
v 5.525 5.87677 0.0
v 5.3 4.075 0.0
v 5.3 4.875 0.0
v 4.9 4.075 0.0
v 4.9 4.875 0.0
v 4.675 5.87677 0.0
v 3.2 4.075 0.0
v 3.6 4.075 0.0
v 4.05 4.075 0.0
v 4.45 4.075 0.0
v 4.45 4.875 0.0
v 4.05 4.875 0.0
v 2.35 4.875 0.0
v 2.35 4.075 0.0
v 1.5 4.075 0.0
v 1.9 4.075 0.0
v 2.75 4.875 0.0
v 0.423781 5.87677 0.0
v -0.2 4.875 0.0
v -0.2 4.075 0.0
v 0.2 4.075 0.0
v 0.2 4.875 0.0
v -0.557622 5.87677 0.0
v -0.625 5.87677 0.0
v -1.05 4.075 0.0
v -0.65 4.075 0.0
v -0.65 4.875 0.0
v -1.05 4.875 0.0
v -1.275 5.87677 0.0
v -1.9 4.075 0.0
v -1.5 4.075 0.0
v -1.5 4.875 0.0
v -1.9 4.875 0.0
v -2.3 5.87677 0.0
v -2.75 4.075 0.0
v -2.35 4.075 0.0
v -2.35 4.875 0.0
v -2.75 4.875 0.0
v -3.825 5.87677 0.0
v -3.6 4.075 0.0
v -3.2 4.075 0.0
v -3.6 4.875 0.0
v -3.2 4.875 0.0
v -4.05 4.075 0.0
v -4.05 4.875 0.0
v -4.45 4.075 0.0
v -4.45 4.875 0.0
v -4.675 5.87677 0.0
v -5.3 4.875 0.0
v -5.3 4.075 0.0
v -5.75 4.075 0.0
v -6.15 4.075 0.0
v -6.15 4.875 0.0
v -6.375 5.87677 0.0
v -5.75 4.875 0.0
v -4.9 4.075 0.0
v -4.9 4.875 0.0
v -6.6 4.075 0.0
v -6.6 4.875 0.0
v -7.4 4.075 0.0
v -7.4 4.875 0.0
v -7.55 5.87677 0.0
v 7.7 6.88159 0.0
v 6.375 6.88159 0.0
v 5.525 6.88159 0.0
v 4.675 6.88159 0.0
v 2.975 6.88159 0.0
v -7.55 6.88159 0.0
v -6.375 6.88159 0.0
v -4.675 6.88159 0.0
v -3.825 6.88159 0.0
v -2.3 6.88159 0.0
v -1.275 6.88159 0.0
v -0.625 6.88159 0.0
v -0.557622 6.88159 0.0
v 7.7 10.25 0.0
v 6.375 10.25 0.0
v 5.525 10.25 0.0
v 4.675 10.25 0.0
v 2.975 10.25 0.0
v 2.3 10.25 0.0
v 2.075 10.25 0.0
v 2.3 6.88159 0.0
v 1.253049 6.939517 0.0
v 1.253049 6.884639 0.0
v 1.509147 6.884639 0.0
v 1.509147 7.384639 0.0
v 1.442074 6.939517 0.0
v 1.442074 7.384639 0.0
v 2.75 4.075 0.0
v 0.375 6.884639 0.0
v 0.375 7.384639 0.0
v -0.557622 10.25 0.0
v -0.253048 7.384639 0.0
v -0.320122 7.384639 0.0
v -0.515244 6.884639 0.0
v -0.442073 6.884639 0.0
v 0.067357 6.937551 0.0
v -0.064024 6.884639 0.0
v 0.026202 6.976955 0.0
v -0.002471 7.021677 0.0
v 0.233899 7.384639 0.0
v 0.048218 7.319444 0.0
v 0.012861 7.280238 0.0
v -0.010376 7.237237 0.0
v 0.119564 6.907212 0.0
v 0.177178 6.890039 0.0
v 0.239044 6.884639 0.0
v 0.161663 7.376917 0.0
v 0.103162 7.356375 0.0
v 0.048741 7.319904 0.0
v -0.391482 7.024883 0.0
v -0.184927 7.024883 0.0
v -0.137195 6.884639 0.0
v -0.023805 7.187974 0.0
v -0.027439 7.140927 0.0
v -0.020422 7.074012 0.0
v -7.55 10.25 0.0
v -6.375 10.25 0.0
v -4.675 10.25 0.0
v -3.825 10.25 0.0
v -2.3 10.25 0.0
v -1.275 10.25 0.0
v -0.625 10.25 0.0
v -7.7 -8.05 0.0
v -7.7 -7.2 0.0
v -7.7 -5.5 0.0
v -7.7 -4.6 0.0
v -7.7 -3.8 0.0
v -7.7 -3.15 0.0
v -7.7 -1.9 0.0
v -7.7 -1.25 0.0
v -7.7 -0.45 0.0
v -7.7 0.45 0.0
v -7.7 1.3 0.0
v -7.7 2.15 0.0
v -7.7 3.85 0.0
v -7.7 5.87677 0.0
v -7.7 6.88159 0.0
v -7.7 10.25 0.0
v 6.9 3.773205 0.8
v 6.941422 3.741421 0.8
v 7.38448 5.426846 0.8
v 6.851764 3.793185 0.8
v -7.7 10.25 0.8
v -7.7 -10.25 0.8
v -7.406971 4.796245 0.8
v 6.973205 3.7 0.8
v 6.993185 3.651764 0.8
v 7.0 3.6 0.8
v -7.006971 9.761806 0.8
v -7.006971 4.796245 0.8
v -5.58812 9.761806 0.8
v -5.58812 4.796245 0.8
v -7.406971 10.161806 0.8
v -3.228352 10.161806 0.8
v 7.7 10.25 0.8
v 3.017645 10.161806 0.8
v 7.38448 10.161806 0.8
v 7.7 -10.25 0.8
v 1.117738 9.761806 0.8
v -1.2937 9.761806 0.8
v 1.117738 7.356807 0.8
v -1.2937 7.356807 0.8
v -6.851764 -9.743185 0.8
v -6.9 -9.723206 0.8
v -6.941422 -9.691421 0.8
v -6.973205 -9.650001 0.8
v 6.8 3.8 0.8
v 6.98448 5.426846 0.8
v -6.8 3.8 0.8
v -3.628351 9.761806 0.8
v -5.095463 9.761806 0.8
v -3.628351 7.356807 0.8
v -5.095463 4.796245 0.8
v 7.0 -9.549999 0.8
v 6.994986 -9.594503 0.8
v 6.980194 -9.636777 0.8
v -6.993185 -9.601764 0.8
v -7.0 -9.549999 0.8
v -7.0 3.6 0.8
v -6.993185 3.651764 0.8
v 1.517738 10.161806 0.8
v 1.517738 7.756807 0.8
v 3.017645 7.756807 0.8
v 6.98448 9.761806 0.8
v 3.417645 9.761806 0.8
v 3.417645 7.356807 0.8
v -1.693699 10.161806 0.8
v -1.693699 7.756807 0.8
v -3.228352 7.756807 0.8
v 6.956367 -9.674698 0.8
v 6.924698 -9.706366 0.8
v 6.886776 -9.730194 0.8
v 6.844504 -9.744986 0.8
v 6.8 -9.75 0.8
v -6.8 -9.75 0.8
v -6.973205 3.7 0.8
v -6.941422 3.741421 0.8
v -6.9 3.773205 0.8
v -6.851764 3.793185 0.8
v -5.58812 9.761806 0.81
v -7.006971 9.761806 0.81
newmtl 2
Ka 1.0 1.0 0.5019607843137255
Kd 1.0 1.0 0.5019607843137255
Ks 0.5019607843137255 0.5019607843137255 0.25098039215686274
d 0.0
endmtl
v -5.095463 9.761806 0.81
v -3.628351 9.761806 0.81
v 7.0 3.6 2.2
v 7.0 -9.549999 2.2
newmtl 3
Ka 1.0 1.0 1.0
Kd 1.0 1.0 1.0
Ks 0.5019607843137255 0.5019607843137255 0.5019607843137255
d 0.0
endmtl
v -6.8 3.8 2.2
v 6.8 3.8 2.2
v -7.0 -9.549999 2.2
v -7.0 3.6 2.2
v -6.8 -9.75 2.2
v 6.8 -9.75 2.2
v -5.79248 2.718023 2.4
v 6.8 -9.549999 2.4
v -5.756362 2.805221 2.4
v 6.8 3.6 2.4
v -5.744043 2.898795 2.4
v -5.849936 2.643144 2.4
v -5.924815 2.585688 2.4
v -6.8 -9.549999 2.4
v -6.012012 2.54957 2.4
v -6.105587 2.537251 2.4
v -6.199162 2.54957 2.4
v -6.28636 2.585688 2.4
v -6.361238 2.643144 2.4
v -6.8 3.6 2.4
v -6.454813 2.99237 2.4
v -6.418695 3.079568 2.4
v -6.418695 2.718023 2.4
v -6.454813 2.805221 2.4
v -6.467133 2.898795 2.4
v -6.361238 3.154446 2.4
v -6.28636 3.211902 2.4
v -6.199162 3.248021 2.4
v -6.105587 3.26034 2.4
v -6.012012 3.248021 2.4
v -5.924815 3.211902 2.4
v -5.849936 3.154446 2.4
v -5.79248 3.079568 2.4
v -5.756362 2.99237 2.4
v 6.993185 3.651764 2.2
v 6.973205 3.7 2.2
v 6.941422 3.741421 2.2
v 6.9 3.773205 2.2
v 6.851764 3.793185 2.2
v 6.844395 -9.549999 2.394155
v 6.844395 3.6 2.394155
v 6.851764 3.6 2.393185
v 6.851764 -9.549999 2.393185
v 6.886242 3.6 2.378904
v 6.886242 -9.549999 2.378904
v 6.9 3.6 2.373205
v 6.9 -9.549999 2.373205
v 6.923678 3.6 2.355036
v 6.923678 -9.549999 2.355036
v 6.941422 3.6 2.341421
v 6.941422 -9.549999 2.341421
v 6.955037 3.6 2.323678
v 6.955037 -9.549999 2.323678
v 6.973205 3.6 2.3
v 6.973205 -9.549999 2.3
v 6.978904 3.6 2.286242
v 6.978904 -9.549999 2.286242
v 6.993185 3.6 2.251764
v 6.993185 -9.549999 2.251764
v 6.994155 3.6 2.244395
v 6.994155 -9.549999 2.244395
v 6.851764 -9.743185 0.8
v 6.851764 -9.743185 2.2
v 6.9 -9.723206 0.8
v 6.9 -9.723206 2.2
v 6.941422 -9.691421 0.8
v 6.941422 -9.691421 2.2
v 6.973205 -9.650001 0.8
v 6.973205 -9.650001 2.2
v 6.993185 -9.601764 0.8
v 6.993185 -9.601764 2.2
v 6.8 3.793185 2.251764
v 6.85 3.786602 2.251764
v 6.8 3.773205 2.3
v 6.844829 3.767303 2.3
v 6.825882 3.696593 2.373205
v 6.813397 3.65 2.393185
v 6.825882 3.644829 2.393185
v 6.8 3.651764 2.393185
v 6.85 3.613398 2.393185
v 6.844829 3.625882 2.393185
v 6.8 3.7 2.373205
v 6.8 3.741421 2.341421
v 6.85 3.686602 2.373205
v 6.836603 3.636603 2.393185
v 6.870711 3.670711 2.373205
v 6.886602 3.65 2.373205
v 6.896593 3.625882 2.373205
v 6.836603 3.736603 2.341421
v 6.870711 3.722474 2.341421
v 6.9 3.7 2.341421
v 6.922474 3.670711 2.341421
v 6.936603 3.636603 2.341421
v 6.886602 3.75 2.3
v 6.922474 3.722474 2.3
v 6.95 3.686602 2.3
v 6.967303 3.644829 2.3
v 6.896593 3.767303 2.251764
v 6.936603 3.736603 2.251764
v 6.967303 3.696593 2.251764
v 6.986603 3.65 2.251764
v 6.936603 -9.586602 2.341421
v 6.896593 -9.575882 2.373205
v 6.85 -9.563397 2.393185
v 6.844829 -9.575882 2.393185
v 6.813397 -9.6 2.393185
v 6.8 -9.594395 2.394155
v 6.825882 -9.594829 2.393185
v 6.886602 -9.6 2.373205
v 6.836603 -9.586602 2.393185
v 6.870711 -9.62071 2.373205
v 6.85 -9.636602 2.373205
v 6.825882 -9.646593 2.373205
v 6.8 -9.601764 2.393185
v 6.8 -9.636242 2.378904
v 6.8 -9.650001 2.373205
v 6.8 -9.673677 2.355036
v 6.922474 -9.62071 2.341421
v 6.9 -9.650001 2.341421
v 6.870711 -9.672474 2.341421
v 6.836603 -9.686603 2.341421
v 6.8 -9.691421 2.341421
v 6.967303 -9.594829 2.3
v 6.95 -9.636602 2.3
v 6.922474 -9.672474 2.3
v 6.886602 -9.700001 2.3
v 6.844829 -9.717303 2.3
v 6.8 -9.705037 2.323678
v 6.986603 -9.6 2.251764
v 6.967303 -9.646593 2.251764
v 6.936603 -9.686603 2.251764
v 6.896593 -9.717303 2.251764
v 6.85 -9.736602 2.251764
v 6.8 -9.723206 2.3
v 6.8 -9.728904 2.286242
v 6.8 -9.743185 2.251764
v 6.8 -9.744155 2.244395
v -6.851764 3.793185 2.2
v -6.9 3.773205 2.2
v -6.941422 3.741421 2.2
v -6.973205 3.7 2.2
v -6.993185 3.651764 2.2
v -6.8 3.651764 2.393185
v -6.8 3.7 2.373205
v -6.8 3.741421 2.341421
v -6.8 3.773205 2.3
v -6.8 3.793185 2.251764
v -6.8 -9.594395 2.394155
v -6.8 -9.601764 2.393185
v -6.8 -9.636242 2.378904
v -6.8 -9.650001 2.373205
v -6.8 -9.673677 2.355036
v -6.8 -9.691421 2.341421
v -6.8 -9.705037 2.323678
v -6.8 -9.723206 2.3
v -6.8 -9.728904 2.286242
v -6.8 -9.743185 2.251764
v -6.8 -9.744155 2.244395
v -6.993185 -9.601764 2.2
v -6.973205 -9.650001 2.2
v -6.941422 -9.691421 2.2
v -6.9 -9.723206 2.2
v -6.851764 -9.743185 2.2
v -6.993185 3.6 2.251764
v -6.986603 3.65 2.251764
v -6.886602 3.65 2.373205
v -6.844829 3.625882 2.393185
v -6.836603 3.636603 2.393185
v -6.813397 3.65 2.393185
v -6.85 3.613398 2.393185
v -6.896593 3.625882 2.373205
v -6.936603 3.636603 2.341421
v -6.851764 3.6 2.393185
v -6.870711 3.670711 2.373205
v -6.825882 3.644829 2.393185
v -6.85 3.686602 2.373205
v -6.825882 3.696593 2.373205
v -6.9 3.6 2.373205
v -6.941422 3.6 2.341421
v -6.973205 3.6 2.3
v -6.922474 3.670711 2.341421
v -6.9 3.7 2.341421
v -6.870711 3.722474 2.341421
v -6.836603 3.736603 2.341421
v -6.967303 3.644829 2.3
v -6.95 3.686602 2.3
v -6.922474 3.722474 2.3
v -6.886602 3.75 2.3
v -6.844829 3.767303 2.3
v -6.967303 3.696593 2.251764
v -6.936603 3.736603 2.251764
v -6.896593 3.767303 2.251764
v -6.85 3.786602 2.251764
v -6.844829 -9.717303 2.3
v -6.836603 -9.686603 2.341421
v -6.825882 -9.646593 2.373205
v -6.813397 -9.6 2.393185
v -6.825882 -9.594829 2.393185
v -6.851764 -9.549999 2.393185
v -6.85 -9.563397 2.393185
v -6.870711 -9.62071 2.373205
v -6.844829 -9.575882 2.393185
v -6.886602 -9.6 2.373205
v -6.896593 -9.575882 2.373205
v -6.9 -9.549999 2.373205
v -6.85 -9.636602 2.373205
v -6.836603 -9.586602 2.393185
v -6.870711 -9.672474 2.341421
v -6.9 -9.650001 2.341421
v -6.922474 -9.62071 2.341421
v -6.936603 -9.586602 2.341421
v -6.941422 -9.549999 2.341421
v -6.886602 -9.700001 2.3
v -6.922474 -9.672474 2.3
v -6.95 -9.636602 2.3
v -6.967303 -9.594829 2.3
v -6.973205 -9.549999 2.3
v -6.85 -9.736602 2.251764
v -6.896593 -9.717303 2.251764
v -6.936603 -9.686603 2.251764
v -6.967303 -9.646593 2.251764
v -6.986603 -9.6 2.251764
v -6.993185 -9.549999 2.251764
v -5.744043 2.898795 2.399
v -5.756362 2.99237 2.399
newmtl 4
Ka 0.0 0.0 0.0
Kd 0.0 0.0 0.0
Ks 0.0 0.0 0.0
d 0.0
endmtl
v -5.79248 3.079568 2.399
v -5.849936 3.154446 2.399
v -5.924815 3.211902 2.399
v -6.012012 3.248021 2.399
v -6.105587 3.26034 2.399
v -6.199162 3.248021 2.399
v -6.28636 3.211902 2.399
v -6.361238 3.154446 2.399
v -6.418695 3.079568 2.399
v -6.454813 2.99237 2.399
v -6.467133 2.898795 2.399
v -6.454813 2.805221 2.399
v -6.418695 2.718023 2.399
v -6.361238 2.643144 2.399
v -6.28636 2.585688 2.399
v -6.199162 2.54957 2.399
v -6.105587 2.537251 2.399
v -6.012012 2.54957 2.399
v -5.924815 2.585688 2.399
v -5.849936 2.643144 2.399
v -5.79248 2.718023 2.399
v -5.756362 2.805221 2.399
v -6.105587 2.898795 2.399
v -0.320122 7.384639 0.001
v -0.515244 6.884639 0.001
v -0.442073 6.884639 0.001
v -0.391482 7.024883 0.001
v -0.184927 7.024883 0.001
v -0.137195 6.884639 0.001
v -0.064024 6.884639 0.001
v -0.253048 7.384639 0.001
v -0.201791 7.079761 0.001
v -0.368997 7.079761 0.001
v -0.276391 7.288602 0.001
v -0.281203 7.305943 0.001
v -0.284394 7.323663 0.001
v -0.286013 7.323663 0.001
v -0.289276 7.305996 0.001
v -0.293731 7.288602 0.001
v -0.201791 7.079761 0.0
v -0.368997 7.079761 0.0
v -0.276391 7.288602 0.0
v -0.281203 7.305943 -0.0
v -0.284394 7.323663 0.0
v -0.286013 7.323663 0.0
v -0.289276 7.305996 0.0
v -0.293731 7.288602 0.0
v 0.239044 6.884639 0.001
v 0.375 6.884639 0.001
v 0.375 7.384639 0.001
v 0.233899 7.384639 0.001
v -0.027439 7.140927 0.001
v -0.023805 7.187974 0.001
v -0.010376 7.237237 0.001
v 0.012861 7.280238 0.001
v 0.048218 7.319444 0.001
v 0.048741 7.319904 0.001
v 0.103162 7.356375 0.001
v 0.161663 7.376917 0.001
v 0.177178 6.890039 0.001
v 0.119564 6.907212 0.001
v 0.067357 6.937551 0.001
v 0.026202 6.976955 0.001
v -0.002471 7.021677 0.001
v -0.020422 7.074012 0.001
v 0.072925 7.259645 0.001
v 0.097211 7.285432 0.001
v 0.133733 7.309027 0.001
v 0.175005 7.32347 0.001
v 0.234185 7.329761 0.001
v 0.307927 7.329761 0.001
v 0.307927 6.939517 0.001
v 0.236948 6.939517 0.001
v 0.184197 6.944427 0.001
v 0.142122 6.95756 0.001
v 0.108022 6.977808 0.001
v 0.079979 7.005508 0.001
v 0.05889 7.039981 0.001
v 0.044225 7.086982 0.001
v 0.039635 7.139498 0.001
v 0.043882 7.18926 0.001
v 0.055554 7.228807 0.001
v 0.234185 7.329761 0.0
v 0.307927 7.329761 0.0
v 0.175005 7.32347 0.0
v 0.133733 7.309027 0.0
v 0.097211 7.285432 0.0
v 0.072925 7.259645 0.0
v 0.055554 7.228807 0.0
v 0.043882 7.18926 0.0
v 0.039635 7.139498 0.0
v 0.044225 7.086982 0.0
v 0.05889 7.039981 0.0
v 0.079979 7.005508 0.0
v 0.108022 6.977808 0.0
v 0.142122 6.95756 0.0
v 0.184197 6.944427 0.0
v 0.236948 6.939517 0.0
v 0.307927 6.939517 0.0
v 0.472561 6.939517 0.001
v 0.472561 6.884639 0.001
v 0.740854 6.884639 0.001
v 0.740854 7.384639 0.001
v 0.484756 7.384639 0.001
v 0.484756 7.329761 0.001
v 0.673781 7.329761 0.001
v 0.673781 7.165126 0.001
v 0.496952 7.165126 0.001
v 0.496952 7.110248 0.001
v 0.673781 7.110248 0.001
v 0.673781 6.939517 0.001
v 0.838415 6.965431 0.001
v 0.838415 6.910553 0.001
v 0.891712 6.888669 0.001
v 0.975991 6.878541 0.001
v 0.96232 6.878776 0.001
v 1.037609 6.88493 0.001
v 1.086071 6.901611 0.001
v 1.126291 6.927294 0.001
v 1.163847 6.966833 0.001
v 1.190483 7.014376 0.001
v 1.205531 7.0673 0.001
v 1.210366 7.125207 0.001
v 0.956079 7.390736 0.001
v 1.006299 7.386636 0.001
v 1.062039 7.370443 0.001
v 1.109531 7.343106 0.001
v 1.154672 7.299692 0.001
v 1.183978 7.252945 0.001
v 1.203174 7.196292 0.001
v 0.838415 7.370919 0.001
v 0.896223 7.386606 0.001
v 0.838415 7.303846 0.001
v 0.955507 7.335858 0.001
v 0.894735 7.327963 0.001
v 1.143293 7.129303 0.001
v 1.140908 7.168206 0.001
v 1.12758 7.221732 0.001
v 1.106967 7.260337 0.001
v 1.076773 7.293671 0.001
v 1.042166 7.316823 0.001
v 1.004742 7.330329 0.001
v 0.96675 6.933419 0.001
v 1.013386 6.93865 0.001
v 1.049818 6.952063 0.001
v 1.080504 6.972745 0.001
v 1.103967 6.997498 0.001
v 1.124646 7.032168 0.001
v 1.13823 7.075176 0.001
v 0.847376 6.960468 0.001
v 0.900379 6.940786 0.001
v 1.253049 6.939517 0.001
v 1.253049 6.884639 0.001
v 1.509147 6.884639 0.001
v 1.509147 7.384639 0.001
v 1.442074 7.384639 0.001
v 1.442074 6.939517 0.001
v -7.406971 4.796245 0.81
v -7.406971 10.161806 0.81
v -7.006971 4.796245 0.81
v -3.628351 7.356807 0.81
v -1.2937 7.356807 0.81
v -1.2937 9.761806 0.81
v 1.117738 9.761806 0.81
v 1.117738 7.356807 0.81
v 3.417645 7.356807 0.81
v 3.417645 9.761806 0.81
v 6.98448 9.761806 0.81
v 6.98448 5.426846 0.81
v 7.38448 5.426846 0.81
v 7.38448 10.161806 0.81
v 3.017645 10.161806 0.81
v 3.017645 7.756807 0.81
v 1.517738 7.756807 0.81
v 1.517738 10.161806 0.81
v -1.693699 10.161806 0.81
v -1.693699 7.756807 0.81
v -3.228352 7.756807 0.81
v -3.228352 10.161806 0.81
v -5.58812 4.796245 0.81
v -5.095463 4.796245 0.81
newmtl 5
Ka 0.5019607843137255 0.25098039215686274 0.0
Kd 0.5019607843137255 0.25098039215686274 0.0
Ks 0.44313725490196076 0.2196078431372549 0.0
d 0.0
endmtl
v -7.4 4.875 -0.02
v -7.4 4.075 -0.02
newmtl 6
Ka 0.6470588235294118 0.5176470588235295 0.0
Kd 0.6470588235294118 0.5176470588235295 0.0
Ks 0.45098039215686275 0.3607843137254902 0.0
d 0.0
endmtl
v -6.6 4.875 -0.02
v -6.6 4.075 -0.02
v -7.4 3.625 -0.02
v -7.4 3.225 -0.02
v -6.6 3.625 -0.02
v -6.6 3.225 -0.02
v -7.4 2.375 -0.02
v -6.6 2.375 -0.02
v -7.4 2.775 -0.02
v -6.6 2.775 -0.02
v -7.4 1.525 -0.02
v -6.6 1.525 -0.02
v -7.4 1.925 -0.02
v -6.6 1.925 -0.02
v -7.4 0.675 -0.02
v -6.6 0.675 -0.02
v -7.4 1.075 -0.02
v -6.6 1.075 -0.02
v -7.4 -0.175 -0.02
v -6.6 -0.175 -0.02
v -7.4 0.225 -0.02
v -6.6 0.225 -0.02
v -7.4 -1.025 -0.02
v -6.6 -1.025 -0.02
v -7.4 -0.625 -0.02
v -6.6 -0.625 -0.02
v -7.4 -1.875 -0.02
v -6.6 -1.875 -0.02
v -7.4 -1.475 -0.02
v -6.6 -1.475 -0.02
v -6.15 4.875 -0.02
v -6.15 4.075 -0.02
v -5.75 4.875 -0.02
v -5.75 4.075 -0.02
v -5.3 4.075 -0.02
v -4.9 4.075 -0.02
v -5.3 4.875 -0.02
v -4.9 4.875 -0.02
v -4.45 4.075 -0.02
v -4.05 4.075 -0.02
v -4.45 4.875 -0.02
v -4.05 4.875 -0.02
v -3.6 4.075 -0.02
v -3.2 4.075 -0.02
v -3.6 4.875 -0.02
v -3.2 4.875 -0.02
v -2.75 4.075 -0.02
v -2.35 4.075 -0.02
v -2.75 4.875 -0.02
v -2.35 4.875 -0.02
v -1.9 4.075 -0.02
v -1.5 4.075 -0.02
v -1.9 4.875 -0.02
v -1.5 4.875 -0.02
v -1.05 4.075 -0.02
v -0.65 4.075 -0.02
v -1.05 4.875 -0.02
v -0.65 4.875 -0.02
v -7.4 -9.125 -0.02
v -7.4 -9.925 -0.02
v -6.6 -9.125 -0.02
v -6.6 -9.925 -0.02
v -7.4 -8.275001 -0.02
v -7.4 -8.674999 -0.02
v -6.6 -8.275001 -0.02
v -6.6 -8.674999 -0.02
v -6.6 -7.425 -0.02
v -7.4 -7.425 -0.02
v -6.6 -7.825 -0.02
v -7.4 -7.825 -0.02
v -6.6 -6.575 -0.02
v -7.4 -6.575 -0.02
v -6.6 -6.975 -0.02
v -7.4 -6.975 -0.02
v -6.6 -5.725 -0.02
v -7.4 -5.725 -0.02
v -6.6 -6.125 -0.02
v -7.4 -6.125 -0.02
v -6.6 -4.875 -0.02
v -7.4 -4.875 -0.02
v -6.6 -5.275 -0.02
v -7.4 -5.275 -0.02
v -6.6 -4.025 -0.02
v -7.4 -4.025 -0.02
v -6.6 -4.425 -0.02
v -7.4 -4.425 -0.02
v -6.6 -3.175 -0.02
v -7.4 -3.175 -0.02
v -6.6 -3.575 -0.02
v -7.4 -3.575 -0.02
v -6.15 -9.125 -0.02
v -6.15 -9.925 -0.02
v -5.75 -9.125 -0.02
v -5.75 -9.925 -0.02
v -4.9 -9.125 -0.02
v -5.3 -9.125 -0.02
v -4.9 -9.925 -0.02
v -5.3 -9.925 -0.02
v -4.05 -9.125 -0.02
v -4.45 -9.125 -0.02
v -4.05 -9.925 -0.02
v -4.45 -9.925 -0.02
v -3.2 -9.125 -0.02
v -3.6 -9.125 -0.02
v -3.2 -9.925 -0.02
v -3.6 -9.925 -0.02
v -2.35 -9.125 -0.02
v -2.75 -9.125 -0.02
v -2.35 -9.925 -0.02
v -2.75 -9.925 -0.02
v -1.5 -9.125 -0.02
v -1.9 -9.125 -0.02
v -1.5 -9.925 -0.02
v -1.9 -9.925 -0.02
v -0.65 -9.125 -0.02
v -1.05 -9.125 -0.02
v -0.65 -9.925 -0.02
v -1.05 -9.925 -0.02
v 7.4 -9.925 -0.02
v 7.4 -9.125 -0.02
v 6.6 -9.925 -0.02
v 6.6 -9.125 -0.02
v 7.4 -8.674999 -0.02
v 7.4 -8.275001 -0.02
v 6.6 -8.674999 -0.02
v 6.6 -8.275001 -0.02
v 7.4 -7.425 -0.02
v 6.6 -7.425 -0.02
v 7.4 -7.825 -0.02
v 6.6 -7.825 -0.02
v 7.4 -6.575 -0.02
v 6.6 -6.575 -0.02
v 7.4 -6.975 -0.02
v 6.6 -6.975 -0.02
v 7.4 -5.725 -0.02
v 6.6 -5.725 -0.02
v 7.4 -6.125 -0.02
v 6.6 -6.125 -0.02
v 7.4 -4.875 -0.02
v 6.6 -4.875 -0.02
v 7.4 -5.275 -0.02
v 6.6 -5.275 -0.02
v 7.4 -4.025 -0.02
v 6.6 -4.025 -0.02
v 7.4 -4.425 -0.02
v 6.6 -4.425 -0.02
v 7.4 -3.175 -0.02
v 6.6 -3.175 -0.02
v 7.4 -3.575 -0.02
v 6.6 -3.575 -0.02
v 6.15 -9.925 -0.02
v 6.15 -9.125 -0.02
v 5.75 -9.925 -0.02
v 5.75 -9.125 -0.02
v 5.3 -9.125 -0.02
v 4.9 -9.125 -0.02
v 5.3 -9.925 -0.02
v 4.9 -9.925 -0.02
v 4.45 -9.125 -0.02
v 4.05 -9.125 -0.02
v 4.45 -9.925 -0.02
v 4.05 -9.925 -0.02
v 3.6 -9.125 -0.02
v 3.2 -9.125 -0.02
v 3.6 -9.925 -0.02
v 3.2 -9.925 -0.02
v 2.75 -9.125 -0.02
v 2.35 -9.125 -0.02
v 2.75 -9.925 -0.02
v 2.35 -9.925 -0.02
v 1.9 -9.125 -0.02
v 1.5 -9.125 -0.02
v 1.9 -9.925 -0.02
v 1.5 -9.925 -0.02
v 1.05 -9.125 -0.02
v 0.65 -9.125 -0.02
v 1.05 -9.925 -0.02
v 0.65 -9.925 -0.02
v 7.4 4.075 -0.02
v 7.4 4.875 -0.02
v 6.6 4.075 -0.02
v 6.6 4.875 -0.02
v 7.4 3.225 -0.02
v 7.4 3.625 -0.02
v 6.6 3.225 -0.02
v 6.6 3.625 -0.02
v 6.6 2.375 -0.02
v 7.4 2.375 -0.02
v 6.6 2.775 -0.02
v 7.4 2.775 -0.02
v 6.6 1.525 -0.02
v 7.4 1.525 -0.02
v 6.6 1.925 -0.02
v 7.4 1.925 -0.02
v 6.6 0.675 -0.02
v 7.4 0.675 -0.02
v 6.6 1.075 -0.02
v 7.4 1.075 -0.02
v 6.6 -0.175 -0.02
v 7.4 -0.175 -0.02
v 6.6 0.225 -0.02
v 7.4 0.225 -0.02
v 6.6 -1.025 -0.02
v 7.4 -1.025 -0.02
v 6.6 -0.625 -0.02
v 7.4 -0.625 -0.02
v 6.6 -1.875 -0.02
v 7.4 -1.875 -0.02
v 6.6 -1.475 -0.02
v 7.4 -1.475 -0.02
v 6.15 4.075 -0.02
v 6.15 4.875 -0.02
v 5.75 4.075 -0.02
v 5.75 4.875 -0.02
v 4.9 4.075 -0.02
v 5.3 4.075 -0.02
v 4.9 4.875 -0.02
v 5.3 4.875 -0.02
v 4.05 4.075 -0.02
v 4.45 4.075 -0.02
v 4.05 4.875 -0.02
v 4.45 4.875 -0.02
v 3.2 4.075 -0.02
v 3.6 4.075 -0.02
v 3.2 4.875 -0.02
v 3.6 4.875 -0.02
v 2.35 4.075 -0.02
v 2.75 4.075 -0.02
v 2.35 4.875 -0.02
v 2.75 4.875 -0.02
v 1.5 4.075 -0.02
v 1.9 4.075 -0.02
v 1.5 4.875 -0.02
v 1.9 4.875 -0.02
v 0.65 4.075 -0.02
v 1.05 4.075 -0.02
v 0.65 4.875 -0.02
v 1.05 4.875 -0.02
v -0.2 4.875 -0.02
v -0.2 4.075 -0.02
v 0.2 4.875 -0.02
v 0.2 4.075 -0.02
v -7.4 -2.725 -0.02
v -6.6 -2.725 -0.02
v -7.4 -2.325 -0.02
v -6.6 -2.325 -0.02
v 0.2 -9.925 -0.02
v 0.2 -9.125 -0.02
v -0.2 -9.925 -0.02
v -0.2 -9.125 -0.02
v 7.4 -2.325 -0.02
v 6.6 -2.325 -0.02
v 7.4 -2.725 -0.02
v 6.6 -2.725 -0.02
v 1.05 -0.275 -0.02
v 1.05 -1.475 -0.02
v 2.25 -0.275 -0.02
v 2.25 -1.475 -0.02
v -0.6 -1.475 -0.02
v 0.6 -1.475 -0.02
v -0.6 -0.275 -0.02
v 0.6 -0.275 -0.02
v -2.25 -1.475 -0.02
v -1.05 -1.475 -0.02
v -2.25 -0.875 -0.02
v -1.05 -0.275 -0.02
v -1.65 -0.275 -0.02
v -0.6 -3.125 -0.02
v 0.6 -3.125 -0.02
v -0.6 -1.925 -0.02
v 0.6 -1.925 -0.02
v -2.25 -3.125 -0.02
v -1.05 -3.125 -0.02
v -2.25 -1.925 -0.02
v -1.05 -1.925 -0.02
v -0.6 -4.775 -0.02
v 0.6 -4.775 -0.02
v -0.6 -3.575 -0.02
v 0.6 -3.575 -0.02
v -2.25 -4.775 -0.02
v -1.05 -4.775 -0.02
v -2.25 -3.575 -0.02
v -1.05 -3.575 -0.02
v 2.25 -3.125 -0.02
v 1.05 -3.125 -0.02
v 1.05 -1.925 -0.02
v 2.25 -1.925 -0.02
v 2.25 -4.775 -0.02
v 1.05 -4.775 -0.02
v 1.05 -3.575 -0.02
v 2.25 -3.575 -0.02
usemtl 1
f 1// 2// 3//
f 4// 5// 6//
f 7// 8// 9//
f 10// 11// 12//
f 13// 14// 15//
f 16// 17// 18//
f 19// 20// 21//
f 22// 23// 24//
f 25// 26// 16//
f 27// 28// 29//
f 30// 31// 32//
f 33// 34// 19//
f 35// 36// 37//
f 38// 39// 40//
f 41// 42// 43//
f 44// 45// 46//
f 47// 48// 49//
f 50// 51// 52//
f 53// 54// 55//
f 56// 57// 58//
f 59// 60// 61//
f 61// 60// 62//
f 61// 62// 63//
f 63// 62// 64//
f 64// 62// 65//
f 64// 65// 66//
f 66// 65// 67//
f 66// 67// 68//
f 68// 67// 69//
f 68// 69// 70//
f 69// 71// 70//
f 70// 71// 72//
f 70// 72// 73//
f 73// 72// 74//
f 75// 76// 74//
f 74// 76// 77//
f 74// 77// 73//
f 78// 79// 80//
f 81// 82// 83//
f 83// 82// 84//
f 83// 84// 85//
f 86// 87// 88//
f 89// 90// 91//
f 91// 90// 92//
f 81// 93// 94//
f 93// 81// 95//
f 95// 81// 83//
f 95// 83// 96//
f 96// 83// 97//
f 96// 97// 98//
f 98// 97// 99//
f 98// 99// 100//
f 100// 99// 101//
f 100// 101// 94//
f 94// 101// 88//
f 94// 88// 81//
f 81// 88// 87//
f 81// 87// 82//
f 102// 103// 104//
f 104// 103// 105//
f 104// 105// 106//
f 107// 108// 102//
f 102// 108// 109//
f 102// 109// 103//
f 110// 14// 111//
f 111// 14// 13//
f 111// 13// 112//
f 113// 101// 114//
f 114// 101// 99//
f 114// 99// 106//
f 106// 99// 97//
f 106// 97// 104//
f 115// 116// 117//
f 118// 119// 120//
f 120// 119// 121//
f 120// 121// 122//
f 58// 57// 123//
f 123// 57// 124//
f 123// 124// 125//
f 125// 124// 126//
f 125// 126// 118//
f 118// 126// 127//
f 118// 127// 119//
f 128// 56// 129//
f 129// 130// 128//
f 128// 130// 131//
f 128// 131// 132//
f 133// 134// 135//
f 136// 137// 138//
f 139// 140// 141//
f 142// 143// 144//
f 144// 143// 145//
f 144// 145// 146//
f 146// 145// 147//
f 146// 147// 148//
f 148// 147// 149//
f 148// 149// 150//
f 151// 152// 153//
f 153// 152// 154//
f 153// 154// 155//
f 156// 157// 158//
f 158// 157// 159//
f 150// 160// 148//
f 148// 160// 161//
f 148// 161// 162//
f 163// 164// 148//
f 148// 164// 165//
f 166// 167// 168//
f 168// 167// 169//
f 165// 170// 148//
f 148// 170// 169//
f 148// 169// 171//
f 171// 169// 167//
f 162// 172// 148//
f 148// 172// 173//
f 148// 173// 163//
f 155// 174// 153//
f 153// 174// 175//
f 153// 175// 158//
f 158// 175// 176//
f 158// 176// 156//
f 159// 177// 158//
f 158// 177// 178//
f 158// 178// 144//
f 144// 178// 179//
f 144// 179// 142//
f 180// 181// 134//
f 134// 181// 6//
f 181// 182// 6//
f 6// 182// 183//
f 6// 183// 153//
f 153// 183// 184//
f 153// 184// 151//
f 185// 186// 187//
f 187// 186// 188//
f 189// 190// 191//
f 191// 190// 192//
f 191// 192// 193//
f 193// 192// 185//
f 193// 185// 194//
f 195// 196// 197//
f 197// 196// 198//
f 197// 198// 199//
f 186// 200// 188//
f 188// 200// 201//
f 188// 201// 139//
f 139// 201// 202//
f 198// 194// 199//
f 199// 194// 185//
f 199// 185// 203//
f 203// 185// 204//
f 203// 204// 205//
f 205// 204// 206//
f 205// 206// 202//
f 202// 206// 144//
f 202// 144// 139//
f 139// 144// 146//
f 139// 146// 140//
f 207// 20// 208//
f 208// 20// 19//
f 208// 19// 209//
f 30// 210// 211//
f 211// 210// 212//
f 211// 212// 209//
f 209// 212// 213//
f 209// 213// 208//
f 214// 215// 216//
f 216// 215// 217//
f 216// 217// 218//
f 218// 217// 219//
f 220// 214// 13//
f 13// 214// 216//
f 13// 216// 112//
f 112// 216// 218//
f 112// 218// 221//
f 221// 218// 113//
f 113// 218// 101//
f 101// 218// 219//
f 101// 219// 222//
f 222// 219// 223//
f 222// 223// 224//
f 224// 223// 225//
f 224// 225// 226//
f 226// 225// 227//
f 226// 227// 228//
f 52// 51// 229//
f 229// 51// 88//
f 229// 88// 230//
f 230// 88// 101//
f 230// 101// 231//
f 231// 101// 222//
f 231// 222// 232//
f 232// 222// 224//
f 232// 224// 233//
f 233// 224// 226//
f 233// 226// 234//
f 234// 226// 235//
f 234// 235// 236//
f 90// 237// 92//
f 92// 237// 86//
f 92// 86// 238//
f 238// 86// 88//
f 238// 88// 239//
f 239// 88// 240//
f 240// 88// 51//
f 240// 51// 241//
f 241// 51// 50//
f 241// 50// 242//
f 52// 236// 50//
f 50// 236// 235//
f 50// 235// 242//
f 242// 235// 243//
f 242// 243// 244//
f 244// 243// 245//
f 246// 247// 245//
f 245// 247// 248//
f 245// 248// 244//
f 249// 250// 251//
f 56// 58// 129//
f 129// 58// 252//
f 129// 252// 65//
f 65// 252// 253//
f 65// 253// 67//
f 67// 253// 254//
f 67// 254// 69//
f 69// 254// 255//
f 69// 255// 71//
f 71// 255// 256//
f 71// 256// 125//
f 125// 256// 257//
f 125// 257// 123//
f 123// 257// 258//
f 123// 258// 58//
f 58// 258// 259//
f 58// 259// 252//
f 47// 260// 261//
f 261// 260// 262//
f 49// 48// 263//
f 264// 31// 265//
f 265// 31// 30//
f 265// 30// 266//
f 266// 30// 211//
f 266// 211// 267//
f 267// 211// 209//
f 267// 209// 268//
f 268// 209// 36//
f 268// 36// 269//
f 269// 36// 35//
f 269// 35// 45//
f 270// 271// 272//
f 272// 271// 273//
f 272// 273// 274//
f 275// 276// 277//
f 43// 42// 278//
f 38// 279// 280//
f 280// 279// 281//
f 280// 281// 282//
f 283// 284// 260//
f 285// 286// 287//
f 260// 284// 262//
f 262// 284// 288//
f 262// 288// 289//
f 287// 286// 290//
f 290// 286// 291//
f 290// 291// 292//
f 47// 49// 260//
f 260// 49// 293//
f 260// 293// 294//
f 287// 262// 285//
f 285// 262// 289//
f 285// 289// 292//
f 292// 289// 283//
f 292// 283// 290//
f 290// 283// 260//
f 290// 260// 295//
f 295// 260// 294//
f 296// 297// 49//
f 49// 297// 298//
f 49// 298// 293//
f 299// 300// 263//
f 263// 300// 301//
f 263// 301// 49//
f 49// 301// 302//
f 49// 302// 296//
f 303// 304// 46//
f 46// 304// 305//
f 48// 44// 263//
f 263// 44// 46//
f 263// 46// 306//
f 306// 46// 305//
f 306// 305// 307//
f 306// 308// 263//
f 263// 308// 309//
f 263// 309// 299//
f 299// 309// 307//
f 299// 307// 310//
f 310// 307// 305//
f 45// 35// 46//
f 46// 35// 311//
f 46// 311// 312//
f 312// 313// 46//
f 46// 313// 314//
f 46// 314// 303//
f 19// 34// 209//
f 209// 34// 315//
f 209// 315// 36//
f 316// 31// 271//
f 271// 31// 264//
f 271// 264// 273//
f 317// 272// 276//
f 276// 272// 274//
f 276// 274// 277//
f 276// 318// 319//
f 318// 276// 320//
f 320// 276// 275//
f 320// 275// 321//
f 321// 275// 17//
f 321// 17// 319//
f 319// 17// 16//
f 319// 16// 276//
f 276// 16// 26//
f 276// 26// 317//
f 43// 322// 323//
f 324// 325// 275//
f 275// 325// 326//
f 275// 326// 17//
f 17// 326// 327//
f 277// 41// 275//
f 275// 41// 43//
f 275// 43// 324//
f 324// 43// 323//
f 324// 323// 327//
f 327// 323// 328//
f 327// 328// 17//
f 22// 329// 43//
f 43// 329// 330//
f 43// 330// 322//
f 24// 23// 278//
f 278// 23// 331//
f 278// 331// 43//
f 43// 331// 332//
f 43// 332// 22//
f 281// 333// 334//
f 42// 282// 278//
f 278// 282// 281//
f 278// 281// 335//
f 335// 281// 334//
f 335// 334// 336//
f 335// 337// 278//
f 278// 337// 338//
f 278// 338// 24//
f 24// 338// 336//
f 24// 336// 339//
f 339// 336// 334//
f 340// 341// 281//
f 281// 341// 342//
f 281// 342// 333//
f 343// 344// 279//
f 279// 344// 281//
f 281// 344// 345//
f 281// 345// 340//
f 279// 346// 343//
f 343// 346// 347//
f 343// 347// 340//
f 340// 347// 348//
f 340// 348// 341//
f 341// 348// 349//
f 341// 349// 346//
f 346// 349// 350//
f 346// 350// 347//
f 351// 287// 352//
f 352// 287// 290//
f 352// 290// 353//
f 353// 290// 354//
f 353// 354// 355//
f 355// 354// 356//
f 355// 356// 351//
f 351// 356// 287//
f 315// 357// 36//
f 36// 357// 33//
f 36// 33// 37//
f 37// 33// 19//
f 37// 19// 358//
f 358// 19// 21//
f 358// 21// 59//
f 317// 359// 272//
f 272// 359// 25//
f 272// 25// 270//
f 270// 25// 16//
f 270// 16// 360//
f 360// 16// 18//
f 360// 18// 361//
f 362// 363// 364//
f 364// 363// 341//
f 364// 341// 365//
f 365// 341// 346//
f 365// 346// 366//
f 366// 346// 367//
f 366// 367// 362//
f 362// 367// 363//
f 368// 369// 356//
f 370// 371// 354//
f 354// 371// 356//
f 356// 371// 372//
f 356// 372// 368//
f 354// 373// 370//
f 370// 373// 374//
f 370// 374// 368//
f 368// 374// 375//
f 368// 375// 369//
f 369// 375// 376//
f 369// 376// 373//
f 373// 376// 377//
f 373// 377// 374//
f 378// 80// 75//
f 75// 80// 79//
f 75// 79// 76//
f 379// 78// 380//
f 380// 78// 80//
f 380// 80// 381//
f 381// 80// 378//
f 381// 378// 382//
f 61// 379// 59//
f 59// 379// 380//
f 59// 380// 358//
f 358// 380// 381//
f 358// 381// 37//
f 37// 381// 382//
f 37// 382// 35//
f 35// 382// 383//
f 35// 383// 311//
f 384// 251// 246//
f 246// 251// 250//
f 246// 250// 247//
f 385// 249// 386//
f 386// 249// 251//
f 386// 251// 387//
f 387// 251// 384//
f 387// 384// 388//
f 239// 389// 238//
f 238// 389// 390//
f 238// 390// 92//
f 92// 390// 385//
f 92// 385// 91//
f 91// 385// 386//
f 91// 386// 391//
f 391// 386// 387//
f 391// 387// 32//
f 32// 387// 388//
f 32// 388// 30//
f 30// 388// 392//
f 30// 392// 210//
f 316// 393// 31//
f 31// 393// 27//
f 31// 27// 32//
f 32// 27// 29//
f 32// 29// 391//
f 391// 29// 394//
f 391// 394// 91//
f 91// 394// 395//
f 91// 395// 89//
f 89// 395// 396//
f 84// 397// 85//
f 85// 397// 398//
f 85// 398// 399//
f 399// 398// 396//
f 399// 396// 361//
f 361// 396// 395//
f 361// 395// 360//
f 360// 395// 394//
f 360// 394// 270//
f 270// 394// 29//
f 270// 29// 271//
f 271// 29// 28//
f 271// 28// 316//
f 400// 401// 367//
f 402// 403// 363//
f 367// 401// 363//
f 363// 401// 404//
f 363// 404// 402//
f 367// 405// 400//
f 400// 405// 406//
f 400// 406// 402//
f 402// 406// 407//
f 402// 407// 403//
f 403// 407// 408//
f 403// 408// 405//
f 405// 408// 409//
f 405// 409// 406//
f 410// 369// 411//
f 411// 369// 373//
f 411// 373// 412//
f 412// 373// 413//
f 412// 413// 414//
f 414// 413// 415//
f 414// 415// 410//
f 410// 415// 369//
f 416// 417// 418//
f 418// 417// 403//
f 418// 403// 419//
f 419// 403// 405//
f 419// 405// 420//
f 420// 405// 421//
f 420// 421// 416//
f 416// 421// 417//
f 422// 415// 423//
f 423// 415// 413//
f 423// 413// 424//
f 424// 413// 425//
f 424// 425// 426//
f 426// 425// 427//
f 426// 427// 422//
f 422// 427// 415//
f 428// 429// 430//
f 430// 429// 417//
f 430// 417// 431//
f 431// 417// 421//
f 431// 421// 432//
f 432// 421// 433//
f 432// 433// 428//
f 428// 433// 429//
f 434// 427// 435//
f 435// 427// 425//
f 435// 425// 436//
f 436// 425// 437//
f 436// 437// 438//
f 438// 437// 439//
f 438// 439// 434//
f 434// 439// 427//
f 440// 441// 442//
f 442// 441// 429//
f 442// 429// 443//
f 443// 429// 433//
f 443// 433// 444//
f 444// 433// 445//
f 444// 445// 440//
f 440// 445// 441//
f 446// 447// 448//
f 448// 447// 439//
f 448// 439// 449//
f 449// 439// 437//
f 449// 437// 450//
f 450// 437// 451//
f 452// 453// 454//
f 454// 453// 441//
f 454// 441// 455//
f 455// 441// 445//
f 455// 445// 456//
f 456// 445// 457//
f 451// 458// 459//
f 458// 451// 460//
f 460// 451// 461//
f 460// 461// 462//
f 462// 461// 463//
f 462// 463// 459//
f 459// 463// 447//
f 459// 447// 451//
f 451// 447// 446//
f 451// 446// 450//
f 457// 464// 465//
f 464// 457// 466//
f 466// 457// 467//
f 466// 467// 468//
f 468// 467// 469//
f 468// 469// 465//
f 465// 469// 453//
f 465// 453// 457//
f 457// 453// 452//
f 457// 452// 456//
f 470// 471// 472//
f 472// 471// 463//
f 472// 463// 473//
f 473// 463// 461//
f 473// 461// 474//
f 474// 461// 475//
f 474// 475// 470//
f 470// 475// 471//
f 476// 131// 477//
f 477// 131// 130//
f 477// 130// 228//
f 228// 130// 129//
f 228// 129// 226//
f 226// 129// 65//
f 226// 65// 235//
f 235// 65// 62//
f 235// 62// 243//
f 243// 62// 60//
f 243// 60// 245//
f 245// 60// 59//
f 245// 59// 246//
f 246// 59// 21//
f 246// 21// 384//
f 384// 21// 20//
f 384// 20// 388//
f 388// 20// 207//
f 388// 207// 392//
f 478// 479// 480//
f 480// 479// 481//
f 480// 481// 482//
f 482// 481// 469//
f 482// 469// 483//
f 483// 469// 467//
f 483// 467// 478//
f 478// 467// 479//
f 484// 485// 486//
f 486// 485// 471//
f 486// 471// 487//
f 487// 471// 475//
f 487// 475// 488//
f 488// 475// 489//
f 488// 489// 484//
f 484// 489// 485//
f 490// 489// 491//
f 491// 489// 475//
f 491// 475// 492//
f 492// 475// 461//
f 492// 461// 493//
f 493// 461// 451//
f 493// 451// 494//
f 494// 451// 437//
f 494// 437// 495//
f 495// 437// 425//
f 495// 425// 496//
f 496// 425// 413//
f 496// 413// 497//
f 497// 413// 373//
f 497// 373// 498//
f 498// 373// 354//
f 498// 354// 499//
f 499// 354// 290//
f 499// 290// 297//
f 297// 290// 295//
f 297// 295// 298//
f 500// 501// 502//
f 502// 501// 503//
f 502// 503// 504//
f 504// 503// 481//
f 504// 481// 505//
f 505// 481// 479//
f 505// 479// 500//
f 500// 479// 501//
f 506// 507// 508//
f 508// 507// 509//
f 508// 509// 510//
f 510// 509// 485//
f 510// 485// 511//
f 511// 485// 489//
f 512// 490// 513//
f 513// 490// 491//
f 513// 491// 514//
f 514// 491// 492//
f 514// 492// 515//
f 515// 492// 493//
f 515// 493// 516//
f 516// 493// 494//
f 516// 494// 517//
f 517// 494// 495//
f 517// 495// 518//
f 518// 495// 496//
f 518// 496// 519//
f 519// 496// 497//
f 519// 497// 520//
f 520// 497// 498//
f 520// 498// 521//
f 521// 498// 499//
f 521// 499// 522//
f 522// 499// 297//
f 522// 297// 299//
f 299// 297// 296//
f 299// 296// 300//
f 523// 15// 524//
f 524// 15// 14//
f 524// 14// 107//
f 107// 14// 110//
f 107// 110// 108//
f 525// 526// 527//
f 527// 526// 528//
f 527// 528// 529//
f 529// 528// 503//
f 529// 503// 530//
f 530// 503// 501//
f 530// 501// 525//
f 525// 501// 526//
f 531// 532// 507//
f 507// 532// 509//
f 509// 532// 533//
f 509// 533// 534//
f 534// 533// 535//
f 534// 535// 536//
f 535// 531// 536//
f 536// 531// 507//
f 536// 507// 537//
f 538// 512// 539//
f 539// 512// 513//
f 539// 513// 540//
f 540// 513// 514//
f 540// 514// 541//
f 541// 514// 515//
f 541// 515// 542//
f 542// 515// 516//
f 542// 516// 543//
f 543// 516// 517//
f 543// 517// 544//
f 544// 517// 518//
f 544// 518// 545//
f 545// 518// 519//
f 545// 519// 546//
f 546// 519// 520//
f 546// 520// 547//
f 547// 520// 521//
f 547// 521// 548//
f 548// 521// 522//
f 548// 522// 549//
f 549// 522// 299//
f 549// 299// 314//
f 314// 299// 310//
f 314// 310// 303//
f 550// 523// 551//
f 551// 523// 524//
f 551// 524// 552//
f 552// 524// 107//
f 552// 107// 553//
f 553// 107// 102//
f 553// 102// 554//
f 554// 102// 104//
f 554// 104// 555//
f 555// 104// 97//
f 555// 97// 556//
f 556// 97// 83//
f 556// 83// 557//
f 557// 83// 85//
f 557// 85// 558//
f 558// 85// 399//
f 558// 399// 559//
f 559// 399// 361//
f 559// 361// 560//
f 560// 361// 18//
f 560// 18// 561//
f 561// 18// 17//
f 561// 17// 329//
f 329// 17// 328//
f 329// 328// 330//
f 562// 12// 563//
f 563// 12// 564//
f 563// 564// 565//
f 565// 564// 528//
f 565// 528// 566//
f 566// 528// 526//
f 566// 526// 562//
f 562// 526// 12//
f 567// 568// 536//
f 569// 570// 571//
f 536// 568// 534//
f 534// 568// 572//
f 534// 572// 573//
f 571// 570// 574//
f 574// 570// 575//
f 574// 575// 576//
f 571// 534// 569//
f 569// 534// 573//
f 569// 573// 576//
f 576// 573// 567//
f 576// 567// 574//
f 574// 567// 536//
f 574// 536// 577//
f 577// 536// 537//
f 577// 537// 578//
f 121// 579// 122//
f 122// 579// 580//
f 122// 580// 581//
f 581// 580// 582//
f 581// 582// 583//
f 583// 582// 584//
f 583// 584// 585//
f 586// 55// 136//
f 136// 55// 54//
f 136// 54// 137//
f 587// 53// 588//
f 588// 53// 55//
f 588// 55// 589//
f 589// 55// 586//
f 589// 586// 590//
f 591// 115// 592//
f 592// 115// 117//
f 592// 117// 593//
f 593// 117// 594//
f 593// 594// 595//
f 595// 594// 596//
f 595// 596// 597//
f 597// 596// 598//
f 227// 599// 228//
f 228// 599// 600//
f 228// 600// 477//
f 477// 600// 601//
f 477// 601// 476//
f 476// 601// 602//
f 476// 602// 603//
f 603// 602// 604//
f 603// 604// 605//
f 605// 604// 606//
f 605// 606// 607//
f 607// 606// 608//
f 601// 609// 602//
f 602// 609// 610//
f 602// 610// 604//
f 604// 610// 611//
f 604// 611// 606//
f 606// 611// 612//
f 606// 612// 608//
f 608// 612// 613//
f 22// 24// 329//
f 329// 24// 614//
f 329// 614// 561//
f 561// 614// 615//
f 561// 615// 560//
f 560// 615// 616//
f 560// 616// 559//
f 559// 616// 617//
f 559// 617// 558//
f 558// 617// 618//
f 558// 618// 557//
f 557// 618// 619//
f 557// 619// 556//
f 556// 619// 620//
f 556// 620// 555//
f 555// 620// 621//
f 555// 621// 554//
f 554// 621// 622//
f 554// 622// 553//
f 553// 622// 623//
f 553// 623// 552//
f 552// 623// 624//
f 552// 624// 551//
f 551// 624// 625//
f 551// 625// 550//
f 626// 627// 564//
f 12// 11// 564//
f 564// 11// 628//
f 564// 628// 626//
f 12// 629// 10//
f 10// 629// 630//
f 10// 630// 626//
f 626// 630// 631//
f 626// 631// 627//
f 627// 631// 632//
f 627// 632// 629//
f 629// 632// 633//
f 629// 633// 630//
f 574// 634// 571//
f 571// 634// 635//
f 571// 635// 636//
f 637// 638// 636//
f 636// 638// 639//
f 636// 639// 571//
f 577// 640// 574//
f 574// 640// 641//
f 574// 641// 642//
f 643// 644// 642//
f 642// 644// 638//
f 642// 638// 574//
f 574// 638// 637//
f 574// 637// 634//
f 577// 645// 646//
f 645// 577// 647//
f 647// 577// 578//
f 647// 578// 648//
f 648// 578// 649//
f 648// 649// 646//
f 646// 649// 644//
f 646// 644// 577//
f 577// 644// 643//
f 577// 643// 640//
f 9// 8// 538//
f 538// 8// 650//
f 538// 650// 651//
f 652// 653// 578//
f 578// 653// 654//
f 578// 654// 649//
f 649// 654// 655//
f 656// 657// 585//
f 657// 538// 585//
f 585// 538// 539//
f 585// 539// 583//
f 583// 539// 540//
f 583// 540// 581//
f 581// 540// 541//
f 581// 541// 122//
f 122// 541// 542//
f 122// 542// 120//
f 120// 542// 543//
f 120// 543// 118//
f 118// 543// 544//
f 118// 544// 125//
f 125// 544// 545//
f 125// 545// 71//
f 71// 545// 546//
f 71// 546// 72//
f 72// 546// 547//
f 72// 547// 74//
f 74// 547// 548//
f 74// 548// 75//
f 75// 548// 549//
f 75// 549// 378//
f 378// 549// 314//
f 378// 314// 382//
f 382// 314// 313//
f 382// 313// 383//
f 135// 134// 138//
f 138// 134// 6//
f 138// 6// 136//
f 136// 6// 5//
f 136// 5// 658//
f 579// 590// 580//
f 580// 590// 586//
f 580// 586// 582//
f 582// 586// 136//
f 582// 136// 584//
f 584// 136// 658//
f 584// 658// 659//
f 660// 656// 1//
f 1// 656// 585//
f 1// 585// 2//
f 2// 585// 584//
f 2// 584// 4//
f 4// 584// 659//
f 135// 587// 133//
f 133// 587// 588//
f 133// 588// 661//
f 662// 663// 598//
f 598// 663// 597//
f 597// 663// 664//
f 597// 664// 665//
f 121// 591// 579//
f 579// 591// 592//
f 579// 592// 590//
f 590// 592// 593//
f 590// 593// 589//
f 589// 593// 595//
f 589// 595// 588//
f 588// 595// 597//
f 588// 597// 661//
f 661// 597// 665//
f 661// 665// 666//
f 665// 662// 666//
f 666// 662// 598//
f 666// 598// 667//
f 608// 668// 607//
f 607// 668// 669//
f 607// 669// 670//
f 671// 672// 670//
f 670// 672// 667//
f 670// 667// 607//
f 607// 667// 598//
f 607// 598// 605//
f 605// 598// 596//
f 605// 596// 603//
f 603// 596// 594//
f 603// 594// 476//
f 476// 594// 117//
f 476// 117// 131//
f 131// 117// 116//
f 131// 116// 132//
f 613// 673// 608//
f 608// 673// 674//
f 608// 674// 675//
f 676// 677// 675//
f 675// 677// 672//
f 675// 672// 608//
f 608// 672// 671//
f 608// 671// 668//
f 678// 679// 613//
f 613// 679// 680//
f 681// 682// 680//
f 680// 682// 677//
f 680// 677// 613//
f 613// 677// 676//
f 613// 676// 673//
f 550// 683// 684//
f 685// 682// 686//
f 686// 682// 681//
f 686// 681// 684//
f 684// 681// 678//
f 684// 678// 550//
f 550// 678// 613//
f 550// 613// 523//
f 523// 613// 612//
f 523// 612// 15//
f 15// 612// 611//
f 15// 611// 13//
f 13// 611// 610//
f 13// 610// 220//
f 220// 610// 609//
f 550// 687// 688//
f 687// 550// 689//
f 689// 550// 625//
f 689// 625// 690//
f 690// 625// 691//
f 690// 691// 688//
f 688// 691// 682//
f 688// 682// 550//
f 550// 682// 685//
f 550// 685// 683//
f 692// 693// 694//
f 694// 693// 627//
f 694// 627// 695//
f 696// 697// 698//
f 698// 697// 691//
f 693// 625// 627//
f 627// 625// 624//
f 627// 624// 564//
f 564// 624// 623//
f 564// 623// 528//
f 528// 623// 622//
f 528// 622// 503//
f 503// 622// 621//
f 503// 621// 481//
f 481// 621// 620//
f 481// 620// 469//
f 469// 620// 619//
f 469// 619// 453//
f 453// 619// 618//
f 453// 618// 441//
f 441// 618// 617//
f 441// 617// 429//
f 429// 617// 616//
f 429// 616// 417//
f 417// 616// 615//
f 417// 615// 403//
f 403// 615// 614//
f 403// 614// 363//
f 363// 614// 24//
f 363// 24// 341//
f 341// 24// 339//
f 341// 339// 342//
f 693// 699// 625//
f 625// 699// 700//
f 625// 700// 691//
f 691// 700// 692//
f 691// 692// 698//
f 698// 692// 694//
f 627// 701// 702//
f 701// 627// 703//
f 703// 627// 629//
f 703// 629// 704//
f 704// 629// 705//
f 704// 705// 702//
f 702// 705// 697//
f 702// 697// 627//
f 627// 697// 696//
f 627// 696// 695//
f 706// 639// 707//
f 707// 639// 638//
f 707// 638// 708//
f 708// 638// 644//
f 708// 644// 709//
f 709// 644// 649//
f 709// 649// 710//
f 705// 711// 697//
f 697// 711// 712//
f 697// 712// 691//
f 691// 712// 713//
f 691// 713// 682//
f 682// 713// 714//
f 682// 714// 677//
f 677// 714// 715//
f 677// 715// 672//
f 672// 715// 716//
f 672// 716// 667//
f 667// 716// 717//
f 667// 717// 666//
f 666// 717// 718//
f 666// 718// 661//
f 661// 718// 187//
f 661// 187// 133//
f 133// 187// 188//
f 133// 188// 134//
f 134// 188// 139//
f 134// 139// 180//
f 180// 139// 141//
f 719// 706// 720//
f 720// 706// 707//
f 720// 707// 721//
f 721// 707// 708//
f 721// 708// 722//
f 722// 708// 709//
f 722// 709// 723//
f 723// 709// 710//
f 723// 710// 724//
f 725// 724// 726//
f 726// 724// 710//
f 726// 710// 9//
f 9// 710// 649//
f 9// 649// 7//
f 7// 649// 655//
f 7// 655// 651//
f 651// 655// 652//
f 651// 652// 538//
f 538// 652// 578//
f 538// 578// 512//
f 512// 578// 537//
f 512// 537// 490//
f 490// 537// 507//
f 490// 507// 489//
f 489// 507// 506//
f 489// 506// 511//
f 158// 727// 153//
f 153// 727// 728//
f 153// 728// 729//
f 4// 6// 2//
f 2// 6// 153//
f 2// 153// 3//
f 3// 153// 729//
f 3// 729// 730//
f 731// 727// 732//
f 732// 727// 158//
f 732// 158// 730//
f 730// 158// 725//
f 730// 725// 3//
f 3// 725// 726//
f 3// 726// 1//
f 1// 726// 9//
f 1// 9// 660//
f 660// 9// 538//
f 660// 538// 733//
f 733// 538// 657//
f 187// 734// 735//
f 736// 204// 737//
f 738// 739// 718//
f 718// 739// 740//
f 741// 742// 743//
f 743// 742// 744//
f 185// 187// 204//
f 204// 187// 735//
f 204// 735// 745//
f 746// 747// 737//
f 737// 747// 748//
f 741// 749// 742//
f 742// 749// 750//
f 742// 750// 751//
f 745// 752// 204//
f 204// 752// 753//
f 204// 753// 737//
f 737// 753// 754//
f 737// 754// 746//
f 755// 756// 740//
f 740// 756// 757//
f 740// 757// 718//
f 718// 757// 742//
f 718// 742// 187//
f 187// 742// 751//
f 187// 751// 734//
f 748// 758// 737//
f 737// 758// 759//
f 737// 759// 742//
f 742// 759// 760//
f 742// 760// 744//
f 711// 761// 712//
f 712// 761// 762//
f 712// 762// 713//
f 713// 762// 763//
f 713// 763// 714//
f 714// 763// 764//
f 714// 764// 715//
f 715// 764// 765//
f 715// 765// 716//
f 716// 765// 766//
f 716// 766// 717//
f 717// 766// 767//
f 717// 767// 718//
f 718// 767// 736//
f 718// 736// 738//
f 738// 736// 737//
f 38// 40// 279//
f 279// 40// 768//
f 279// 768// 346//
f 346// 768// 769//
f 346// 769// 367//
f 367// 769// 770//
f 367// 770// 405//
f 405// 770// 771//
f 405// 771// 421//
f 421// 771// 772//
f 421// 772// 433//
f 433// 772// 773//
f 433// 773// 445//
f 445// 773// 774//
f 445// 774// 457//
f 457// 774// 775//
f 457// 775// 467//
f 467// 775// 776//
f 467// 776// 479//
f 479// 776// 777//
f 479// 777// 501//
f 501// 777// 778//
f 501// 778// 526//
f 526// 778// 779//
f 526// 779// 12//
f 12// 779// 780//
f 12// 780// 629//
f 629// 780// 781//
f 629// 781// 705//
f 705// 781// 782//
f 705// 782// 711//
f 711// 782// 783//
f 711// 783// 761//
f 784// 785// 786//
f 784// 786// 787//
f 788// 789// 790//
f 785// 791// 786//
f 786// 791// 792//
f 786// 792// 793//
f 794// 795// 796//
f 796// 795// 797//
f 790// 798// 788//
f 788// 798// 799//
f 788// 799// 800//
f 801// 802// 800//
f 800// 802// 786//
f 800// 786// 803//
f 803// 786// 793//
f 804// 805// 806//
f 806// 805// 807//
f 808// 809// 789//
f 789// 809// 810//
f 789// 810// 811//
f 787// 786// 812//
f 812// 786// 813//
f 812// 813// 814//
f 815// 816// 817//
f 817// 816// 818//
f 793// 819// 803//
f 803// 819// 820//
f 803// 820// 821//
f 811// 822// 789//
f 789// 822// 823//
f 789// 823// 790//
f 790// 823// 824//
f 790// 824// 795//
f 795// 824// 825//
f 826// 827// 828//
f 829// 830// 813//
f 813// 830// 831//
f 813// 831// 814//
f 814// 831// 806//
f 814// 806// 818//
f 818// 806// 807//
f 818// 807// 817//
f 828// 801// 826//
f 826// 801// 800//
f 826// 800// 832//
f 832// 800// 799//
f 832// 799// 833//
f 833// 799// 834//
f 821// 835// 803//
f 803// 835// 836//
f 803// 836// 837//
f 837// 838// 803//
f 803// 838// 839//
f 803// 839// 789//
f 789// 839// 840//
f 789// 840// 808//
f 825// 841// 795//
f 795// 841// 842//
f 795// 842// 797//
f 797// 842// 843//
f 797// 843// 818//
f 818// 843// 844//
f 818// 844// 814//
usemtl 2
f 845// 846// 796//
f 796// 846// 794//
f 816// 815// 847//
f 847// 815// 848//
usemtl 1
f 800// 803// 719//
f 719// 803// 261//
f 788// 800// 783//
f 783// 800// 719//
f 789// 788// 39//
f 39// 788// 783//
f 803// 789// 261//
f 261// 789// 39//
usemtl 3
f 849// 850// 793//
f 793// 850// 819//
f 851// 852// 814//
f 814// 852// 812//
f 853// 854// 823//
f 823// 854// 824//
f 840// 839// 855//
f 855// 839// 856//
f 857// 858// 859//
f 859// 858// 860//
f 859// 860// 861//
f 857// 862// 858//
f 858// 862// 863//
f 858// 863// 864//
f 864// 863// 865//
f 864// 865// 866//
f 866// 867// 864//
f 864// 867// 868//
f 864// 868// 869//
f 870// 871// 872//
f 869// 873// 864//
f 864// 873// 874//
f 864// 874// 870//
f 870// 874// 875//
f 870// 875// 871//
f 872// 876// 870//
f 870// 876// 877//
f 870// 877// 878//
f 878// 879// 870//
f 870// 879// 880//
f 870// 880// 860//
f 860// 880// 881//
f 860// 881// 882//
f 882// 883// 860//
f 860// 883// 884//
f 860// 884// 861//
f 849// 793// 792//
f 849// 792// 885//
f 885// 792// 791//
f 885// 791// 886//
f 886// 791// 785//
f 886// 785// 887//
f 887// 785// 784//
f 887// 784// 888//
f 888// 784// 787//
f 888// 787// 889//
f 889// 787// 812//
f 889// 812// 852//
f 858// 890// 860//
f 860// 890// 891//
f 891// 890// 892//
f 892// 890// 893//
f 892// 893// 894//
f 894// 893// 895//
f 894// 895// 896//
f 896// 895// 897//
f 896// 897// 898//
f 898// 897// 899//
f 898// 899// 900//
f 900// 899// 901//
f 900// 901// 902//
f 902// 901// 903//
f 902// 903// 904//
f 904// 903// 905//
f 904// 905// 906//
f 906// 905// 907//
f 906// 907// 908//
f 908// 907// 909//
f 908// 909// 910//
f 909// 911// 910//
f 910// 911// 850//
f 910// 850// 849//
f 856// 839// 912//
f 856// 912// 913//
f 913// 912// 914//
f 913// 914// 915//
f 915// 914// 916//
f 915// 916// 917//
f 917// 916// 918//
f 917// 918// 919//
f 919// 918// 920//
f 919// 920// 921//
f 921// 920// 819//
f 921// 819// 850//
f 852// 922// 923//
f 922// 924// 925//
f 926// 927// 928//
f 928// 927// 860//
f 929// 860// 927//
f 930// 860// 891//
f 931// 860// 930//
f 929// 927// 932//
f 932// 927// 926//
f 932// 926// 933//
f 934// 935// 936//
f 936// 935// 931//
f 936// 931// 937//
f 937// 931// 930//
f 937// 930// 938//
f 891// 892// 930//
f 930// 892// 894//
f 930// 894// 938//
f 938// 894// 896//
f 938// 896// 898//
f 939// 934// 940//
f 940// 934// 936//
f 940// 936// 941//
f 941// 936// 937//
f 941// 937// 942//
f 942// 937// 938//
f 942// 938// 943//
f 943// 938// 898//
f 943// 898// 900//
f 924// 939// 925//
f 925// 939// 940//
f 925// 940// 944//
f 944// 940// 941//
f 944// 941// 945//
f 945// 941// 942//
f 945// 942// 946//
f 946// 942// 943//
f 946// 943// 947//
f 947// 943// 900//
f 947// 900// 902//
f 922// 925// 923//
f 923// 925// 944//
f 923// 944// 948//
f 948// 944// 945//
f 948// 945// 949//
f 949// 945// 946//
f 949// 946// 950//
f 950// 946// 947//
f 950// 947// 951//
f 935// 860// 931//
f 924// 933// 939//
f 939// 933// 926//
f 939// 926// 934//
f 934// 926// 928//
f 934// 928// 935//
f 935// 928// 860//
f 902// 904// 947//
f 947// 904// 906//
f 947// 906// 951//
f 951// 906// 908//
f 951// 908// 910//
f 852// 923// 889//
f 889// 923// 948//
f 889// 948// 888//
f 888// 948// 949//
f 888// 949// 887//
f 887// 949// 950//
f 887// 950// 886//
f 886// 950// 951//
f 886// 951// 885//
f 885// 951// 910//
f 885// 910// 849//
f 903// 901// 952//
f 953// 954// 955//
f 955// 954// 858//
f 890// 858// 954//
f 956// 858// 957//
f 958// 858// 956//
f 899// 897// 953//
f 953// 897// 895//
f 953// 895// 954//
f 954// 895// 893//
f 954// 893// 890//
f 959// 960// 961//
f 961// 960// 958//
f 961// 958// 962//
f 962// 958// 956//
f 962// 956// 963//
f 957// 964// 956//
f 956// 964// 965//
f 956// 965// 963//
f 963// 965// 966//
f 963// 966// 967//
f 952// 959// 968//
f 968// 959// 961//
f 968// 961// 969//
f 969// 961// 962//
f 969// 962// 970//
f 970// 962// 963//
f 970// 963// 971//
f 971// 963// 967//
f 971// 967// 972//
f 907// 905// 973//
f 973// 905// 903//
f 903// 952// 973//
f 973// 952// 968//
f 973// 968// 974//
f 974// 968// 969//
f 974// 969// 975//
f 975// 969// 970//
f 975// 970// 976//
f 976// 970// 971//
f 976// 971// 977//
f 977// 971// 972//
f 977// 972// 978//
f 911// 909// 979//
f 979// 909// 907//
f 907// 973// 979//
f 979// 973// 974//
f 979// 974// 980//
f 980// 974// 975//
f 980// 975// 981//
f 981// 975// 976//
f 981// 976// 982//
f 982// 976// 977//
f 982// 977// 983//
f 960// 858// 958//
f 901// 899// 952//
f 952// 899// 953//
f 952// 953// 959//
f 959// 953// 955//
f 959// 955// 960//
f 960// 955// 858//
f 921// 850// 911//
f 978// 984// 977//
f 977// 984// 985//
f 977// 985// 983//
f 983// 985// 986//
f 983// 986// 987//
f 911// 979// 921//
f 921// 979// 980//
f 921// 980// 919//
f 919// 980// 981//
f 919// 981// 917//
f 917// 981// 982//
f 917// 982// 915//
f 915// 982// 983//
f 915// 983// 913//
f 913// 983// 987//
f 913// 987// 856//
f 851// 814// 844//
f 851// 844// 988//
f 988// 844// 843//
f 988// 843// 989//
f 989// 843// 842//
f 989// 842// 990//
f 990// 842// 841//
f 990// 841// 991//
f 991// 841// 825//
f 991// 825// 992//
f 992// 825// 824//
f 992// 824// 854//
f 870// 860// 929//
f 870// 929// 993//
f 993// 929// 932//
f 993// 932// 994//
f 994// 932// 933//
f 994// 933// 995//
f 995// 933// 924//
f 995// 924// 996//
f 996// 924// 922//
f 996// 922// 997//
f 997// 922// 852//
f 997// 852// 851//
f 864// 998// 858//
f 858// 998// 957//
f 957// 998// 964//
f 964// 998// 999//
f 964// 999// 965//
f 965// 999// 1000//
f 965// 1000// 966//
f 966// 1000// 1001//
f 966// 1001// 967//
f 967// 1001// 1002//
f 967// 1002// 972//
f 972// 1002// 1003//
f 972// 1003// 978//
f 978// 1003// 1004//
f 978// 1004// 984//
f 984// 1004// 1005//
f 984// 1005// 985//
f 985// 1005// 1006//
f 985// 1006// 986//
f 986// 1006// 1007//
f 986// 1007// 987//
f 1007// 1008// 987//
f 987// 1008// 855//
f 987// 855// 856//
f 853// 823// 822//
f 853// 822// 1009//
f 1009// 822// 811//
f 1009// 811// 1010//
f 1010// 811// 810//
f 1010// 810// 1011//
f 1011// 810// 809//
f 1011// 809// 1012//
f 1012// 809// 808//
f 1012// 808// 1013//
f 1013// 808// 840//
f 1013// 840// 855//
f 854// 1014// 1015//
f 1016// 1017// 1018//
f 870// 993// 1019//
f 1018// 1017// 870//
f 1020// 870// 1017//
f 1020// 1017// 1021//
f 1021// 1017// 1016//
f 1021// 1016// 1022//
f 1023// 870// 1020//
f 1024// 1025// 1026//
f 1026// 1025// 1019//
f 1026// 1019// 1027//
f 1027// 1019// 993//
f 1027// 993// 994//
f 1023// 1020// 1028//
f 1028// 1020// 1021//
f 1028// 1021// 1029//
f 1029// 1021// 1022//
f 1029// 1022// 1030//
f 1031// 1024// 1032//
f 1032// 1024// 1026//
f 1032// 1026// 1033//
f 1033// 1026// 1027//
f 1033// 1027// 1034//
f 1034// 1027// 994//
f 1034// 994// 995//
f 1035// 1031// 1036//
f 1036// 1031// 1032//
f 1036// 1032// 1037//
f 1037// 1032// 1033//
f 1037// 1033// 1038//
f 1038// 1033// 1034//
f 1038// 1034// 1039//
f 1039// 1034// 995//
f 1039// 995// 996//
f 1014// 1035// 1015//
f 1015// 1035// 1036//
f 1015// 1036// 1040//
f 1040// 1036// 1037//
f 1040// 1037// 1041//
f 1041// 1037// 1038//
f 1041// 1038// 1042//
f 1042// 1038// 1039//
f 1042// 1039// 1043//
f 1043// 1039// 996//
f 1043// 996// 997//
f 854// 1015// 992//
f 992// 1015// 1040//
f 992// 1040// 991//
f 991// 1040// 1041//
f 991// 1041// 990//
f 990// 1041// 1042//
f 990// 1042// 989//
f 989// 1042// 1043//
f 989// 1043// 988//
f 988// 1043// 997//
f 988// 997// 851//
f 1025// 870// 1019//
f 1014// 1030// 1035//
f 1035// 1030// 1022//
f 1035// 1022// 1031//
f 1031// 1022// 1016//
f 1031// 1016// 1024//
f 1024// 1016// 1018//
f 1024// 1018// 1025//
f 1025// 1018// 870//
f 1006// 1005// 1044//
f 1004// 1003// 1045//
f 1046// 1047// 1048//
f 864// 1049// 1050//
f 1048// 1047// 864//
f 998// 864// 1047//
f 1002// 1001// 1046//
f 1046// 1001// 1000//
f 1046// 1000// 1047//
f 1047// 1000// 999//
f 1047// 999// 998//
f 1051// 1052// 1053//
f 1053// 1052// 1050//
f 1053// 1050// 1054//
f 1054// 1050// 1049//
f 1054// 1049// 1055//
f 1003// 1002// 1045//
f 1045// 1002// 1046//
f 1045// 1046// 1056//
f 1056// 1046// 1048//
f 1056// 1048// 1057//
f 1057// 1048// 864//
f 1058// 1051// 1059//
f 1059// 1051// 1053//
f 1059// 1053// 1060//
f 1060// 1053// 1054//
f 1060// 1054// 1061//
f 1061// 1054// 1055//
f 1061// 1055// 1062//
f 1044// 1058// 1063//
f 1063// 1058// 1059//
f 1063// 1059// 1064//
f 1064// 1059// 1060//
f 1064// 1060// 1065//
f 1065// 1060// 1061//
f 1065// 1061// 1066//
f 1066// 1061// 1062//
f 1066// 1062// 1067//
f 1008// 1007// 1068//
f 1068// 1007// 1006//
f 1006// 1044// 1068//
f 1068// 1044// 1063//
f 1068// 1063// 1069//
f 1069// 1063// 1064//
f 1069// 1064// 1070//
f 1070// 1064// 1065//
f 1070// 1065// 1071//
f 1071// 1065// 1066//
f 1071// 1066// 1072//
f 1072// 1066// 1067//
f 1072// 1067// 1073//
f 1013// 855// 1008//
f 1008// 1068// 1013//
f 1013// 1068// 1069//
f 1013// 1069// 1012//
f 1012// 1069// 1070//
f 1012// 1070// 1011//
f 1011// 1070// 1071//
f 1011// 1071// 1010//
f 1010// 1071// 1072//
f 1010// 1072// 1009//
f 1009// 1072// 1073//
f 1009// 1073// 853//
f 1052// 864// 1050//
f 1005// 1004// 1044//
f 1044// 1004// 1045//
f 1044// 1045// 1058//
f 1058// 1045// 1056//
f 1058// 1056// 1051//
f 1051// 1056// 1057//
f 1051// 1057// 1052//
f 1052// 1057// 864//
f 864// 870// 1023//
f 864// 1023// 1049//
f 1049// 1023// 1028//
f 1049// 1028// 1055//
f 1055// 1028// 1029//
f 1055// 1029// 1062//
f 1062// 1029// 1030//
f 1062// 1030// 1067//
f 1067// 1030// 1014//
f 1067// 1014// 1073//
f 1073// 1014// 854//
f 1073// 854// 853//
usemtl 4
f 1074// 861// 1075//
f 1075// 861// 884//
f 1075// 884// 1076//
f 1076// 884// 883//
f 1076// 883// 1077//
f 1077// 883// 882//
f 1077// 882// 1078//
f 1078// 882// 881//
f 1078// 881// 1079//
f 1079// 881// 880//
f 1079// 880// 1080//
f 1080// 880// 879//
f 1080// 879// 1081//
f 1081// 879// 878//
f 1081// 878// 1082//
f 1082// 878// 877//
f 1082// 877// 1083//
f 1083// 877// 876//
f 1083// 876// 1084//
f 1084// 876// 872//
f 1084// 872// 1085//
f 1085// 872// 871//
f 1085// 871// 1086//
f 1086// 871// 875//
f 1086// 875// 1087//
f 1087// 875// 874//
f 1087// 874// 1088//
f 1088// 874// 873//
f 1088// 873// 1089//
f 1089// 873// 869//
f 1089// 869// 1090//
f 1090// 869// 868//
f 1090// 868// 1091//
f 1091// 868// 867//
f 1091// 867// 1092//
f 1092// 867// 866//
f 1092// 866// 1093//
f 1093// 866// 865//
f 1093// 865// 1094//
f 1094// 865// 863//
f 1094// 863// 1095//
f 1095// 863// 862//
f 1095// 862// 1096//
f 1096// 862// 857//
f 1096// 857// 1097//
f 1097// 857// 859//
f 1097// 859// 1074//
f 1074// 859// 861//
f 1096// 1097// 1098//
f 1098// 1097// 1074//
f 1098// 1074// 1075//
f 1093// 1094// 1098//
f 1098// 1094// 1095//
f 1098// 1095// 1096//
f 1090// 1091// 1098//
f 1098// 1091// 1092//
f 1098// 1092// 1093//
f 1087// 1088// 1098//
f 1098// 1088// 1089//
f 1098// 1089// 1090//
f 1084// 1085// 1098//
f 1098// 1085// 1086//
f 1098// 1086// 1087//
f 1081// 1082// 1098//
f 1098// 1082// 1083//
f 1098// 1083// 1084//
f 1078// 1079// 1098//
f 1098// 1079// 1080//
f 1098// 1080// 1081//
f 1075// 1076// 1098//
f 1098// 1076// 1077//
f 1098// 1077// 1078//
f 1099// 1100// 738//
f 738// 1100// 739//
f 1100// 1101// 739//
f 739// 1101// 740//
f 1101// 1102// 740//
f 740// 1102// 755//
f 1102// 1103// 755//
f 755// 1103// 756//
f 1103// 1104// 756//
f 756// 1104// 757//
f 1104// 1105// 757//
f 757// 1105// 742//
f 1105// 1106// 742//
f 742// 1106// 737//
f 1106// 1099// 737//
f 737// 1099// 738//
f 1107// 1103// 1108//
f 1108// 1103// 1102//
f 1109// 1106// 1107//
f 1107// 1106// 1105//
f 1107// 1105// 1103//
f 1103// 1105// 1104//
f 1109// 1110// 1106//
f 1106// 1110// 1111//
f 1106// 1111// 1099//
f 1099// 1111// 1112//
f 1099// 1112// 1113//
f 1113// 1114// 1099//
f 1099// 1114// 1108//
f 1099// 1108// 1100//
f 1100// 1108// 1102//
f 1100// 1102// 1101//
f 1107// 1108// 1115//
f 1115// 1108// 1116//
f 1109// 1107// 1117//
f 1117// 1107// 1115//
f 1109// 1117// 1118//
f 1109// 1118// 1110//
f 1110// 1118// 1119//
f 1110// 1119// 1111//
f 1112// 1111// 1120//
f 1120// 1111// 1119//
f 1112// 1120// 1121//
f 1112// 1121// 1113//
f 1113// 1121// 1122//
f 1113// 1122// 1114//
f 1108// 1114// 1116//
f 1116// 1114// 1122//
f 1123// 1124// 751//
f 751// 1124// 734//
f 1124// 1125// 734//
f 734// 1125// 735//
f 1125// 1126// 735//
f 735// 1126// 745//
f 1127// 759// 758//
f 1127// 758// 1128//
f 1128// 758// 748//
f 1128// 748// 1129//
f 1129// 748// 747//
f 1129// 747// 1130//
f 1130// 747// 746//
f 1130// 746// 1131//
f 1131// 746// 754//
f 1131// 754// 1132//
f 1132// 754// 753//
f 1132// 753// 1133//
f 1133// 753// 752//
f 1133// 752// 1134//
f 1134// 752// 745//
f 1134// 745// 1126//
f 1123// 751// 750//
f 1123// 750// 1135//
f 1135// 750// 749//
f 1135// 749// 1136//
f 1136// 749// 741//
f 1136// 741// 1137//
f 1137// 741// 743//
f 1137// 743// 1138//
f 1138// 743// 744//
f 1138// 744// 1139//
f 1139// 744// 760//
f 1139// 760// 1140//
f 1140// 760// 759//
f 1140// 759// 1127//
f 1129// 1130// 1141//
f 1141// 1130// 1131//
f 1141// 1131// 1142//
f 1142// 1131// 1132//
f 1142// 1132// 1143//
f 1143// 1132// 1133//
f 1143// 1133// 1144//
f 1144// 1133// 1134//
f 1144// 1134// 1145//
f 1145// 1134// 1126//
f 1145// 1126// 1146//
f 1146// 1126// 1125//
f 1146// 1125// 1147//
f 1147// 1125// 1124//
f 1147// 1124// 1148//
f 1148// 1124// 1123//
f 1148// 1123// 1149//
f 1149// 1123// 1135//
f 1149// 1135// 1150//
f 1150// 1135// 1136//
f 1150// 1136// 1151//
f 1151// 1136// 1137//
f 1151// 1137// 1152//
f 1152// 1137// 1138//
f 1152// 1138// 1153//
f 1153// 1138// 1139//
f 1153// 1139// 1154//
f 1154// 1139// 1140//
f 1154// 1140// 1155//
f 1155// 1140// 1127//
f 1155// 1127// 1156//
f 1156// 1127// 1128//
f 1156// 1128// 1157//
f 1157// 1128// 1129//
f 1157// 1129// 1141//
f 1145// 1146// 1158//
f 1158// 1146// 1159//
f 1145// 1158// 1160//
f 1145// 1160// 1144//
f 1144// 1160// 1161//
f 1144// 1161// 1143//
f 1143// 1161// 1162//
f 1143// 1162// 1142//
f 1142// 1162// 1163//
f 1142// 1163// 1141//
f 1141// 1163// 1164//
f 1141// 1164// 1157//
f 1157// 1164// 1165//
f 1157// 1165// 1156//
f 1156// 1165// 1166//
f 1156// 1166// 1155//
f 1155// 1166// 1167//
f 1155// 1167// 1154//
f 1154// 1167// 1168//
f 1154// 1168// 1153//
f 1153// 1168// 1169//
f 1153// 1169// 1152//
f 1152// 1169// 1170//
f 1152// 1170// 1151//
f 1151// 1170// 1171//
f 1151// 1171// 1150//
f 1150// 1171// 1172//
f 1150// 1172// 1149//
f 1149// 1172// 1173//
f 1149// 1173// 1148//
f 1147// 1148// 1174//
f 1174// 1148// 1173//
f 1146// 1147// 1159//
f 1159// 1147// 1174//
f 1175// 1176// 185//
f 185// 1176// 186//
f 186// 1176// 200//
f 200// 1176// 1177//
f 200// 1177// 201//
f 1177// 1178// 201//
f 201// 1178// 202//
f 202// 1178// 205//
f 205// 1178// 1179//
f 205// 1179// 203//
f 1179// 1180// 203//
f 203// 1180// 199//
f 199// 1180// 197//
f 197// 1180// 1181//
f 197// 1181// 195//
f 1181// 1182// 195//
f 195// 1182// 196//
f 196// 1182// 198//
f 198// 1182// 1183//
f 198// 1183// 194//
f 1183// 1184// 194//
f 194// 1184// 193//
f 193// 1184// 191//
f 191// 1184// 1185//
f 191// 1185// 189//
f 1185// 1186// 189//
f 189// 1186// 190//
f 190// 1186// 192//
f 192// 1186// 1175//
f 192// 1175// 185//
f 1177// 1176// 1175//
f 1175// 1186// 1177//
f 1177// 1186// 1185//
f 1177// 1185// 1178//
f 1180// 1179// 1181//
f 1181// 1179// 1178//
f 1181// 1178// 1182//
f 1182// 1178// 1185//
f 1182// 1185// 1183//
f 1183// 1185// 1184//
f 1187// 1188// 146//
f 146// 1188// 140//
f 140// 1188// 1189//
f 1190// 182// 181//
f 1190// 181// 1191//
f 1191// 181// 180//
f 1191// 180// 1189//
f 1189// 180// 141//
f 1189// 141// 140//
f 182// 1190// 183//
f 183// 1190// 1192//
f 183// 1192// 184//
f 184// 1192// 1193//
f 184// 1193// 151//
f 151// 1193// 1194//
f 151// 1194// 152//
f 152// 1194// 1195//
f 152// 1195// 154//
f 154// 1195// 1196//
f 154// 1196// 155//
f 155// 1196// 1197//
f 155// 1197// 174//
f 174// 1197// 1198//
f 174// 1198// 175//
f 1199// 179// 178//
f 1199// 178// 1200//
f 1200// 178// 177//
f 1200// 177// 1201//
f 1201// 177// 159//
f 1201// 159// 1202//
f 1202// 159// 157//
f 1202// 157// 1203//
f 1203// 157// 156//
f 1203// 156// 1204//
f 1204// 156// 176//
f 1204// 176// 1205//
f 1205// 176// 175//
f 1205// 175// 1198//
f 1206// 143// 142//
f 1206// 142// 1207//
f 1207// 142// 179//
f 1207// 179// 1199//
f 1206// 1208// 143//
f 143// 1208// 145//
f 1209// 149// 147//
f 1209// 147// 1210//
f 1210// 147// 145//
f 1210// 145// 1208//
f 1211// 163// 173//
f 1211// 173// 1212//
f 1212// 173// 172//
f 1212// 172// 1213//
f 1213// 172// 162//
f 1213// 162// 1214//
f 1214// 162// 161//
f 1214// 161// 1215//
f 1215// 161// 160//
f 1215// 160// 1216//
f 1216// 160// 150//
f 1216// 150// 1217//
f 1217// 150// 149//
f 1217// 149// 1209//
f 1218// 167// 166//
f 1218// 166// 1219//
f 1219// 166// 168//
f 1219// 168// 1220//
f 1220// 168// 169//
f 1220// 169// 1221//
f 1221// 169// 170//
f 1221// 170// 1222//
f 1222// 170// 165//
f 1222// 165// 1223//
f 1223// 165// 164//
f 1223// 164// 1224//
f 1224// 164// 163//
f 1224// 163// 1211//
f 1187// 146// 148//
f 1187// 148// 1225//
f 1225// 148// 171//
f 1225// 171// 1226//
f 1226// 171// 167//
f 1226// 167// 1218//
f 1219// 1190// 1218//
f 1218// 1190// 1191//
f 1218// 1191// 1226//
f 1226// 1191// 1189//
f 1226// 1189// 1225//
f 1225// 1189// 1188//
f 1225// 1188// 1187//
f 1208// 1206// 1210//
f 1210// 1206// 1207//
f 1210// 1207// 1209//
f 1209// 1207// 1199//
f 1209// 1199// 1217//
f 1217// 1199// 1200//
f 1217// 1200// 1216//
f 1216// 1200// 1201//
f 1216// 1201// 1215//
f 1215// 1201// 1202//
f 1215// 1202// 1214//
f 1214// 1202// 1203//
f 1214// 1203// 1213//
f 1213// 1203// 1204//
f 1213// 1204// 1212//
f 1212// 1204// 1205//
f 1212// 1205// 1211//
f 1211// 1205// 1198//
f 1211// 1198// 1224//
f 1224// 1198// 1197//
f 1224// 1197// 1223//
f 1223// 1197// 1196//
f 1223// 1196// 1222//
f 1222// 1196// 1195//
f 1222// 1195// 1221//
f 1221// 1195// 1194//
f 1221// 1194// 1220//
f 1220// 1194// 1193//
f 1220// 1193// 1219//
f 1219// 1193// 1192//
f 1219// 1192// 1190//
f 1227// 1228// 727//
f 727// 1228// 728//
f 1228// 1229// 728//
f 728// 1229// 729//
f 1229// 1230// 729//
f 729// 1230// 730//
f 1230// 1231// 730//
f 730// 1231// 732//
f 1231// 1232// 732//
f 732// 1232// 731//
f 1232// 1227// 731//
f 731// 1227// 727//
f 1231// 1230// 1232//
f 1232// 1230// 1229//
f 1232// 1229// 1227//
f 1227// 1229// 1228//
usemtl 1
f 1115// 1116// 1117//
f 1117// 1116// 1122//
f 1117// 1122// 1118//
f 1118// 1122// 1121//
f 1118// 1121// 1119//
f 1119// 1121// 1120//
f 1159// 1174// 1158//
f 1158// 1174// 1173//
f 1158// 1173// 1172//
f 1166// 1165// 1158//
f 1158// 1165// 1164//
f 1158// 1164// 1160//
f 1172// 1171// 1158//
f 1158// 1171// 1170//
f 1158// 1170// 1169//
f 1169// 1168// 1158//
f 1158// 1168// 1167//
f 1158// 1167// 1166//
f 1163// 1162// 1164//
f 1164// 1162// 1161//
f 1164// 1161// 1160//
usemtl 2
f 1233// 1234// 790//
f 790// 1234// 798//
f 1235// 1233// 795//
f 795// 1233// 790//
f 846// 1235// 794//
f 794// 1235// 795//
f 1236// 848// 817//
f 817// 848// 815//
f 1237// 1236// 807//
f 807// 1236// 817//
f 1238// 1237// 805//
f 805// 1237// 807//
f 1239// 1238// 804//
f 804// 1238// 805//
f 1240// 1239// 806//
f 806// 1239// 804//
f 1241// 1240// 831//
f 831// 1240// 806//
f 1242// 1241// 830//
f 830// 1241// 831//
f 1243// 1242// 829//
f 829// 1242// 830//
f 1244// 1243// 813//
f 813// 1243// 829//
f 1245// 1244// 786//
f 786// 1244// 813//
f 1246// 1245// 802//
f 802// 1245// 786//
f 1247// 1246// 801//
f 801// 1246// 802//
f 1248// 1247// 828//
f 828// 1247// 801//
f 1249// 1248// 827//
f 827// 1248// 828//
f 1250// 1249// 826//
f 826// 1249// 827//
f 1251// 1250// 832//
f 832// 1250// 826//
f 1252// 1251// 833//
f 833// 1251// 832//
f 1253// 1252// 834//
f 834// 1252// 833//
f 1254// 1253// 799//
f 799// 1253// 834//
f 1234// 1254// 798//
f 798// 1254// 799//
f 1234// 1233// 1235//
f 1235// 846// 1234//
f 1234// 846// 845//
f 1234// 845// 1254//
f 1255// 1256// 845//
f 845// 1256// 847//
f 845// 847// 1254//
f 1254// 847// 848//
f 1254// 848// 1253//
f 1253// 848// 1236//
f 1253// 1236// 1252//
f 1252// 1236// 1237//
f 1252// 1237// 1251//
f 1251// 1237// 1238//
f 1251// 1238// 1250//
f 1250// 1238// 1239//
f 1250// 1239// 1249//
f 1249// 1239// 1240//
f 1249// 1240// 1248//
f 1248// 1240// 1241//
f 1248// 1241// 1247//
f 1247// 1241// 1242//
f 1247// 1242// 1246//
f 1246// 1242// 1243//
f 1246// 1243// 1245//
f 1245// 1243// 1244//
usemtl 5
f 1255// 845// 797//
f 797// 845// 796//
f 1256// 1255// 818//
f 818// 1255// 797//
f 847// 1256// 816//
f 816// 1256// 818//
usemtl 6
f 1257// 1258// 704//
f 704// 1258// 703//
f 1259// 1257// 702//
f 702// 1257// 704//
f 1260// 1259// 701//
f 701// 1259// 702//
f 1258// 1260// 703//
f 703// 1260// 701//
f 1259// 1260// 1257//
f 1257// 1260// 1258//
f 1261// 1262// 633//
f 633// 1262// 630//
f 1263// 1261// 632//
f 632// 1261// 633//
f 1264// 1263// 631//
f 631// 1263// 632//
f 1262// 1264// 630//
f 630// 1264// 631//
f 1263// 1264// 1261//
f 1261// 1264// 1262//
f 1265// 1266// 11//
f 11// 1266// 628//
f 1267// 1265// 10//
f 10// 1265// 11//
f 1268// 1267// 626//
f 626// 1267// 10//
f 1266// 1268// 628//
f 628// 1268// 626//
f 1267// 1268// 1265//
f 1265// 1268// 1266//
f 1269// 1270// 566//
f 566// 1270// 565//
f 1271// 1269// 562//
f 562// 1269// 566//
f 1272// 1271// 563//
f 563// 1271// 562//
f 1270// 1272// 565//
f 565// 1272// 563//
f 1271// 1272// 1269//
f 1269// 1272// 1270//
f 1273// 1274// 530//
f 530// 1274// 529//
f 1275// 1273// 525//
f 525// 1273// 530//
f 1276// 1275// 527//
f 527// 1275// 525//
f 1274// 1276// 529//
f 529// 1276// 527//
f 1275// 1276// 1273//
f 1273// 1276// 1274//
f 1277// 1278// 505//
f 505// 1278// 504//
f 1279// 1277// 500//
f 500// 1277// 505//
f 1280// 1279// 502//
f 502// 1279// 500//
f 1278// 1280// 504//
f 504// 1280// 502//
f 1279// 1280// 1277//
f 1277// 1280// 1278//
f 1281// 1282// 483//
f 483// 1282// 482//
f 1283// 1281// 478//
f 478// 1281// 483//
f 1284// 1283// 480//
f 480// 1283// 478//
f 1282// 1284// 482//
f 482// 1284// 480//
f 1283// 1284// 1281//
f 1281// 1284// 1282//
f 1285// 1286// 464//
f 464// 1286// 465//
f 1287// 1285// 466//
f 466// 1285// 464//
f 1288// 1287// 468//
f 468// 1287// 466//
f 1286// 1288// 465//
f 465// 1288// 468//
f 1287// 1288// 1285//
f 1285// 1288// 1286//
f 1289// 1290// 696//
f 696// 1290// 695//
f 1291// 1289// 698//
f 698// 1289// 696//
f 1292// 1291// 694//
f 694// 1291// 698//
f 1290// 1292// 695//
f 695// 1292// 694//
f 1291// 1292// 1289//
f 1289// 1292// 1290//
f 1293// 1294// 693//
f 693// 1294// 699//
f 1295// 1293// 692//
f 692// 1293// 693//
f 1296// 1295// 700//
f 700// 1295// 692//
f 1294// 1296// 699//
f 699// 1296// 700//
f 1295// 1296// 1293//
f 1293// 1296// 1294//
f 1297// 1298// 689//
f 689// 1298// 687//
f 1299// 1297// 690//
f 690// 1297// 689//
f 1300// 1299// 688//
f 688// 1299// 690//
f 1298// 1300// 687//
f 687// 1300// 688//
f 1299// 1300// 1297//
f 1297// 1300// 1298//
f 1301// 1302// 683//
f 683// 1302// 684//
f 1303// 1301// 685//
f 685// 1301// 683//
f 1304// 1303// 686//
f 686// 1303// 685//
f 1302// 1304// 684//
f 684// 1304// 686//
f 1303// 1304// 1301//
f 1301// 1304// 1302//
f 1305// 1306// 678//
f 678// 1306// 679//
f 1307// 1305// 681//
f 681// 1305// 678//
f 1308// 1307// 680//
f 680// 1307// 681//
f 1306// 1308// 679//
f 679// 1308// 680//
f 1307// 1308// 1305//
f 1305// 1308// 1306//
f 1309// 1310// 673//
f 673// 1310// 674//
f 1311// 1309// 676//
f 676// 1309// 673//
f 1312// 1311// 675//
f 675// 1311// 676//
f 1310// 1312// 674//
f 674// 1312// 675//
f 1311// 1312// 1309//
f 1309// 1312// 1310//
f 1313// 1314// 668//
f 668// 1314// 669//
f 1315// 1313// 671//
f 671// 1313// 668//
f 1316// 1315// 670//
f 670// 1315// 671//
f 1314// 1316// 669//
f 669// 1316// 670//
f 1315// 1316// 1313//
f 1313// 1316// 1314//
f 1317// 1318// 343//
f 343// 1318// 344//
f 1319// 1317// 340//
f 340// 1317// 343//
f 1320// 1319// 345//
f 345// 1319// 340//
f 1318// 1320// 344//
f 344// 1320// 345//
f 1319// 1320// 1317//
f 1317// 1320// 1318//
f 1321// 1322// 350//
f 350// 1322// 347//
f 1323// 1321// 349//
f 349// 1321// 350//
f 1324// 1323// 348//
f 348// 1323// 349//
f 1322// 1324// 347//
f 347// 1324// 348//
f 1323// 1324// 1321//
f 1321// 1324// 1322//
f 1325// 1326// 362//
f 362// 1326// 366//
f 1327// 1325// 364//
f 364// 1325// 362//
f 1328// 1327// 365//
f 365// 1327// 364//
f 1326// 1328// 366//
f 366// 1328// 365//
f 1327// 1328// 1325//
f 1325// 1328// 1326//
f 1329// 1330// 402//
f 402// 1330// 400//
f 1331// 1329// 404//
f 404// 1329// 402//
f 1332// 1331// 401//
f 401// 1331// 404//
f 1330// 1332// 400//
f 400// 1332// 401//
f 1331// 1332// 1329//
f 1329// 1332// 1330//
f 1333// 1334// 408//
f 408// 1334// 409//
f 1335// 1333// 407//
f 407// 1333// 408//
f 1336// 1335// 406//
f 406// 1335// 407//
f 1334// 1336// 409//
f 409// 1336// 406//
f 1335// 1336// 1333//
f 1333// 1336// 1334//
f 1337// 1338// 416//
f 416// 1338// 420//
f 1339// 1337// 418//
f 418// 1337// 416//
f 1340// 1339// 419//
f 419// 1339// 418//
f 1338// 1340// 420//
f 420// 1340// 419//
f 1339// 1340// 1337//
f 1337// 1340// 1338//
f 1341// 1342// 428//
f 428// 1342// 432//
f 1343// 1341// 430//
f 430// 1341// 428//
f 1344// 1343// 431//
f 431// 1343// 430//
f 1342// 1344// 432//
f 432// 1344// 431//
f 1343// 1344// 1341//
f 1341// 1344// 1342//
f 1345// 1346// 440//
f 440// 1346// 444//
f 1347// 1345// 442//
f 442// 1345// 440//
f 1348// 1347// 443//
f 443// 1347// 442//
f 1346// 1348// 444//
f 444// 1348// 443//
f 1347// 1348// 1345//
f 1345// 1348// 1346//
f 1349// 1350// 342//
f 342// 1350// 333//
f 1351// 1349// 339//
f 339// 1349// 342//
f 1352// 1351// 334//
f 334// 1351// 339//
f 1350// 1352// 333//
f 333// 1352// 334//
f 1351// 1352// 1349//
f 1349// 1352// 1350//
f 1353// 1354// 338//
f 338// 1354// 336//
f 1355// 1353// 337//
f 337// 1353// 338//
f 1356// 1355// 335//
f 335// 1355// 337//
f 1354// 1356// 336//
f 336// 1356// 335//
f 1355// 1356// 1353//
f 1353// 1356// 1354//
f 1357// 1358// 22//
f 22// 1358// 23//
f 1359// 1357// 332//
f 332// 1357// 22//
f 1360// 1359// 331//
f 331// 1359// 332//
f 1358// 1360// 23//
f 23// 1360// 331//
f 1359// 1360// 1357//
f 1357// 1360// 1358//
f 1361// 1362// 328//
f 328// 1362// 330//
f 1363// 1361// 323//
f 323// 1361// 328//
f 1364// 1363// 322//
f 322// 1363// 323//
f 1362// 1364// 330//
f 330// 1364// 322//
f 1363// 1364// 1361//
f 1361// 1364// 1362//
f 1365// 1366// 326//
f 326// 1366// 327//
f 1367// 1365// 325//
f 325// 1365// 326//
f 1368// 1367// 324//
f 324// 1367// 325//
f 1366// 1368// 327//
f 327// 1368// 324//
f 1367// 1368// 1365//
f 1365// 1368// 1366//
f 1369// 1370// 319//
f 319// 1370// 321//
f 1371// 1369// 318//
f 318// 1369// 319//
f 1372// 1371// 320//
f 320// 1371// 318//
f 1370// 1372// 321//
f 321// 1372// 320//
f 1371// 1372// 1369//
f 1369// 1372// 1370//
f 1373// 1374// 25//
f 25// 1374// 26//
f 1375// 1373// 359//
f 359// 1373// 25//
f 1376// 1375// 317//
f 317// 1375// 359//
f 1374// 1376// 26//
f 26// 1376// 317//
f 1375// 1376// 1373//
f 1373// 1376// 1374//
f 1377// 1378// 288//
f 288// 1378// 289//
f 1379// 1377// 284//
f 284// 1377// 288//
f 1380// 1379// 283//
f 283// 1379// 284//
f 1378// 1380// 289//
f 289// 1380// 283//
f 1379// 1380// 1377//
f 1377// 1380// 1378//
f 1381// 1382// 285//
f 285// 1382// 286//
f 1383// 1381// 292//
f 292// 1381// 285//
f 1384// 1383// 291//
f 291// 1383// 292//
f 1382// 1384// 286//
f 286// 1384// 291//
f 1383// 1384// 1381//
f 1381// 1384// 1382//
f 1385// 1386// 355//
f 355// 1386// 353//
f 1387// 1385// 351//
f 351// 1385// 355//
f 1388// 1387// 352//
f 352// 1387// 351//
f 1386// 1388// 353//
f 353// 1388// 352//
f 1387// 1388// 1385//
f 1385// 1388// 1386//
f 1389// 1390// 368//
f 368// 1390// 370//
f 1391// 1389// 372//
f 372// 1389// 368//
f 1392// 1391// 371//
f 371// 1391// 372//
f 1390// 1392// 370//
f 370// 1392// 371//
f 1391// 1392// 1389//
f 1389// 1392// 1390//
f 1393// 1394// 376//
f 376// 1394// 377//
f 1395// 1393// 375//
f 375// 1393// 376//
f 1396// 1395// 374//
f 374// 1395// 375//
f 1394// 1396// 377//
f 377// 1396// 374//
f 1395// 1396// 1393//
f 1393// 1396// 1394//
f 1397// 1398// 414//
f 414// 1398// 412//
f 1399// 1397// 410//
f 410// 1397// 414//
f 1400// 1399// 411//
f 411// 1399// 410//
f 1398// 1400// 412//
f 412// 1400// 411//
f 1399// 1400// 1397//
f 1397// 1400// 1398//
f 1401// 1402// 426//
f 426// 1402// 424//
f 1403// 1401// 422//
f 422// 1401// 426//
f 1404// 1403// 423//
f 423// 1403// 422//
f 1402// 1404// 424//
f 424// 1404// 423//
f 1403// 1404// 1401//
f 1401// 1404// 1402//
f 1405// 1406// 438//
f 438// 1406// 436//
f 1407// 1405// 434//
f 434// 1405// 438//
f 1408// 1407// 435//
f 435// 1407// 434//
f 1406// 1408// 436//
f 436// 1408// 435//
f 1407// 1408// 1405//
f 1405// 1408// 1406//
f 1409// 1410// 294//
f 294// 1410// 295//
f 1411// 1409// 293//
f 293// 1409// 294//
f 1412// 1411// 298//
f 298// 1411// 293//
f 1410// 1412// 295//
f 295// 1412// 298//
f 1411// 1412// 1409//
f 1409// 1412// 1410//
f 1413// 1414// 296//
f 296// 1414// 300//
f 1415// 1413// 302//
f 302// 1413// 296//
f 1416// 1415// 301//
f 301// 1415// 302//
f 1414// 1416// 300//
f 300// 1416// 301//
f 1415// 1416// 1413//
f 1413// 1416// 1414//
f 1417// 1418// 309//
f 309// 1418// 307//
f 1419// 1417// 308//
f 308// 1417// 309//
f 1420// 1419// 306//
f 306// 1419// 308//
f 1418// 1420// 307//
f 307// 1420// 306//
f 1419// 1420// 1417//
f 1417// 1420// 1418//
f 1421// 1422// 310//
f 310// 1422// 303//
f 1423// 1421// 305//
f 305// 1421// 310//
f 1424// 1423// 304//
f 304// 1423// 305//
f 1422// 1424// 303//
f 303// 1424// 304//
f 1423// 1424// 1421//
f 1421// 1424// 1422//
f 1425// 1426// 313//
f 313// 1426// 383//
f 1427// 1425// 312//
f 312// 1425// 313//
f 1428// 1427// 311//
f 311// 1427// 312//
f 1426// 1428// 383//
f 383// 1428// 311//
f 1427// 1428// 1425//
f 1425// 1428// 1426//
f 1429// 1430// 33//
f 33// 1430// 34//
f 1431// 1429// 357//
f 357// 1429// 33//
f 1432// 1431// 315//
f 315// 1431// 357//
f 1430// 1432// 34//
f 34// 1432// 315//
f 1431// 1432// 1429//
f 1429// 1432// 1430//
f 208// 1433// 207//
f 207// 1433// 1434//
f 207// 1434// 392//
f 1435// 1433// 213//
f 213// 1433// 208//
f 210// 1436// 212//
f 212// 1436// 1435//
f 212// 1435// 213//
f 1434// 1436// 392//
f 392// 1436// 210//
f 1435// 1436// 1433//
f 1433// 1436// 1434//
f 1437// 1438// 635//
f 635// 1438// 636//
f 1439// 1437// 634//
f 634// 1437// 635//
f 1440// 1439// 637//
f 637// 1439// 634//
f 1438// 1440// 636//
f 636// 1440// 637//
f 1439// 1440// 1437//
f 1437// 1440// 1438//
f 1441// 1442// 569//
f 569// 1442// 570//
f 1443// 1441// 576//
f 576// 1441// 569//
f 1444// 1443// 575//
f 575// 1443// 576//
f 1442// 1444// 570//
f 570// 1444// 575//
f 1443// 1444// 1441//
f 1441// 1444// 1442//
f 1445// 1446// 568//
f 568// 1446// 572//
f 1447// 1445// 567//
f 567// 1445// 568//
f 1448// 1447// 573//
f 573// 1447// 567//
f 1446// 1448// 572//
f 572// 1448// 573//
f 1447// 1448// 1445//
f 1445// 1448// 1446//
f 1449// 1450// 532//
f 532// 1450// 533//
f 1451// 1449// 531//
f 531// 1449// 532//
f 1452// 1451// 535//
f 535// 1451// 531//
f 1450// 1452// 533//
f 533// 1452// 535//
f 1451// 1452// 1449//
f 1449// 1452// 1450//
f 1453// 1454// 511//
f 511// 1454// 510//
f 1455// 1453// 506//
f 506// 1453// 511//
f 1456// 1455// 508//
f 508// 1455// 506//
f 1454// 1456// 510//
f 510// 1456// 508//
f 1455// 1456// 1453//
f 1453// 1456// 1454//
f 1457// 1458// 487//
f 487// 1458// 486//
f 1459// 1457// 488//
f 488// 1457// 487//
f 1460// 1459// 484//
f 484// 1459// 488//
f 1458// 1460// 486//
f 486// 1460// 484//
f 1459// 1460// 1457//
f 1457// 1460// 1458//
f 1461// 1462// 473//
f 473// 1462// 472//
f 1463// 1461// 474//
f 474// 1461// 473//
f 1464// 1463// 470//
f 470// 1463// 474//
f 1462// 1464// 472//
f 472// 1464// 470//
f 1463// 1464// 1461//
f 1461// 1464// 1462//
f 1465// 1466// 458//
f 458// 1466// 459//
f 1467// 1465// 460//
f 460// 1465// 458//
f 1468// 1467// 462//
f 462// 1467// 460//
f 1466// 1468// 459//
f 459// 1468// 462//
f 1467// 1468// 1465//
f 1465// 1468// 1466//
f 1469// 1470// 641//
f 641// 1470// 642//
f 1471// 1469// 640//
f 640// 1469// 641//
f 1472// 1471// 643//
f 643// 1471// 640//
f 1470// 1472// 642//
f 642// 1472// 643//
f 1471// 1472// 1469//
f 1469// 1472// 1470//
f 1473// 1474// 647//
f 647// 1474// 645//
f 1475// 1473// 648//
f 648// 1473// 647//
f 1476// 1475// 646//
f 646// 1475// 648//
f 1474// 1476// 645//
f 645// 1476// 646//
f 1475// 1476// 1473//
f 1473// 1476// 1474//
f 1477// 1478// 652//
f 652// 1478// 653//
f 1479// 1477// 655//
f 655// 1477// 652//
f 1480// 1479// 654//
f 654// 1479// 655//
f 1478// 1480// 653//
f 653// 1480// 654//
f 1479// 1480// 1477//
f 1477// 1480// 1478//
f 1481// 1482// 650//
f 650// 1482// 651//
f 1483// 1481// 8//
f 8// 1481// 650//
f 1484// 1483// 7//
f 7// 1483// 8//
f 1482// 1484// 651//
f 651// 1484// 7//
f 1483// 1484// 1481//
f 1481// 1484// 1482//
f 1485// 1486// 657//
f 657// 1486// 733//
f 1487// 1485// 656//
f 656// 1485// 657//
f 1488// 1487// 660//
f 660// 1487// 656//
f 1486// 1488// 733//
f 733// 1488// 660//
f 1487// 1488// 1485//
f 1485// 1488// 1486//
f 1489// 1490// 658//
f 658// 1490// 659//
f 1491// 1489// 5//
f 5// 1489// 658//
f 1492// 1491// 4//
f 4// 1491// 5//
f 1490// 1492// 659//
f 659// 1492// 4//
f 1491// 1492// 1489//
f 1489// 1492// 1490//
f 53// 1493// 54//
f 54// 1493// 1494//
f 54// 1494// 137//
f 1495// 1493// 587//
f 587// 1493// 53//
f 138// 1496// 135//
f 135// 1496// 1495//
f 135// 1495// 587//
f 1494// 1496// 137//
f 137// 1496// 138//
f 1495// 1496// 1493//
f 1493// 1496// 1494//
f 1497// 1498// 662//
f 662// 1498// 663//
f 1499// 1497// 665//
f 665// 1497// 662//
f 1500// 1499// 664//
f 664// 1499// 665//
f 1498// 1500// 663//
f 663// 1500// 664//
f 1499// 1500// 1497//
f 1497// 1500// 1498//
f 1501// 1502// 455//
f 455// 1502// 454//
f 1503// 1501// 456//
f 456// 1501// 455//
f 1504// 1503// 452//
f 452// 1503// 456//
f 1502// 1504// 454//
f 454// 1504// 452//
f 1503// 1504// 1501//
f 1501// 1504// 1502//
f 1505// 1506// 393//
f 393// 1506// 27//
f 1507// 1505// 316//
f 316// 1505// 393//
f 1508// 1507// 28//
f 28// 1507// 316//
f 1506// 1508// 27//
f 27// 1508// 28//
f 1507// 1508// 1505//
f 1505// 1508// 1506//
f 1509// 1510// 446//
f 446// 1510// 450//
f 1511// 1509// 448//
f 448// 1509// 446//
f 1512// 1511// 449//
f 449// 1511// 448//
f 1510// 1512// 450//
f 450// 1512// 449//
f 1511// 1512// 1509//
f 1509// 1512// 1510//
f 132// 116// 1513//
f 132// 1513// 128//
f 128// 1513// 1514//
f 128// 1514// 56//
f 591// 121// 1515//
f 591// 1515// 115//
f 115// 1515// 1513//
f 115// 1513// 116//
f 121// 119// 1515//
f 1515// 119// 127//
f 1515// 127// 1516//
f 1516// 127// 126//
f 126// 124// 1516//
f 1516// 124// 57//
f 1516// 57// 1514//
f 1514// 57// 56//
f 1515// 1516// 1513//
f 1513// 1516// 1514//
f 223// 219// 1517//
f 223// 1517// 225//
f 225// 1517// 1518//
f 225// 1518// 227//
f 215// 214// 1519//
f 215// 1519// 217//
f 217// 1519// 1517//
f 217// 1517// 219//
f 214// 220// 1519//
f 1519// 220// 609//
f 1519// 609// 1520//
f 1520// 609// 601//
f 601// 600// 1520//
f 1520// 600// 599//
f 1520// 599// 1518//
f 1518// 599// 227//
f 1519// 1520// 1517//
f 1517// 1520// 1518//
f 106// 1521// 114//
f 114// 1521// 1522//
f 114// 1522// 113//
f 103// 1523// 105//
f 105// 1523// 1521//
f 105// 1521// 106//
f 111// 1524// 110//
f 110// 1524// 1525//
f 110// 1525// 108//
f 111// 112// 1524//
f 1524// 112// 221//
f 1524// 221// 1522//
f 1522// 221// 113//
f 1525// 1524// 1523//
f 1523// 1524// 1522//
f 1523// 1522// 1521//
f 52// 229// 1526//
f 52// 1526// 236//
f 236// 1526// 1527//
f 236// 1527// 234//
f 1528// 1526// 230//
f 230// 1526// 229//
f 230// 231// 1528//
f 1528// 231// 232//
f 1528// 232// 1529//
f 1529// 232// 233//
f 1527// 1529// 234//
f 234// 1529// 233//
f 1528// 1529// 1526//
f 1526// 1529// 1527//
f 95// 1530// 93//
f 93// 1530// 1531//
f 93// 1531// 94//
f 1532// 1530// 96//
f 96// 1530// 95//
f 100// 1533// 98//
f 98// 1533// 1532//
f 98// 1532// 96//
f 1531// 1533// 94//
f 94// 1533// 100//
f 1532// 1533// 1530//
f 1530// 1533// 1531//
f 249// 385// 1534//
f 249// 1534// 250//
f 250// 1534// 1535//
f 250// 1535// 247//
f 385// 390// 1534//
f 1534// 390// 389//
f 1534// 389// 1536//
f 1536// 389// 239//
f 239// 240// 1536//
f 1536// 240// 241//
f 1536// 241// 1537//
f 1537// 241// 242//
f 248// 247// 1535//
f 248// 1535// 244//
f 244// 1535// 1537//
f 244// 1537// 242//
f 1536// 1537// 1534//
f 1534// 1537// 1535//
f 396// 1538// 89//
f 89// 1538// 1539//
f 89// 1539// 90//
f 396// 398// 1538//
f 1538// 398// 397//
f 1538// 397// 1540//
f 1540// 397// 84//
f 87// 1541// 82//
f 82// 1541// 1540//
f 82// 1540// 84//
f 237// 90// 1539//
f 237// 1539// 86//
f 86// 1539// 1541//
f 86// 1541// 87//
f 1540// 1541// 1538//
f 1538// 1541// 1539//
f 256// 255// 1542//
f 1542// 255// 254//
f 1542// 254// 1543//
f 1543// 254// 253//
f 1544// 1543// 252//
f 252// 1543// 253//
f 258// 257// 1545//
f 258// 1545// 259//
f 259// 1545// 1544//
f 259// 1544// 252//
f 1542// 1545// 256//
f 256// 1545// 257//
f 1544// 1545// 1543//
f 1543// 1545// 1542//
f 76// 79// 1546//
f 1546// 79// 78//
f 1546// 78// 1547//
f 1547// 78// 379//
f 379// 61// 1547//
f 1547// 61// 63//
f 1547// 63// 1548//
f 1548// 63// 64//
f 68// 70// 1549//
f 68// 1549// 66//
f 66// 1549// 1548//
f 66// 1548// 64//
f 77// 76// 1546//
f 77// 1546// 73//
f 73// 1546// 1549//
f 73// 1549// 70//
f 1548// 1549// 1547//
f 1547// 1549// 1546//
f 108// 1525// 109//
f 109// 1525// 1523//
f 109// 1523// 103//
