v -0.625 1.05 0.02
v -0.625 1.4 0.02
v -0.625 1.05 0.0
newmtl 1
Ka 1.0 1.0 0.0
Kd 1.0 1.0 0.0
Ks 0.5019607843137255 0.5019607843137255 0.0
d 0.0
endmtl
v -0.625 1.4 0.0
v -0.375 1.05 0.02
v -0.375 1.05 0.0
v -0.375 1.4 0.02
v -0.375 1.4 0.0
v 0.375 1.05 0.02
v 0.375 1.4 0.02
v 0.375 1.05 0.0
v 0.375 1.4 0.0
v 0.625 1.05 0.02
v 0.625 1.05 0.0
v 0.625 1.4 0.02
v 0.625 1.4 0.0
v -0.125 1.05 0.02
v -0.125 1.4 0.02
v -0.125 1.05 0.0
v -0.125 1.4 0.0
v 0.125 1.05 0.02
v 0.125 1.05 0.0
v 0.125 1.4 0.02
v 0.125 1.4 0.0
v -0.965516 1.275 0.0
v -0.964904 1.285508 0.02
v -0.964904 1.285508 0.0
v -0.963076 1.295874 0.02
v -0.963076 1.295874 0.0
v -0.960058 1.305958 0.02
v -0.960058 1.305958 0.0
v -0.955888 1.315624 0.02
v -0.955888 1.315624 0.0
v -0.950625 1.32474 0.02
v -0.950625 1.32474 0.0
v -0.94434 1.333183 0.02
v -0.94434 1.333183 0.0
v -0.937116 1.340839 0.02
v -0.937116 1.340839 0.0
v -0.929053 1.347605 0.02
v -0.929053 1.347605 0.0
v -0.920258 1.35339 0.02
v -0.920258 1.35339 0.0
v -0.910852 1.358114 0.02
v -0.910852 1.358114 0.0
v -0.90096 1.361714 0.02
v -0.90096 1.361714 0.0
v -0.890718 1.364141 0.02
v -0.890718 1.364141 0.0
v -0.880263 1.365363 0.02
v -0.880263 1.365363 0.0
v -0.869737 1.365363 0.02
v -0.869737 1.365363 0.0
v -0.859282 1.364141 0.02
v -0.859282 1.364141 0.0
v -0.84904 1.361714 0.02
v -0.84904 1.361714 0.0
v -0.839148 1.358114 0.02
v -0.839148 1.358114 0.0
v -0.829742 1.35339 0.02
v -0.829742 1.35339 0.0
v -0.820947 1.347605 0.02
v -0.820947 1.347605 0.0
v -0.812884 1.340839 0.02
v -0.812884 1.340839 0.0
v -0.80566 1.333183 0.02
v -0.80566 1.333183 0.0
v -0.799375 1.32474 0.02
v -0.799375 1.32474 0.0
v -0.794112 1.315624 0.02
v -0.794112 1.315624 0.0
v -0.789942 1.305958 0.02
v -0.789942 1.305958 0.0
v -0.786924 1.295874 0.02
v -0.786924 1.295874 0.0
v -0.785096 1.285508 0.02
v -0.785096 1.285508 0.0
v -0.784484 1.275 0.02
v -0.784484 1.275 0.0
v -0.785096 1.264492 0.02
v -0.785096 1.264492 0.0
v -0.786924 1.254125 0.02
v -0.786924 1.254125 0.0
v -0.789942 1.244042 0.02
v -0.789942 1.244042 0.0
v -0.794112 1.234376 0.02
v -0.794112 1.234376 0.0
v -0.799375 1.22526 0.02
v -0.799375 1.22526 0.0
v -0.80566 1.216817 0.02
v -0.80566 1.216817 0.0
v -0.812884 1.209161 0.02
v -0.812884 1.209161 0.0
v -0.820947 1.202395 0.02
v -0.820947 1.202395 0.0
v -0.829742 1.19661 0.02
v -0.829742 1.19661 0.0
v -0.839148 1.191887 0.02
v -0.839148 1.191887 0.0
v -0.84904 1.188286 0.02
v -0.84904 1.188286 0.0
v -0.859282 1.185859 0.02
v -0.859282 1.185859 0.0
v -0.869737 1.184637 0.02
v -0.869737 1.184637 0.0
v -0.880263 1.184637 0.02
v -0.880263 1.184637 0.0
v -0.890718 1.185859 0.02
v -0.890718 1.185859 0.0
v -0.90096 1.188286 0.02
v -0.90096 1.188286 0.0
v -0.910852 1.191887 0.02
v -0.910852 1.191887 0.0
v -0.920258 1.19661 0.02
v -0.920258 1.19661 0.0
v -0.929053 1.202395 0.02
v -0.929053 1.202395 0.0
v -0.937116 1.209161 0.02
v -0.937116 1.209161 0.0
v -0.94434 1.216817 0.02
v -0.94434 1.216817 0.0
v -0.950625 1.22526 0.02
v -0.950625 1.22526 0.0
v -0.955888 1.234376 0.02
v -0.955888 1.234376 0.0
v -0.960058 1.244042 0.02
v -0.960058 1.244042 0.0
v -0.963076 1.254125 0.02
v -0.963076 1.254125 0.0
v -0.964904 1.264492 0.02
v -0.964904 1.264492 0.0
v -0.965516 1.275 0.02
v -0.875 1.275 0.02
v -0.875 1.275 0.0
v 1.429053 -1.5 0.92
v 1.5 -1.5 0.92
v 1.5 -1.313057 0.92
newmtl 2
Ka 0.25098039215686274 0.25098039215686274 0.25098039215686274
Kd 0.25098039215686274 0.25098039215686274 0.25098039215686274
Ks 0.12549019607843137 0.12549019607843137 0.12549019607843137
d 0.0
endmtl
v 1.263786 -1.5 0.92
v 1.429053 -1.313057 0.92
v 1.168571 -1.5 0.92
v 1.263786 -1.313057 0.92
v -1.5 -1.5 0.92
v -0.285947 -1.5 0.92
v -0.285947 -1.313057 0.92
v 0.996469 -1.272239 0.92
v 0.991999 -1.272776 0.92
v 1.01752 -1.272776 0.92
v 0.278482 -1.147904 0.92
v 0.279855 -1.141273 0.92
v -0.285947 -1.141273 0.92
v 0.694236 -1.089122 0.92
v 0.713549 -1.105982 0.92
v 0.781016 -1.008054 0.92
v 0.781016 -1.111457 0.92
v 0.596512 -0.997543 0.92
v 0.612144 -1.008054 0.92
v 0.628757 -1.019223 0.92
v 0.652412 -1.046505 0.92
v 0.667799 -1.076339 0.92
v 0.672864 -1.078087 0.92
v 0.461227 -0.998941 0.92
v 0.494558 -0.986059 0.92
v -0.285947 -0.065814 0.92
v 0.781016 -0.065814 0.92
v 0.53043 -0.981627 0.92
v 0.56023 -0.984758 0.92
v 0.312086 -1.074893 0.92
v 0.319265 -1.068267 0.92
v -0.285947 -1.008054 0.92
v 0.446527 -1.008054 0.92
v 0.443671 -1.009824 0.92
v 0.343622 -1.052221 0.92
v 0.370664 -1.042795 0.92
v 0.39523 -1.04019 0.92
v 0.426681 -1.024374 0.92
v 0.403545 -1.040642 0.92
v 0.411859 -1.041636 0.92
v -0.285947 -1.111457 0.92
v 0.284373 -1.119455 0.92
v 0.288243 -1.111457 0.92
v 0.296722 -1.09393 0.92
v 0.366311 -1.270825 0.92
v 0.352985 -1.266572 0.92
v -0.285947 -1.272776 0.92
v 0.327382 -1.252869 0.92
v 0.308471 -1.236121 0.92
v 0.305176 -1.232299 0.92
v 0.290087 -1.208877 0.92
v 0.280701 -1.181748 0.92
v 0.278105 -1.157315 0.92
v 0.38428 -1.299574 0.92
v 0.373536 -1.286299 0.92
v 0.367222 -1.272776 0.92
v 0.464936 -1.313057 0.92
v 0.452456 -1.317843 0.92
v 0.781016 -1.5 0.92
v 0.434995 -1.319988 0.92
v 0.432159 -1.319935 0.92
v 0.415091 -1.317261 0.92
v 0.405103 -1.313057 0.92
v 0.398416 -1.310243 0.92
v 0.502758 -1.272776 0.92
v 0.502721 -1.272934 0.92
v 0.781016 -1.313057 0.92
v 0.494195 -1.289067 0.92
v 0.482989 -1.301646 0.92
v 0.468584 -1.311658 0.92
v 0.489219 -1.199248 0.92
v 0.586101 -1.148639 0.92
v 0.476615 -1.187765 0.92
v 0.461279 -1.179536 0.92
v 0.739297 -1.175042 0.92
v 0.735555 -1.198706 0.92
v 0.781016 -1.272776 0.92
v 0.726065 -1.221376 0.92
v 0.691395 -1.257383 0.92
v 0.669184 -1.267755 0.92
v 0.646832 -1.272271 0.92
v 0.694209 -1.165554 0.92
v 0.690841 -1.15166 0.92
v 0.685269 -1.141273 0.92
v 0.325448 -1.141273 0.92
v 0.591473 -1.267135 0.92
v 0.588705 -1.264406 0.92
v 0.590977 -1.23295 0.92
v 0.595477 -1.229903 0.92
v 0.608513 -1.186957 0.92
v 0.600472 -1.228051 0.92
v 0.736456 -1.148947 0.92
v 0.739375 -1.171052 0.92
v 0.781016 -1.141273 0.92
v 0.712624 -1.239736 0.92
v 0.710408 -1.242066 0.92
v 0.604176 -1.272271 0.92
v 0.601159 -1.271863 0.92
v 0.596332 -1.270241 0.92
v 0.329649 -1.184582 0.92
v 0.338343 -1.199398 0.92
v 0.375055 -1.206796 0.92
v 0.351312 -1.212707 0.92
v 0.367034 -1.222384 0.92
v 0.401808 -1.182879 0.92
v 0.387017 -1.193139 0.92
v 0.323654 -1.155869 0.92
v 0.324497 -1.166872 0.92
v 0.583209 -1.249858 0.92
v 0.583312 -1.247717 0.92
v 0.507294 -1.240459 0.92
v 0.584584 -1.242171 0.92
v 0.587221 -1.23713 0.92
v 0.417781 -1.176782 0.92
v 0.434995 -1.174667 0.92
v 0.443831 -1.175193 0.92
v 0.585636 -1.259831 0.92
v 0.583812 -1.254912 0.92
v 0.506917 -1.255077 0.92
v 0.507294 -1.247689 0.92
v 0.605621 -1.227445 0.92
v 0.606325 -1.227496 0.92
v 0.608494 -1.227976 0.92
v 0.679895 -1.209993 0.92
v 0.687844 -1.198712 0.92
v 0.692821 -1.185825 0.92
v 0.69455 -1.171775 0.92
v 0.609959 -1.228168 0.92
v 0.642494 -1.228168 0.92
v 0.655384 -1.22571 0.92
v 0.668151 -1.21982 0.92
v 0.678856 -1.211107 0.92
v 0.632372 -1.115381 0.92
v 0.331984 -1.12228 0.92
v 0.3258 -1.138407 0.92
v 0.638156 -1.115381 0.92
v 0.684141 -1.139169 0.92
v 0.675711 -1.129744 0.92
v 0.664494 -1.121921 0.92
v 0.651873 -1.117069 0.92
v 0.339506 -1.111457 0.92
v 0.434272 -1.094414 0.92
v 0.428939 -1.091507 0.92
v 0.620051 -1.077359 0.92
v 0.604912 -1.056859 0.92
v 0.597086 -1.049437 0.92
v 0.576541 -1.035779 0.92
v 0.553723 -1.027554 0.92
v 0.412722 -1.085625 0.92
v 0.395953 -1.08357 0.92
v 0.388565 -1.083947 0.92
v 0.631638 -1.111457 0.92
v 0.629743 -1.101324 0.92
v 0.531153 -1.025007 0.92
v 0.527375 -1.025074 0.92
v 0.444112 -1.073457 0.92
v 0.503304 -1.02877 0.92
v 0.45987 -1.053756 0.92
v 0.479794 -1.038649 0.92
v 0.370709 -1.088143 0.92
v 0.354575 -1.096669 0.92
v 0.341996 -1.107874 0.92
v 0.71735 -1.111457 0.92
v 0.727983 -1.126774 0.92
v 0.733523 -1.141273 0.92
v 1.158966 -1.260325 0.92
v 1.158966 -1.271918 0.92
v 1.168571 -1.272776 0.92
v 1.136442 -1.272776 0.92
v 1.117401 -1.226117 0.92
v 1.117401 -1.260325 0.92
v 1.136442 -1.226117 0.92
v 1.136442 -1.260325 0.92
v 1.153767 -1.226117 0.92
v 1.153767 -1.214472 0.92
v 1.117401 -1.181927 0.92
v 1.117401 -1.214472 0.92
v 1.136442 -1.181927 0.92
v 1.136442 -1.214472 0.92
v 1.156652 -1.181927 0.92
v 1.136442 -1.271918 0.92
v 1.104274 -1.271918 0.92
v 1.097412 -1.272776 0.92
v 1.104274 -1.17023 0.92
v 0.969734 -1.259086 0.92
v 0.971043 -1.259597 0.92
v 0.971043 -1.232633 0.92
v 0.968846 -1.23038 0.92
v 0.967338 -1.228022 0.92
v 0.965155 -1.256218 0.92
v 0.960866 -1.141273 0.92
v 0.967113 -1.210506 0.92
v 0.9694 -1.207048 0.92
v 0.97093 -1.232559 0.92
v 0.971043 -1.141273 0.92
v 0.965868 -1.224193 0.92
v 0.965233 -1.21889 0.92
v 0.965673 -1.214615 0.92
v 0.965155 -1.269371 0.92
v 0.960866 -1.272776 0.92
v 0.971043 -1.271442 0.92
v 0.971043 -1.272776 0.92
v 0.974068 -1.272507 0.92
v 0.976643 -1.272776 0.92
v 0.984858 -1.273634 0.92
v 0.971043 -1.313057 0.92
v 1.01752 -1.313057 0.92
v 1.010722 -1.200851 0.92
v 1.010722 -1.213224 0.92
v 1.012206 -1.260993 0.92
v 1.009921 -1.26438 0.92
v 0.971043 -1.205547 0.92
v 0.973395 -1.203398 0.92
v 0.976471 -1.201504 0.92
v 1.013683 -1.256935 0.92
v 0.983284 -1.19886 0.92
v 0.993514 -1.197627 0.92
v 1.01752 -1.141273 0.92
v 1.00245 -1.19842 0.92
v 1.006017 -1.267863 0.92
v 1.003142 -1.269638 0.92
v 1.009942 -1.240153 0.92
v 1.012138 -1.243311 0.92
v 1.013575 -1.247 0.92
v 1.014205 -1.252163 0.92
v 0.992267 -1.207973 0.92
v 0.988496 -1.208256 0.92
v 0.97836 -1.217747 0.92
v 0.985089 -1.209158 0.92
v 0.982233 -1.210676 0.92
v 0.978476 -1.219441 0.92
v 0.978981 -1.22142 0.92
v 0.979899 -1.223138 0.92
v 0.981141 -1.224505 0.92
v 0.985632 -1.227312 0.92
v 1.001176 -1.209058 0.92
v 0.993514 -1.230744 0.92
v 1.008381 -1.211852 0.92
v 0.998446 -1.232739 0.92
v 1.006905 -1.237444 0.92
v 0.980311 -1.212375 0.92
v 0.979219 -1.213996 0.92
v 0.97859 -1.215715 0.92
v 0.977701 -1.262199 0.92
v 0.98452 -1.239998 0.92
v 0.976928 -1.236518 0.92
v 0.986106 -1.263236 0.92
v 0.986669 -1.263233 0.92
v 0.992884 -1.2435 0.92
v 0.993198 -1.262501 0.92
v 1.00113 -1.25341 0.92
v 1.001006 -1.251826 0.92
v 0.996484 -1.261298 0.92
v 0.997646 -1.260593 0.92
v 0.999107 -1.259296 0.92
v 1.000219 -1.257652 0.92
v 1.000867 -1.25584 0.92
v 1.000427 -1.249837 0.92
v 0.999442 -1.248149 0.92
v 0.997855 -1.246496 0.92
v 1.263786 -1.111457 0.92
v 1.230761 -1.1106 0.92
v 1.216256 -1.1106 0.92
v 1.205885 -1.082786 0.92
v 1.168571 -1.082786 0.92
v 1.168571 -1.111457 0.92
v 1.19203 -1.008911 0.92
v 1.263786 -1.008054 0.92
v 1.168571 -1.008054 0.92
v 1.163541 -1.082786 0.92
v 1.153767 -1.1106 0.92
v 1.136442 -1.111457 0.92
v 1.139262 -1.1106 0.92
v 1.136442 -1.008054 0.92
v 1.168571 -1.033651 0.92
v 1.177993 -1.008911 0.92
v 1.050831 -1.1106 0.92
v 1.050831 -1.008911 0.92
v 1.029308 -1.020609 0.92
v 1.029308 -1.008911 0.92
v 1.07984 -1.008911 0.92
v 1.097412 -1.008054 0.92
v 1.01752 -1.008054 0.92
v 1.01752 -1.008911 0.92
v 1.01752 -1.111457 0.92
v 1.097412 -1.111457 0.92
v 1.031621 -1.1106 0.92
v 1.096238 -1.108453 0.92
v 1.0788 -1.1106 0.92
v 1.031621 -1.099006 0.92
v 1.130862 -1.076811 0.92
v 1.12586 -1.087332 0.92
v 1.12179 -1.025796 0.92
v 1.128106 -1.034636 0.92
v 1.118285 -1.096355 0.92
v 1.107799 -1.103898 0.92
v 1.097412 -1.10799 0.92
v 1.118285 -1.022376 0.92
v 1.095359 -1.010624 0.92
v 1.097412 -1.011374 0.92
v 1.107633 -1.015106 0.92
v 1.131892 -1.044311 0.92
v 1.133622 -1.058456 0.92
v 1.133319 -1.0649 0.92
v 0.990057 -1.064798 0.92
v 0.990057 -1.099006 0.92
v 1.01752 -1.064798 0.92
v 1.01752 -1.099006 0.92
v 1.026423 -1.064798 0.92
v 1.026423 -1.053153 0.92
v 1.01752 -1.053153 0.92
v 1.01752 -1.020609 0.92
v 0.990057 -1.053153 0.92
v 0.990057 -1.020609 0.92
v 0.97693 -1.008911 0.92
v 0.971043 -1.008054 0.92
v 0.97693 -1.1106 0.92
v 0.960866 -1.111457 0.92
v 0.956577 -1.025079 0.92
v 0.956577 -1.093807 0.92
v 0.955444 -1.024468 0.92
v 0.952236 -1.095759 0.92
v 0.952236 -1.023247 0.92
v 0.946611 -1.098288 0.92
v 0.935117 -1.100438 0.92
v 0.899243 -1.083026 0.92
v 0.904199 -1.089908 0.92
v 0.906175 -1.091865 0.92
v 0.912813 -1.096568 0.92
v 0.904901 -1.03033 0.92
v 0.899375 -1.038006 0.92
v 0.911834 -1.024609 0.92
v 0.919831 -1.020908 0.92
v 0.94513 -1.020544 0.92
v 0.93261 -1.019049 0.92
v 0.894328 -1.064651 0.92
v 0.928679 -1.019206 0.92
v 0.894217 -1.060899 0.92
v 0.895941 -1.046746 0.92
v 0.920052 -1.099374 0.92
v 0.930323 -1.100618 0.92
v 0.895956 -1.074827 0.92
v 0.956577 -1.011355 0.92
v 0.960866 -1.008054 0.92
v 0.952236 -1.010093 0.92
v 0.952236 -1.008054 0.92
v 0.94597 -1.008272 0.92
v 0.94327 -1.008054 0.92
v 0.932691 -1.007196 0.92
v 0.952236 -0.065814 0.92
v 0.93248 -1.007196 0.92
v 0.878894 -0.065814 0.92
v 0.925488 -1.008054 0.92
v 0.919532 -1.111457 0.92
v 0.911275 -1.109759 0.92
v 0.878894 -1.111457 0.92
v 0.901677 -1.105236 0.92
v 0.89349 -1.098434 0.92
v 0.878894 -1.008054 0.92
v 0.887751 -1.031806 0.92
v 0.895127 -1.022168 0.92
v 0.891889 -1.096641 0.92
v 0.88603 -1.087772 0.92
v 0.882102 -1.076861 0.92
v 0.897544 -1.019856 0.92
v 0.907049 -1.013162 0.92
v 0.917657 -1.009014 0.92
v 0.880441 -1.061679 0.92
v 0.880619 -1.05638 0.92
v 0.882923 -1.043102 0.92
v 0.922298 -1.112026 0.92
v 0.878894 -1.141273 0.92
v 0.928425 -1.112315 0.92
v 0.952236 -1.141273 0.92
v 0.937398 -1.111457 0.92
v 0.956577 -1.106389 0.92
v 0.954842 -1.107253 0.92
v 0.952236 -1.111457 0.92
v 0.952236 -1.108108 0.92
v 0.943924 -1.110834 0.92
v 0.877347 -1.260325 0.92
v 0.877347 -1.271918 0.92
v 0.878894 -1.272776 0.92
v 0.822656 -1.271918 0.92
v 0.876814 -1.272776 0.92
v 0.876814 -1.271918 0.92
v 0.822656 -1.17023 0.92
v 0.875034 -1.17023 0.92
v 0.875034 -1.181927 0.92
v 0.876814 -1.141273 0.92
v 0.876814 -1.260325 0.92
v 0.835783 -1.226117 0.92
v 0.835783 -1.260325 0.92
v 0.872149 -1.226117 0.92
v 0.872149 -1.214472 0.92
v 0.835783 -1.214472 0.92
v 0.835783 -1.181927 0.92
v 0.9053 -1.272776 0.92
v 0.90472 -1.272689 0.92
v 0.896635 -1.204386 0.92
v 0.896635 -1.216759 0.92
v 0.947895 -1.225181 0.92
v 0.947895 -1.271918 0.92
v 0.952236 -1.272776 0.92
v 0.935158 -1.271918 0.92
v 0.899877 -1.270808 0.92
v 0.895777 -1.267915 0.92
v 0.894381 -1.266503 0.92
v 0.934583 -1.199907 0.92
v 0.938832 -1.202308 0.92
v 0.891728 -1.2626 0.92
v 0.890178 -1.258303 0.92
v 0.889538 -1.252475 0.92
v 0.929181 -1.198294 0.92
v 0.942244 -1.205535 0.92
v 0.944862 -1.209623 0.92
v 0.946872 -1.215368 0.92
v 0.935158 -1.260689 0.92
v 0.93482 -1.260689 0.92
v 0.932699 -1.263891 0.92
v 0.928656 -1.268173 0.92
v 0.889573 -1.250969 0.92
v 0.890379 -1.245464 0.92
v 0.892121 -1.240969 0.92
v 0.894662 -1.237319 0.92
v 0.898559 -1.233932 0.92
v 0.903976 -1.231151 0.92
v 0.905469 -1.211214 0.92
v 0.913635 -1.228768 0.92
v 0.924833 -1.208442 0.92
v 0.920445 -1.207973 0.92
v 0.913449 -1.208641 0.92
v 0.899181 -1.202907 0.92
v 0.908637 -1.199218 0.92
v 0.921641 -1.197627 0.92
v 0.935158 -1.225753 0.92
v 0.934732 -1.220223 0.92
v 0.933424 -1.215646 0.92
v 0.931935 -1.213008 0.92
v 0.930018 -1.21095 0.92
v 0.927768 -1.209483 0.92
v 0.919392 -1.272776 0.92
v 0.918766 -1.272991 0.92
v 0.952236 -1.313057 0.92
v 0.878894 -1.313057 0.92
v 0.912569 -1.273634 0.92
v 0.910748 -1.273589 0.92
v 1.077345 -1.199291 0.92
v 1.09055 -1.199291 0.92
v 1.097412 -1.141273 0.92
v 1.136442 -1.141273 0.92
v 1.136442 -1.17023 0.92
v 1.168571 -1.141273 0.92
v 1.156652 -1.17023 0.92
v 1.048894 -1.272776 0.92
v 1.049323 -1.271762 0.92
v 1.020834 -1.199291 0.92
v 1.035079 -1.199291 0.92
v 1.054054 -1.253878 0.92
v 1.057511 -1.253982 0.92
v 1.055614 -1.259857 0.92
v 1.055952 -1.259857 0.92
v 1.056537 -1.257368 0.92
v 1.097412 -1.313057 0.92
v 1.036985 -1.305494 0.92
v 1.031673 -1.306126 0.92
v 1.028796 -1.30602 0.92
v 1.023459 -1.305086 0.92
v 1.023459 -1.293753 0.92
v 1.026065 -1.294607 0.92
v 1.030686 -1.295209 0.92
v 1.051427 -1.294692 0.92
v 1.046748 -1.300103 0.92
v 1.033123 -1.294996 0.92
v 1.035926 -1.29412 0.92
v 1.038311 -1.292661 0.92
v 1.046434 -1.300387 0.92
v 1.041995 -1.303539 0.92
v 1.04095 -1.289938 0.92
v 1.043735 -1.284967 0.92
v 1.061576 -1.272776 0.92
v 1.057589 -1.282888 0.92
v 1.057564 -1.282952 0.92
v 1.168571 -1.313057 0.92
v 1.136442 -1.5 0.92
v 1.136442 -1.313057 0.92
v 1.097412 -1.5 0.92
v 1.01752 -1.5 0.92
v 0.971043 -1.5 0.92
v 0.960866 -1.5 0.92
v 0.960866 -1.313057 0.92
v 0.952236 -1.5 0.92
v 0.878894 -1.5 0.92
v 0.876814 -1.5 0.92
v 0.876814 -1.313057 0.92
v 0.923994 -1.271192 0.92
v 1.429053 -1.272776 0.92
v 1.263786 -1.272776 0.92
v 1.178175 -1.271918 0.92
v 1.258206 -1.238129 0.92
v 1.253205 -1.248651 0.92
v 1.24563 -1.257673 0.92
v 1.25545 -1.195955 0.92
v 1.259237 -1.205629 0.92
v 1.263786 -1.141273 0.92
v 1.260966 -1.219774 0.92
v 1.260664 -1.226219 0.92
v 1.235143 -1.265216 0.92
v 1.223583 -1.269771 0.92
v 1.206145 -1.271918 0.92
v 1.178175 -1.17023 0.92
v 1.207185 -1.17023 0.92
v 1.222704 -1.171943 0.92
v 1.234977 -1.176424 0.92
v 1.24563 -1.183695 0.92
v 1.249134 -1.187114 0.92
v 1.333229 -1.244105 0.92
v 1.290885 -1.244105 0.92
v 1.343601 -1.271918 0.92
v 1.281111 -1.271918 0.92
v 1.358105 -1.271918 0.92
v 1.266607 -1.271918 0.92
v 1.305338 -1.17023 0.92
v 1.319374 -1.17023 0.92
v 0.876814 -1.111457 0.92
v 0.971043 -1.111457 0.92
v 0.876281 -1.099006 0.92
v 0.876281 -1.1106 0.92
v 0.822656 -1.1106 0.92
v 0.835783 -1.008911 0.92
v 0.876814 -1.008054 0.92
v 0.822656 -1.008911 0.92
v 0.835783 -1.099006 0.92
v 1.01752 -1.1106 0.92
v 1.429053 -1.141273 0.92
v 1.429053 -1.111457 0.92
v 1.429053 -1.008054 0.92
v 1.5 -1.272776 0.92
v 1.5 -1.141273 0.92
v 1.5 -1.111457 0.92
v 1.5 -1.008054 0.92
v 0.876814 -0.065814 0.92
v 1.5 -0.065814 0.92
v 1.429053 -0.065814 0.92
v 1.263786 -0.065814 0.92
v 1.168571 -0.065814 0.92
v 1.136442 -0.065814 0.92
v 1.097412 -0.065814 0.92
v 1.01752 -0.065814 0.92
v 0.971043 -0.065814 0.92
v 0.960866 -0.065814 0.92
v -0.85 1.0 0.92
v -0.855111 0.961177 0.92
v -0.870096 0.925 0.92
v -0.893934 0.893934 0.92
v -0.925 0.870096 0.92
v -0.961177 0.855111 0.92
v -1.0 0.85 0.92
v -1.038823 0.855111 0.92
v -1.5 -0.065814 0.92
v -1.075 0.870096 0.92
v -1.106066 0.893934 0.92
v -1.5 -1.313057 0.92
v -1.5 -1.272776 0.92
v -1.5 -1.141273 0.92
v -1.5 -1.111457 0.92
v -1.5 -1.008054 0.92
v -1.144889 1.038823 0.92
v -1.129904 1.075 0.92
v -1.5 1.5 0.92
v -1.106066 1.106066 0.92
v -1.075 1.129904 0.92
v -1.038823 1.144889 0.92
v -1.0 1.15 0.92
v -0.285947 1.5 0.92
v -0.961177 1.144889 0.92
v -0.925 1.129904 0.92
v -0.893934 1.106066 0.92
v -0.870096 1.075 0.92
v -0.855111 1.038823 0.92
v -1.129904 0.925 0.92
v -1.144889 0.961177 0.92
v -1.15 1.0 0.92
v 1.5 1.5 0.92
v 1.429053 1.5 0.92
v 1.263786 1.5 0.92
v 1.168571 1.5 0.92
v 1.136442 1.5 0.92
v 1.097412 1.5 0.92
v 1.01752 1.5 0.92
v 0.971043 1.5 0.92
v 0.960866 1.5 0.92
v 0.952236 1.5 0.92
v 0.878894 1.5 0.92
v 0.876814 1.5 0.92
v 0.781016 1.5 0.92
v 1.5 1.5 0.02
v 1.5 -1.5 0.02
v -1.5 1.5 0.02
v -1.5 -1.5 0.02
v -0.85 1.0 0.91
v -0.855111 1.038823 0.91
newmtl 3
Ka 0.6666666666666666 0.6666666666666666 0.6666666666666666
Kd 0.6666666666666666 0.6666666666666666 0.6666666666666666
Ks 0.3333333333333333 0.3333333333333333 0.3333333333333333
d 0.0
endmtl
v -0.870096 1.075 0.91
v -0.893934 1.106066 0.91
v -0.925 1.129904 0.91
v -0.961177 1.144889 0.91
v -1.0 1.15 0.91
v -1.038823 1.144889 0.91
v -1.075 1.129904 0.91
v -1.106066 1.106066 0.91
v -1.129904 1.075 0.91
v -1.144889 1.038823 0.91
v -1.15 1.0 0.91
v -1.144889 0.961177 0.91
v -1.129904 0.925 0.91
v -1.106066 0.893934 0.91
v -1.075 0.870096 0.91
v -1.038823 0.855111 0.91
v -1.0 0.85 0.91
v -0.961177 0.855111 0.91
v -0.925 0.870096 0.91
v -0.893934 0.893934 0.91
v -0.870096 0.925 0.91
v -0.855111 0.961177 0.91
v -1.0 1.0 0.91
v 0.876281 -1.099006 0.921
v 0.876281 -1.1106 0.921
newmtl 4
Ka 1.0 1.0 1.0
Kd 1.0 1.0 1.0
Ks 0.5019607843137255 0.5019607843137255 0.5019607843137255
d 0.0
endmtl
v 0.835783 -1.099006 0.921
v 0.835783 -1.008911 0.921
v 0.822656 -1.008911 0.921
v 0.822656 -1.1106 0.921
v 0.954842 -1.107253 0.921
v 0.943924 -1.110834 0.921
v 0.928425 -1.112315 0.921
v 0.956577 -1.106389 0.921
v 0.956577 -1.093807 0.921
v 0.946611 -1.098288 0.921
v 0.935117 -1.100438 0.921
v 0.930323 -1.100618 0.921
v 0.920052 -1.099374 0.921
v 0.912813 -1.096568 0.921
v 0.906175 -1.091865 0.921
v 0.904199 -1.089908 0.921
v 0.899243 -1.083026 0.921
v 0.895956 -1.074827 0.921
v 0.894328 -1.064651 0.921
v 0.894217 -1.060899 0.921
v 0.895941 -1.046746 0.921
v 0.899375 -1.038006 0.921
v 0.904901 -1.03033 0.921
v 0.911834 -1.024609 0.921
v 0.919831 -1.020908 0.921
v 0.928679 -1.019206 0.921
v 0.93261 -1.019049 0.921
v 0.956577 -1.025079 0.921
v 0.955444 -1.024468 0.921
v 0.94513 -1.020544 0.921
v 0.956577 -1.011355 0.921
v 0.93248 -1.007196 0.921
v 0.932691 -1.007196 0.921
v 0.94597 -1.008272 0.921
v 0.917657 -1.009014 0.921
v 0.907049 -1.013162 0.921
v 0.897544 -1.019856 0.921
v 0.895127 -1.022168 0.921
v 0.887751 -1.031806 0.921
v 0.882923 -1.043102 0.921
v 0.880619 -1.05638 0.921
v 0.880441 -1.061679 0.921
v 0.882102 -1.076861 0.921
v 0.88603 -1.087772 0.921
v 0.891889 -1.096641 0.921
v 0.89349 -1.098434 0.921
v 0.901677 -1.105236 0.921
v 0.922298 -1.112026 0.921
v 0.911275 -1.109759 0.921
v 1.031621 -1.099006 0.921
v 1.031621 -1.1106 0.921
v 0.990057 -1.099006 0.921
v 0.990057 -1.064798 0.921
v 1.026423 -1.064798 0.921
v 1.026423 -1.053153 0.921
v 0.990057 -1.053153 0.921
v 0.990057 -1.020609 0.921
v 1.029308 -1.020609 0.921
v 1.029308 -1.008911 0.921
v 0.97693 -1.008911 0.921
v 0.97693 -1.1106 0.921
v 1.114016 -1.082119 0.921
v 1.108953 -1.088401 0.921
v 1.118285 -1.096355 0.921
v 1.107081 -1.0901 0.921
v 1.107799 -1.103898 0.921
v 1.100346 -1.094511 0.921
v 1.096238 -1.108453 0.921
v 1.09165 -1.097614 0.921
v 1.0788 -1.1106 0.921
v 1.078722 -1.099006 0.921
v 1.050831 -1.1106 0.921
v 1.063958 -1.099006 0.921
v 1.050831 -1.008911 0.921
v 1.063958 -1.020609 0.921
v 1.07984 -1.008911 0.921
v 1.07932 -1.020609 0.921
v 1.095359 -1.010624 0.921
v 1.092411 -1.022053 0.921
v 1.107633 -1.015106 0.921
v 1.101232 -1.025234 0.921
v 1.118285 -1.022376 0.921
v 1.108667 -1.030174 0.921
v 1.12179 -1.025796 0.921
v 1.112007 -1.033554 0.921
v 1.128106 -1.034636 0.921
v 1.115824 -1.039406 0.921
v 1.131892 -1.044311 0.921
v 1.118563 -1.047104 0.921
v 1.133622 -1.058456 0.921
v 1.119819 -1.05882 0.921
v 1.133319 -1.0649 0.921
v 1.119484 -1.065246 0.921
v 1.130862 -1.076811 0.921
v 1.117514 -1.074565 0.921
v 1.12586 -1.087332 0.921
v 1.07932 -1.020609 0.92
v 1.063958 -1.020609 0.92
v 1.063958 -1.099006 0.92
v 1.078722 -1.099006 0.92
v 1.108953 -1.088401 0.92
v 1.107081 -1.0901 0.92
v 1.100346 -1.094511 0.92
v 1.09165 -1.097614 0.92
v 1.119819 -1.05882 0.92
v 1.119484 -1.065246 0.92
v 1.117514 -1.074565 0.92
v 1.114016 -1.082119 0.92
v 1.108667 -1.030174 0.92
v 1.112007 -1.033554 0.92
v 1.115824 -1.039406 0.92
v 1.118563 -1.047104 0.92
v 1.092411 -1.022053 0.92
v 1.101232 -1.025234 0.92
v 1.1677 -1.071297 0.921
v 1.163541 -1.082786 0.921
v 1.20183 -1.071297 0.921
v 1.205885 -1.082786 0.921
v 1.182906 -1.029031 0.921
v 1.177993 -1.008911 0.921
v 1.139262 -1.1106 0.921
v 1.153767 -1.1106 0.921
v 1.183787 -1.025996 0.921
v 1.18457 -1.021908 0.921
v 1.19203 -1.008911 0.921
v 1.184882 -1.021908 0.921
v 1.185704 -1.02621 0.921
v 1.186467 -1.029031 0.921
v 1.230761 -1.1106 0.921
v 1.216256 -1.1106 0.921
v 1.1677 -1.071297 0.92
v 1.20183 -1.071297 0.92
v 1.186467 -1.029031 0.92
v 1.184882 -1.021908 0.92
v 1.185704 -1.02621 0.92
v 1.18457 -1.021908 0.92
v 1.182906 -1.029031 0.92
v 1.183787 -1.025996 0.92
v 0.877347 -1.260325 0.921
v 0.877347 -1.271918 0.921
v 0.835783 -1.260325 0.921
v 0.835783 -1.226117 0.921
v 0.872149 -1.226117 0.921
v 0.872149 -1.214472 0.921
v 0.835783 -1.214472 0.921
v 0.835783 -1.181927 0.921
v 0.875034 -1.181927 0.921
v 0.875034 -1.17023 0.921
v 0.822656 -1.17023 0.921
v 0.822656 -1.271918 0.921
v 0.918158 -1.237762 0.921
v 0.935158 -1.235475 0.921
v 0.947895 -1.225181 0.921
v 0.935158 -1.271918 0.921
v 0.947895 -1.271918 0.921
v 0.935158 -1.260689 0.921
v 0.935158 -1.225753 0.921
v 0.907555 -1.240922 0.921
v 0.910613 -1.239491 0.921
v 0.93482 -1.260689 0.921
v 0.928382 -1.25857 0.921
v 0.932699 -1.263891 0.921
v 0.924842 -1.261071 0.921
v 0.935158 -1.242441 0.921
v 0.934422 -1.248604 0.921
v 0.932634 -1.253195 0.921
v 0.929699 -1.257258 0.921
v 0.911568 -1.262699 0.921
v 0.912569 -1.273634 0.921
v 0.91587 -1.263184 0.921
v 0.918766 -1.272991 0.921
v 0.921034 -1.262553 0.921
v 0.923994 -1.271192 0.921
v 0.928656 -1.268173 0.921
v 0.934732 -1.220223 0.921
v 0.946872 -1.215368 0.921
v 0.933424 -1.215646 0.921
v 0.944862 -1.209623 0.921
v 0.931935 -1.213008 0.921
v 0.942244 -1.205535 0.921
v 0.930018 -1.21095 0.921
v 0.938832 -1.202308 0.921
v 0.927768 -1.209483 0.921
v 0.934583 -1.199907 0.921
v 0.924833 -1.208442 0.921
v 0.929181 -1.198294 0.921
v 0.920445 -1.207973 0.921
v 0.921641 -1.197627 0.921
v 0.913449 -1.208641 0.921
v 0.908637 -1.199218 0.921
v 0.905469 -1.211214 0.921
v 0.899181 -1.202907 0.921
v 0.896635 -1.216759 0.921
v 0.896635 -1.204386 0.921
v 0.905065 -1.25882 0.921
v 0.895777 -1.267915 0.921
v 0.906149 -1.259909 0.921
v 0.899877 -1.270808 0.921
v 0.908687 -1.261642 0.921
v 0.90472 -1.272689 0.921
v 0.910748 -1.273589 0.921
v 0.902565 -1.249413 0.921
v 0.889573 -1.250969 0.921
v 0.902457 -1.251435 0.921
v 0.889538 -1.252475 0.921
v 0.902781 -1.254359 0.921
v 0.890178 -1.258303 0.921
v 0.903618 -1.256673 0.921
v 0.891728 -1.2626 0.921
v 0.894381 -1.266503 0.921
v 0.913635 -1.228768 0.921
v 0.903976 -1.231151 0.921
v 0.905837 -1.242233 0.921
v 0.898559 -1.233932 0.921
v 0.904312 -1.24412 0.921
v 0.894662 -1.237319 0.921
v 0.903194 -1.246496 0.921
v 0.892121 -1.240969 0.921
v 0.890379 -1.245464 0.921
v 0.905837 -1.242233 0.92
v 0.907555 -1.240922 0.92
v 0.910613 -1.239491 0.92
v 0.918158 -1.237762 0.92
v 0.902457 -1.251435 0.92
v 0.902565 -1.249413 0.92
v 0.903194 -1.246496 0.92
v 0.904312 -1.24412 0.92
v 0.906149 -1.259909 0.92
v 0.905065 -1.25882 0.92
v 0.903618 -1.256673 0.92
v 0.902781 -1.254359 0.92
v 0.91587 -1.263184 0.92
v 0.911568 -1.262699 0.92
v 0.908687 -1.261642 0.92
v 0.929699 -1.257258 0.92
v 0.928382 -1.25857 0.92
v 0.924842 -1.261071 0.92
v 0.921034 -1.262553 0.92
v 0.935158 -1.242441 0.92
v 0.934422 -1.248604 0.92
v 0.932634 -1.253195 0.92
v 0.935158 -1.235475 0.92
v 0.986106 -1.263236 0.921
v 0.969734 -1.259086 0.921
v 0.977701 -1.262199 0.921
v 0.965155 -1.256218 0.921
v 0.965155 -1.269371 0.921
v 0.974068 -1.272507 0.921
v 0.984858 -1.273634 0.921
v 0.996469 -1.272239 0.921
v 1.003142 -1.269638 0.921
v 1.006017 -1.267863 0.921
v 1.009921 -1.26438 0.921
v 1.012206 -1.260993 0.921
v 1.013683 -1.256935 0.921
v 1.014205 -1.252163 0.921
v 1.013575 -1.247 0.921
v 1.012138 -1.243311 0.921
v 1.009942 -1.240153 0.921
v 1.006905 -1.237444 0.921
v 0.998446 -1.232739 0.921
v 0.993514 -1.230744 0.921
v 0.985632 -1.227312 0.921
v 0.981141 -1.224505 0.921
v 0.979899 -1.223138 0.921
v 0.978981 -1.22142 0.921
v 0.978476 -1.219441 0.921
v 0.97836 -1.217747 0.921
v 0.97859 -1.215715 0.921
v 0.979219 -1.213996 0.921
v 0.980311 -1.212375 0.921
v 0.982233 -1.210676 0.921
v 0.985089 -1.209158 0.921
v 0.988496 -1.208256 0.921
v 0.992267 -1.207973 0.921
v 1.001176 -1.209058 0.921
v 1.008381 -1.211852 0.921
v 1.010722 -1.213224 0.921
v 1.010722 -1.200851 0.921
v 1.00245 -1.19842 0.921
v 0.993514 -1.197627 0.921
v 0.983284 -1.19886 0.921
v 0.976471 -1.201504 0.921
v 0.973395 -1.203398 0.921
v 0.9694 -1.207048 0.921
v 0.967113 -1.210506 0.921
v 0.965673 -1.214615 0.921
v 0.965233 -1.21889 0.921
v 0.965868 -1.224193 0.921
v 0.967338 -1.228022 0.921
v 0.968846 -1.23038 0.921
v 0.98452 -1.239998 0.921
v 0.976928 -1.236518 0.921
v 0.97093 -1.232559 0.921
v 0.992884 -1.2435 0.921
v 0.997855 -1.246496 0.921
v 0.999442 -1.248149 0.921
v 1.000427 -1.249837 0.921
v 1.001006 -1.251826 0.921
v 1.00113 -1.25341 0.921
v 1.000867 -1.25584 0.921
v 1.000219 -1.257652 0.921
v 0.999107 -1.259296 0.921
v 0.997646 -1.260593 0.921
v 0.996484 -1.261298 0.921
v 0.993198 -1.262501 0.921
v 0.986669 -1.263233 0.921
v 1.077345 -1.199291 0.921
v 1.09055 -1.199291 0.921
v 1.057511 -1.253982 0.921
v 1.056537 -1.257368 0.921
v 1.055952 -1.259857 0.921
v 1.055614 -1.259857 0.921
v 1.054054 -1.253878 0.921
v 1.035079 -1.199291 0.921
v 1.020834 -1.199291 0.921
v 1.049323 -1.271762 0.921
v 1.043735 -1.284967 0.921
v 1.04095 -1.289938 0.921
v 1.038311 -1.292661 0.921
v 1.035926 -1.29412 0.921
v 1.033123 -1.294996 0.921
v 1.030686 -1.295209 0.921
v 1.026065 -1.294607 0.921
v 1.023459 -1.293753 0.921
v 1.023459 -1.305086 0.921
v 1.028796 -1.30602 0.921
v 1.031673 -1.306126 0.921
v 1.036985 -1.305494 0.921
v 1.041995 -1.303539 0.921
v 1.046434 -1.300387 0.921
v 1.046748 -1.300103 0.921
v 1.051427 -1.294692 0.921
v 1.057564 -1.282952 0.921
v 1.057589 -1.282888 0.921
v 1.158966 -1.260325 0.921
v 1.158966 -1.271918 0.921
v 1.117401 -1.260325 0.921
v 1.117401 -1.226117 0.921
v 1.153767 -1.226117 0.921
v 1.153767 -1.214472 0.921
v 1.117401 -1.214472 0.921
v 1.117401 -1.181927 0.921
v 1.156652 -1.181927 0.921
v 1.156652 -1.17023 0.921
v 1.104274 -1.17023 0.921
v 1.104274 -1.271918 0.921
v 1.24136 -1.243437 0.921
v 1.236298 -1.249719 0.921
v 1.24563 -1.257673 0.921
v 1.234425 -1.251419 0.921
v 1.235143 -1.265216 0.921
v 1.22769 -1.255829 0.921
v 1.223583 -1.269771 0.921
v 1.218994 -1.258932 0.921
v 1.206145 -1.271918 0.921
v 1.206067 -1.260325 0.921
v 1.178175 -1.271918 0.921
v 1.191302 -1.260325 0.921
v 1.178175 -1.17023 0.921
v 1.191302 -1.181927 0.921
v 1.207185 -1.17023 0.921
v 1.206665 -1.181927 0.921
v 1.222704 -1.171943 0.921
v 1.219755 -1.183372 0.921
v 1.234977 -1.176424 0.921
v 1.228576 -1.186553 0.921
v 1.24563 -1.183695 0.921
v 1.236012 -1.191493 0.921
v 1.249134 -1.187114 0.921
v 1.239351 -1.194872 0.921
v 1.25545 -1.195955 0.921
v 1.243168 -1.200724 0.921
v 1.259237 -1.205629 0.921
v 1.245907 -1.208423 0.921
v 1.260966 -1.219774 0.921
v 1.247163 -1.220138 0.921
v 1.260664 -1.226219 0.921
v 1.246828 -1.226564 0.921
v 1.258206 -1.238129 0.921
v 1.244858 -1.235884 0.921
v 1.253205 -1.248651 0.921
v 1.206665 -1.181927 0.92
v 1.191302 -1.181927 0.92
v 1.191302 -1.260325 0.92
v 1.206067 -1.260325 0.92
v 1.236298 -1.249719 0.92
v 1.234425 -1.251419 0.92
v 1.22769 -1.255829 0.92
v 1.218994 -1.258932 0.92
v 1.247163 -1.220138 0.92
v 1.246828 -1.226564 0.92
v 1.244858 -1.235884 0.92
v 1.24136 -1.243437 0.92
v 1.236012 -1.191493 0.92
v 1.239351 -1.194872 0.92
v 1.243168 -1.200724 0.92
v 1.245907 -1.208423 0.92
v 1.219755 -1.183372 0.92
v 1.228576 -1.186553 0.92
v 1.295044 -1.232615 0.921
v 1.290885 -1.244105 0.921
v 1.329174 -1.232615 0.921
v 1.333229 -1.244105 0.921
v 1.310251 -1.190349 0.921
v 1.305338 -1.17023 0.921
v 1.266607 -1.271918 0.921
v 1.281111 -1.271918 0.921
v 1.311131 -1.187314 0.921
v 1.311914 -1.183227 0.921
v 1.319374 -1.17023 0.921
v 1.312226 -1.183227 0.921
v 1.313048 -1.187529 0.921
v 1.313812 -1.190349 0.921
v 1.358105 -1.271918 0.921
v 1.343601 -1.271918 0.921
v 1.295044 -1.232615 0.92
v 1.329174 -1.232615 0.92
v 1.313812 -1.190349 0.92
v 1.312226 -1.183227 0.92
v 1.313048 -1.187529 0.92
v 1.311914 -1.183227 0.92
v 1.310251 -1.190349 0.92
v 1.311131 -1.187314 0.92
v 0.373536 -1.286299 0.921
v 0.38428 -1.299574 0.921
v 0.367034 -1.222384 0.921
v 0.507294 -1.240459 0.921
v 0.446866 -1.223202 0.921
v 0.452706 -1.227099 0.921
v 0.608513 -1.186957 0.921
v 0.586101 -1.148639 0.921
v 0.489219 -1.199248 0.921
v 0.440137 -1.220836 0.921
v 0.434272 -1.220215 0.921
v 0.443831 -1.175193 0.921
v 0.434995 -1.174667 0.921
v 0.422023 -1.223032 0.921
v 0.351312 -1.212707 0.921
v 0.352985 -1.266572 0.921
v 0.366311 -1.270825 0.921
v 0.415656 -1.269567 0.921
v 0.421458 -1.27351 0.921
v 0.398416 -1.310243 0.921
v 0.428164 -1.275935 0.921
v 0.461279 -1.179536 0.921
v 0.417781 -1.176782 0.921
v 0.401808 -1.182879 0.921
v 0.416221 -1.226774 0.921
v 0.387017 -1.193139 0.921
v 0.411422 -1.231894 0.921
v 0.375055 -1.206796 0.921
v 0.408 -1.238138 0.921
v 0.40627 -1.245068 0.921
v 0.632372 -1.115381 0.921
v 0.638156 -1.115381 0.921
v 0.667799 -1.076339 0.921
v 0.651873 -1.117069 0.921
v 0.672864 -1.078087 0.921
v 0.664494 -1.121921 0.921
v 0.694236 -1.089122 0.921
v 0.713549 -1.105982 0.921
v 0.428939 -1.091507 0.921
v 0.434272 -1.094414 0.921
v 0.411859 -1.041636 0.921
v 0.444112 -1.073457 0.921
v 0.426681 -1.024374 0.921
v 0.45987 -1.053756 0.921
v 0.443671 -1.009824 0.921
v 0.479794 -1.038649 0.921
v 0.461227 -0.998941 0.921
v 0.601159 -1.271863 0.921
v 0.604176 -1.272271 0.921
v 0.609959 -1.228168 0.921
v 0.494558 -0.986059 0.921
v 0.503304 -1.02877 0.921
v 0.53043 -0.981627 0.921
v 0.628757 -1.019223 0.921
v 0.604912 -1.056859 0.921
v 0.652412 -1.046505 0.921
v 0.620051 -1.077359 0.921
v 0.629743 -1.101324 0.921
v 0.338343 -1.199398 0.921
v 0.308471 -1.236121 0.921
v 0.327382 -1.252869 0.921
v 0.3258 -1.138407 0.921
v 0.278482 -1.147904 0.921
v 0.323654 -1.155869 0.921
v 0.278105 -1.157315 0.921
v 0.324497 -1.166872 0.921
v 0.280701 -1.181748 0.921
v 0.329649 -1.184582 0.921
v 0.290087 -1.208877 0.921
v 0.305176 -1.232299 0.921
v 0.42842 -1.220833 0.921
v 0.476615 -1.187765 0.921
v 0.675711 -1.129744 0.921
v 0.684141 -1.139169 0.921
v 0.727983 -1.126774 0.921
v 0.690841 -1.15166 0.921
v 0.736456 -1.148947 0.921
v 0.694209 -1.165554 0.921
v 0.739375 -1.171052 0.921
v 0.69455 -1.171775 0.921
v 0.642494 -1.228168 0.921
v 0.646832 -1.272271 0.921
v 0.655384 -1.22571 0.921
v 0.669184 -1.267755 0.921
v 0.668151 -1.21982 0.921
v 0.691395 -1.257383 0.921
v 0.678856 -1.211107 0.921
v 0.710408 -1.242066 0.921
v 0.679895 -1.209993 0.921
v 0.712624 -1.239736 0.921
v 0.687844 -1.198712 0.921
v 0.726065 -1.221376 0.921
v 0.692821 -1.185825 0.921
v 0.735555 -1.198706 0.921
v 0.739297 -1.175042 0.921
v 0.412722 -1.085625 0.921
v 0.403545 -1.040642 0.921
v 0.395953 -1.08357 0.921
v 0.39523 -1.04019 0.921
v 0.388565 -1.083947 0.921
v 0.370664 -1.042795 0.921
v 0.370709 -1.088143 0.921
v 0.343622 -1.052221 0.921
v 0.354575 -1.096669 0.921
v 0.319265 -1.068267 0.921
v 0.341996 -1.107874 0.921
v 0.312086 -1.074893 0.921
v 0.331984 -1.12228 0.921
v 0.296722 -1.09393 0.921
v 0.284373 -1.119455 0.921
v 0.411014 -1.264353 0.921
v 0.407893 -1.258408 0.921
v 0.40627 -1.251756 0.921
v 0.583312 -1.247717 0.921
v 0.583209 -1.249858 0.921
v 0.606325 -1.227496 0.921
v 0.527375 -1.025074 0.921
v 0.531153 -1.025007 0.921
v 0.56023 -0.984758 0.921
v 0.553723 -1.027554 0.921
v 0.596512 -0.997543 0.921
v 0.576541 -1.035779 0.921
v 0.597086 -1.049437 0.921
v 0.457391 -1.232271 0.921
v 0.460564 -1.23819 0.921
v 0.507294 -1.247689 0.921
v 0.462253 -1.24489 0.921
v 0.506917 -1.255077 0.921
v 0.462248 -1.251922 0.921
v 0.502721 -1.272934 0.921
v 0.460455 -1.258843 0.921
v 0.494195 -1.289067 0.921
v 0.457029 -1.265027 0.921
v 0.482989 -1.301646 0.921
v 0.452222 -1.270148 0.921
v 0.468584 -1.311658 0.921
v 0.446563 -1.2738 0.921
v 0.452456 -1.317843 0.921
v 0.440179 -1.275993 0.921
v 0.434995 -1.319988 0.921
v 0.434272 -1.276609 0.921
v 0.432159 -1.319935 0.921
v 0.415091 -1.317261 0.921
v 0.588705 -1.264406 0.921
v 0.591473 -1.267135 0.921
v 0.583812 -1.254912 0.921
v 0.585636 -1.259831 0.921
v 0.608494 -1.227976 0.921
v 0.596332 -1.270241 0.921
v 0.605621 -1.227445 0.921
v 0.600472 -1.228051 0.921
v 0.595477 -1.229903 0.921
v 0.590977 -1.23295 0.921
v 0.587221 -1.23713 0.921
v 0.584584 -1.242171 0.921
v 0.434272 -1.220215 0.92
v 0.440137 -1.220836 0.92
v 0.446866 -1.223202 0.92
v 0.452706 -1.227099 0.92
v 0.457391 -1.232271 0.92
v 0.460564 -1.23819 0.92
v 0.462253 -1.24489 0.92
v 0.462248 -1.251922 0.92
v 0.460455 -1.258843 0.92
v 0.457029 -1.265027 0.92
v 0.452222 -1.270148 0.92
v 0.446563 -1.2738 0.92
v 0.440179 -1.275993 0.92
v 0.434272 -1.276609 0.92
v 0.428164 -1.275935 0.92
v 0.421458 -1.27351 0.92
v 0.415656 -1.269567 0.92
v 0.411014 -1.264353 0.92
v 0.407893 -1.258408 0.92
v 0.40627 -1.251756 0.92
v 0.40627 -1.245068 0.92
v 0.408 -1.238138 0.92
v 0.411422 -1.231894 0.92
v 0.416221 -1.226774 0.92
v 0.422023 -1.223032 0.92
v 0.42842 -1.220833 0.92
v 1.05 -1.125 0.02
v 1.05 -0.875 0.02
v 1.05 -1.125 0.0
v 1.05 -0.875 0.0
v 1.4 -1.125 0.02
v 1.4 -1.125 0.0
v 1.4 -0.875 0.02
v 1.4 -0.875 0.0
v 1.05 -0.625 0.02
v 1.05 -0.375 0.02
v 1.05 -0.625 0.0
v 1.05 -0.375 0.0
v 1.4 -0.625 0.02
v 1.4 -0.625 0.0
v 1.4 -0.375 0.02
v 1.4 -0.375 0.0
v 1.05 -0.125 0.02
v 1.05 0.125 0.02
v 1.05 -0.125 0.0
v 1.05 0.125 0.0
v 1.4 -0.125 0.02
v 1.4 -0.125 0.0
v 1.4 0.125 0.02
v 1.4 0.125 0.0
v 1.05 0.375 0.02
v 1.05 0.625 0.02
v 1.05 0.375 0.0
v 1.05 0.625 0.0
v 1.4 0.375 0.02
v 1.4 0.375 0.0
v 1.4 0.625 0.02
v 1.4 0.625 0.0
v -0.625 -1.05 0.02
v -0.375 -1.05 0.02
v -0.625 -1.05 0.0
v -0.375 -1.05 0.0
v -0.625 -1.4 0.02
v -0.625 -1.4 0.0
v -0.375 -1.4 0.02
v -0.375 -1.4 0.0
v -0.125 -1.05 0.02
v 0.125 -1.05 0.02
v -0.125 -1.05 0.0
v 0.125 -1.05 0.0
v -0.125 -1.4 0.02
v -0.125 -1.4 0.0
v 0.125 -1.4 0.02
v 0.125 -1.4 0.0
v 0.375 -1.05 0.02
v 0.625 -1.05 0.02
v 0.375 -1.05 0.0
v 0.625 -1.05 0.0
v 0.375 -1.4 0.02
v 0.375 -1.4 0.0
v 0.625 -1.4 0.02
v 0.625 -1.4 0.0
v -1.05 1.125 0.02
v -1.05 0.875 0.02
v -1.05 1.125 0.0
v -1.05 0.875 0.0
v -1.4 1.125 0.02
v -1.4 1.125 0.0
v -1.4 0.875 0.02
v -1.4 0.875 0.0
v -1.05 0.625 0.02
v -1.05 0.375 0.02
v -1.05 0.625 0.0
v -1.05 0.375 0.0
v -1.4 0.625 0.02
v -1.4 0.625 0.0
v -1.4 0.375 0.02
v -1.4 0.375 0.0
v -1.05 0.125 0.02
v -1.05 -0.125 0.02
v -1.05 0.125 0.0
v -1.05 -0.125 0.0
v -1.4 0.125 0.02
v -1.4 0.125 0.0
v -1.4 -0.125 0.02
v -1.4 -0.125 0.0
v -1.05 -0.375 0.02
v -1.05 -0.625 0.02
v -1.05 -0.375 0.0
v -1.05 -0.625 0.0
v -1.4 -0.375 0.02
v -1.4 -0.375 0.0
v -1.4 -0.625 0.02
v -1.4 -0.625 0.0
v -1.05 -1.125 0.02
v -1.4 -1.125 0.02
v -1.05 -1.125 0.0
v -1.4 -1.125 0.0
v -1.05 -0.875 0.02
v -1.05 -0.875 0.0
v -1.4 -0.875 0.02
v -1.4 -0.875 0.0
v 1.05 1.125 0.02
v 1.4 1.125 0.02
v 1.05 1.125 0.0
v 1.4 1.125 0.0
v 1.05 0.875 0.02
v 1.05 0.875 0.0
v 1.4 0.875 0.02
v 1.4 0.875 0.0
usemtl 1
f 1// 2// 3//
f 3// 2// 4//
f 5// 1// 6//
f 6// 1// 3//
f 7// 5// 8//
f 8// 5// 6//
f 2// 7// 4//
f 4// 7// 8//
f 5// 7// 1//
f 1// 7// 2//
f 8// 6// 4//
f 4// 6// 3//
f 9// 10// 11//
f 11// 10// 12//
f 13// 9// 14//
f 14// 9// 11//
f 15// 13// 16//
f 16// 13// 14//
f 10// 15// 12//
f 12// 15// 16//
f 13// 15// 9//
f 9// 15// 10//
f 16// 14// 12//
f 12// 14// 11//
f 17// 18// 19//
f 19// 18// 20//
f 21// 17// 22//
f 22// 17// 19//
f 23// 21// 24//
f 24// 21// 22//
f 18// 23// 20//
f 20// 23// 24//
f 21// 23// 17//
f 17// 23// 18//
f 24// 22// 20//
f 20// 22// 19//
f 25// 26// 27//
f 27// 26// 28//
f 27// 28// 29//
f 29// 28// 30//
f 29// 30// 31//
f 31// 30// 32//
f 31// 32// 33//
f 33// 32// 34//
f 33// 34// 35//
f 35// 34// 36//
f 35// 36// 37//
f 37// 36// 38//
f 37// 38// 39//
f 39// 38// 40//
f 39// 40// 41//
f 41// 40// 42//
f 41// 42// 43//
f 43// 42// 44//
f 43// 44// 45//
f 45// 44// 46//
f 45// 46// 47//
f 47// 46// 48//
f 47// 48// 49//
f 49// 48// 50//
f 49// 50// 51//
f 51// 50// 52//
f 51// 52// 53//
f 53// 52// 54//
f 53// 54// 55//
f 55// 54// 56//
f 55// 56// 57//
f 57// 56// 58//
f 57// 58// 59//
f 59// 58// 60//
f 59// 60// 61//
f 61// 60// 62//
f 61// 62// 63//
f 63// 62// 64//
f 63// 64// 65//
f 65// 64// 66//
f 65// 66// 67//
f 67// 66// 68//
f 67// 68// 69//
f 69// 68// 70//
f 69// 70// 71//
f 71// 70// 72//
f 71// 72// 73//
f 73// 72// 74//
f 73// 74// 75//
f 75// 74// 76//
f 75// 76// 77//
f 77// 76// 78//
f 77// 78// 79//
f 79// 78// 80//
f 79// 80// 81//
f 81// 80// 82//
f 81// 82// 83//
f 83// 82// 84//
f 83// 84// 85//
f 85// 84// 86//
f 85// 86// 87//
f 87// 86// 88//
f 87// 88// 89//
f 89// 88// 90//
f 89// 90// 91//
f 91// 90// 92//
f 91// 92// 93//
f 93// 92// 94//
f 93// 94// 95//
f 95// 94// 96//
f 95// 96// 97//
f 97// 96// 98//
f 97// 98// 99//
f 99// 98// 100//
f 99// 100// 101//
f 101// 100// 102//
f 101// 102// 103//
f 103// 102// 104//
f 103// 104// 105//
f 105// 104// 106//
f 105// 106// 107//
f 107// 106// 108//
f 107// 108// 109//
f 109// 108// 110//
f 109// 110// 111//
f 111// 110// 112//
f 111// 112// 113//
f 113// 112// 114//
f 113// 114// 115//
f 115// 114// 116//
f 115// 116// 117//
f 117// 116// 118//
f 117// 118// 119//
f 119// 118// 120//
f 119// 120// 121//
f 121// 120// 122//
f 121// 122// 123//
f 123// 122// 124//
f 123// 124// 125//
f 125// 124// 126//
f 125// 126// 127//
f 127// 126// 128//
f 127// 128// 129//
f 129// 128// 130//
f 129// 130// 131//
f 131// 130// 132//
f 131// 132// 25//
f 25// 132// 26//
f 82// 80// 133//
f 133// 80// 78//
f 133// 78// 76//
f 88// 86// 133//
f 133// 86// 84//
f 133// 84// 82//
f 94// 92// 133//
f 133// 92// 90//
f 133// 90// 88//
f 100// 98// 133//
f 133// 98// 96//
f 133// 96// 94//
f 106// 104// 133//
f 133// 104// 102//
f 133// 102// 100//
f 112// 110// 133//
f 133// 110// 108//
f 133// 108// 106//
f 118// 116// 133//
f 133// 116// 114//
f 133// 114// 112//
f 124// 122// 133//
f 133// 122// 120//
f 133// 120// 118//
f 130// 128// 133//
f 133// 128// 126//
f 133// 126// 124//
f 28// 26// 133//
f 133// 26// 132//
f 133// 132// 130//
f 34// 32// 133//
f 133// 32// 30//
f 133// 30// 28//
f 40// 38// 133//
f 133// 38// 36//
f 133// 36// 34//
f 46// 44// 133//
f 133// 44// 42//
f 133// 42// 40//
f 52// 50// 133//
f 133// 50// 48//
f 133// 48// 46//
f 58// 56// 133//
f 133// 56// 54//
f 133// 54// 52//
f 64// 62// 133//
f 133// 62// 60//
f 133// 60// 58//
f 70// 68// 133//
f 133// 68// 66//
f 133// 66// 64//
f 76// 74// 133//
f 133// 74// 72//
f 133// 72// 70//
f 75// 77// 134//
f 134// 77// 79//
f 134// 79// 81//
f 69// 71// 134//
f 134// 71// 73//
f 134// 73// 75//
f 63// 65// 134//
f 134// 65// 67//
f 134// 67// 69//
f 57// 59// 134//
f 134// 59// 61//
f 134// 61// 63//
f 51// 53// 134//
f 134// 53// 55//
f 134// 55// 57//
f 45// 47// 134//
f 134// 47// 49//
f 134// 49// 51//
f 39// 41// 134//
f 134// 41// 43//
f 134// 43// 45//
f 33// 35// 134//
f 134// 35// 37//
f 134// 37// 39//
f 27// 29// 134//
f 134// 29// 31//
f 134// 31// 33//
f 129// 131// 134//
f 134// 131// 25//
f 134// 25// 27//
f 123// 125// 134//
f 134// 125// 127//
f 134// 127// 129//
f 117// 119// 134//
f 134// 119// 121//
f 134// 121// 123//
f 111// 113// 134//
f 134// 113// 115//
f 134// 115// 117//
f 105// 107// 134//
f 134// 107// 109//
f 134// 109// 111//
f 99// 101// 134//
f 134// 101// 103//
f 134// 103// 105//
f 93// 95// 134//
f 134// 95// 97//
f 134// 97// 99//
f 87// 89// 134//
f 134// 89// 91//
f 134// 91// 93//
f 81// 83// 134//
f 134// 83// 85//
f 134// 85// 87//
usemtl 2
f 135// 136// 137//
f 138// 135// 139//
f 140// 138// 141//
f 142// 143// 144//
f 145// 146// 147//
f 148// 149// 150//
f 151// 152// 153//
f 153// 152// 154//
f 155// 156// 153//
f 153// 156// 157//
f 153// 157// 158//
f 158// 159// 153//
f 153// 159// 160//
f 153// 160// 151//
f 161// 162// 163//
f 163// 162// 164//
f 164// 162// 165//
f 164// 165// 166//
f 167// 168// 169//
f 161// 163// 170//
f 170// 163// 169//
f 170// 169// 171//
f 168// 172// 169//
f 169// 172// 173//
f 169// 173// 171//
f 171// 173// 174//
f 171// 174// 175//
f 175// 174// 176//
f 175// 176// 177//
f 150// 149// 178//
f 149// 179// 178//
f 178// 179// 180//
f 178// 180// 169//
f 169// 180// 181//
f 169// 181// 167//
f 182// 183// 184//
f 183// 185// 184//
f 184// 185// 186//
f 184// 186// 187//
f 187// 188// 184//
f 184// 188// 189//
f 184// 189// 150//
f 150// 189// 190//
f 150// 190// 148//
f 191// 192// 184//
f 184// 192// 193//
f 184// 193// 182//
f 194// 195// 196//
f 195// 197// 196//
f 196// 197// 198//
f 196// 198// 143//
f 143// 198// 199//
f 143// 199// 144//
f 144// 199// 200//
f 144// 200// 184//
f 184// 200// 201//
f 184// 201// 191//
f 202// 203// 204//
f 203// 205// 204//
f 204// 205// 206//
f 204// 206// 207//
f 208// 209// 210//
f 210// 209// 211//
f 212// 213// 214//
f 214// 213// 215//
f 216// 217// 214//
f 214// 217// 218//
f 219// 220// 209//
f 209// 220// 221//
f 209// 221// 222//
f 202// 223// 224//
f 225// 226// 227//
f 227// 226// 228//
f 229// 230// 231//
f 231// 230// 212//
f 215// 232// 214//
f 214// 232// 233//
f 214// 233// 216//
f 234// 235// 202//
f 202// 235// 236//
f 202// 236// 223//
f 237// 238// 239//
f 239// 238// 240//
f 239// 240// 241//
f 242// 222// 243//
f 243// 222// 244//
f 243// 244// 239//
f 239// 244// 245//
f 239// 245// 237//
f 246// 247// 248//
f 248// 247// 249//
f 248// 249// 227//
f 227// 249// 250//
f 227// 250// 225//
f 242// 251// 222//
f 222// 251// 252//
f 222// 252// 209//
f 209// 252// 253//
f 209// 253// 211//
f 224// 254// 202//
f 202// 254// 255//
f 202// 255// 256//
f 256// 255// 246//
f 256// 246// 257//
f 257// 246// 248//
f 228// 258// 227//
f 227// 258// 259//
f 227// 259// 260//
f 261// 262// 227//
f 227// 262// 263//
f 227// 263// 209//
f 209// 263// 264//
f 209// 264// 219//
f 260// 265// 227//
f 227// 265// 266//
f 227// 266// 267//
f 267// 268// 227//
f 227// 268// 269//
f 227// 269// 261//
f 270// 271// 272//
f 272// 222// 270//
f 270// 222// 221//
f 270// 221// 273//
f 273// 221// 274//
f 274// 275// 273//
f 273// 275// 276//
f 273// 276// 277//
f 278// 279// 280//
f 281// 282// 279//
f 282// 283// 279//
f 279// 283// 284//
f 279// 284// 285//
f 280// 286// 278//
f 278// 286// 287//
f 278// 287// 288//
f 271// 270// 278//
f 278// 270// 289//
f 278// 289// 279//
f 279// 289// 290//
f 279// 290// 281//
f 285// 291// 279//
f 279// 291// 292//
f 279// 292// 293//
f 293// 292// 294//
f 293// 294// 295//
f 295// 294// 296//
f 297// 298// 288//
f 288// 298// 299//
f 288// 299// 278//
f 152// 300// 154//
f 154// 300// 301//
f 154// 301// 231//
f 231// 301// 302//
f 231// 302// 229//
f 303// 304// 305//
f 305// 304// 306//
f 307// 308// 309//
f 309// 308// 310//
f 309// 310// 311//
f 311// 310// 303//
f 311// 303// 312//
f 313// 314// 315//
f 315// 314// 316//
f 315// 316// 317//
f 304// 318// 306//
f 306// 318// 319//
f 306// 319// 320//
f 320// 319// 321//
f 322// 323// 324//
f 325// 326// 327//
f 328// 329// 330//
f 322// 324// 327//
f 327// 324// 331//
f 327// 331// 325//
f 328// 330// 332//
f 326// 333// 327//
f 327// 333// 334//
f 327// 334// 328//
f 328// 334// 335//
f 328// 335// 329//
f 336// 337// 338//
f 338// 337// 339//
f 338// 339// 340//
f 340// 339// 341//
f 342// 343// 146//
f 146// 343// 344//
f 146// 344// 147//
f 345// 346// 147//
f 347// 348// 147//
f 330// 349// 332//
f 332// 349// 350//
f 332// 350// 351//
f 347// 147// 352//
f 351// 353// 332//
f 332// 353// 354//
f 332// 354// 355//
f 355// 354// 356//
f 355// 356// 345//
f 348// 357// 147//
f 147// 357// 358//
f 147// 358// 145//
f 359// 360// 346//
f 346// 360// 361//
f 346// 361// 147//
f 147// 361// 362//
f 147// 362// 352//
f 363// 364// 365//
f 365// 364// 366//
f 365// 366// 367//
f 365// 368// 363//
f 363// 368// 369//
f 363// 369// 370//
f 370// 371// 363//
f 363// 371// 372//
f 363// 372// 373//
f 373// 372// 374//
f 373// 374// 375//
f 375// 374// 376//
f 375// 376// 346//
f 346// 376// 377//
f 346// 377// 359//
f 378// 379// 367//
f 367// 379// 380//
f 367// 380// 365//
f 381// 382// 323//
f 323// 382// 383//
f 323// 383// 324//
f 381// 384// 382//
f 382// 384// 385//
f 382// 385// 386//
f 386// 385// 387//
f 386// 388// 389//
f 387// 390// 386//
f 386// 390// 391//
f 386// 391// 392//
f 392// 393// 386//
f 386// 393// 394//
f 386// 394// 388//
f 389// 395// 386//
f 386// 395// 396//
f 386// 396// 397//
f 398// 399// 400//
f 401// 402// 400//
f 400// 402// 403//
f 400// 403// 398//
f 399// 398// 404//
f 404// 398// 405//
f 404// 405// 406//
f 402// 407// 403//
f 403// 407// 408//
f 403// 408// 409//
f 409// 408// 410//
f 409// 410// 411//
f 411// 410// 412//
f 411// 412// 406//
f 406// 412// 413//
f 406// 413// 404//
f 414// 415// 416//
f 416// 415// 417//
f 418// 419// 415//
f 415// 419// 420//
f 415// 420// 417//
f 417// 420// 421//
f 422// 423// 424//
f 425// 426// 423//
f 423// 426// 414//
f 423// 414// 424//
f 424// 414// 427//
f 428// 429// 409//
f 430// 431// 411//
f 429// 432// 409//
f 409// 432// 433//
f 409// 433// 423//
f 423// 433// 434//
f 423// 434// 425//
f 430// 411// 435//
f 418// 436// 419//
f 419// 436// 437//
f 419// 437// 411//
f 411// 437// 438//
f 411// 438// 435//
f 431// 439// 411//
f 411// 439// 440//
f 411// 440// 409//
f 409// 440// 441//
f 409// 441// 428//
f 442// 443// 444//
f 444// 443// 445//
f 444// 445// 446//
f 445// 427// 446//
f 446// 427// 414//
f 446// 414// 447//
f 447// 414// 416//
f 447// 416// 448//
f 448// 416// 449//
f 448// 449// 450//
f 450// 449// 451//
f 421// 420// 452//
f 452// 420// 453//
f 452// 453// 454//
f 455// 456// 457//
f 457// 456// 458//
f 457// 458// 459//
f 459// 458// 460//
f 459// 460// 461//
f 461// 460// 462//
f 463// 464// 460//
f 460// 464// 465//
f 460// 465// 466//
f 467// 468// 469//
f 469// 468// 470//
f 471// 472// 473//
f 473// 472// 474//
f 473// 474// 475//
f 475// 474// 470//
f 475// 470// 476//
f 476// 470// 468//
f 466// 477// 460//
f 460// 477// 478//
f 460// 478// 462//
f 471// 473// 460//
f 460// 473// 479//
f 460// 479// 463//
f 480// 481// 482//
f 482// 481// 483//
f 482// 483// 484//
f 484// 483// 485//
f 486// 487// 488//
f 488// 487// 489//
f 488// 489// 490//
f 491// 492// 493//
f 493// 492// 494//
f 493// 494// 495//
f 496// 497// 498//
f 495// 499// 493//
f 493// 499// 500//
f 493// 500// 501//
f 498// 502// 496//
f 496// 502// 503//
f 496// 503// 504//
f 505// 506// 496//
f 496// 506// 507//
f 496// 507// 497//
f 508// 509// 510//
f 510// 509// 511//
f 510// 511// 512//
f 457// 513// 455//
f 455// 513// 514//
f 455// 514// 515//
f 515// 514// 516//
f 515// 516// 517//
f 518// 519// 520//
f 521// 214// 522//
f 520// 519// 522//
f 522// 519// 523//
f 522// 523// 521//
f 212// 214// 231//
f 231// 214// 521//
f 231// 521// 524//
f 525// 526// 527//
f 527// 526// 528//
f 527// 528// 509//
f 529// 530// 531//
f 531// 530// 528//
f 531// 528// 532//
f 532// 528// 526//
f 532// 526// 533//
f 533// 526// 534//
f 520// 535// 536//
f 528// 518// 509//
f 509// 518// 520//
f 509// 520// 537//
f 537// 520// 538//
f 539// 540// 541//
f 541// 540// 542//
f 536// 543// 520//
f 520// 543// 544//
f 520// 544// 545//
f 546// 547// 511//
f 545// 548// 520//
f 520// 548// 549//
f 520// 549// 550//
f 546// 511// 551//
f 547// 552// 511//
f 511// 552// 553//
f 511// 553// 554//
f 555// 556// 542//
f 542// 556// 557//
f 542// 557// 558//
f 550// 559// 520//
f 520// 559// 560//
f 520// 560// 538//
f 538// 560// 561//
f 538// 561// 562//
f 562// 563// 538//
f 538// 563// 564//
f 538// 564// 565//
f 565// 564// 566//
f 567// 568// 566//
f 566// 568// 569//
f 566// 569// 565//
f 537// 570// 509//
f 509// 570// 571//
f 509// 571// 511//
f 511// 571// 572//
f 511// 572// 551//
f 573// 574// 566//
f 566// 574// 575//
f 566// 575// 576//
f 576// 577// 566//
f 566// 577// 578//
f 566// 578// 567//
f 579// 580// 581//
f 581// 580// 582//
f 582// 580// 583//
f 582// 583// 584//
f 585// 586// 587//
f 586// 320// 587//
f 587// 320// 321//
f 587// 321// 588//
f 588// 321// 589//
f 588// 589// 590//
f 590// 589// 591//
f 590// 591// 317//
f 592// 593// 147//
f 147// 593// 594//
f 345// 147// 355//
f 355// 147// 594//
f 355// 594// 587//
f 587// 594// 595//
f 587// 595// 585//
f 585// 595// 596//
f 585// 596// 597//
f 598// 599// 596//
f 596// 599// 600//
f 596// 600// 597//
f 601// 602// 344//
f 344// 602// 603//
f 344// 603// 604//
f 604// 605// 344//
f 344// 605// 606//
f 344// 606// 147//
f 147// 606// 607//
f 147// 607// 608//
f 601// 609// 610//
f 608// 611// 147//
f 147// 611// 612//
f 147// 612// 613//
f 610// 614// 601//
f 601// 614// 615//
f 601// 615// 602//
f 613// 616// 147//
f 147// 616// 617//
f 147// 617// 592//
f 618// 619// 601//
f 601// 619// 620//
f 601// 620// 609//
f 140// 621// 622//
f 622// 621// 623//
f 622// 623// 624//
f 624// 623// 601//
f 624// 601// 625//
f 625// 601// 344//
f 625// 344// 626//
f 626// 344// 343//
f 626// 343// 627//
f 627// 343// 628//
f 627// 628// 629//
f 629// 628// 581//
f 629// 581// 630//
f 630// 581// 582//
f 630// 582// 631//
f 631// 582// 632//
f 631// 632// 196//
f 196// 632// 204//
f 196// 204// 194//
f 194// 204// 207//
f 584// 535// 582//
f 582// 535// 520//
f 582// 520// 632//
f 632// 520// 522//
f 632// 522// 204//
f 204// 522// 214//
f 204// 214// 202//
f 202// 214// 218//
f 202// 218// 234//
f 342// 341// 343//
f 343// 341// 339//
f 343// 339// 628//
f 628// 339// 337//
f 628// 337// 581//
f 581// 337// 541//
f 581// 541// 579//
f 579// 541// 542//
f 579// 542// 633//
f 633// 542// 558//
f 621// 305// 623//
f 623// 305// 306//
f 623// 306// 601//
f 601// 306// 320//
f 601// 320// 618//
f 618// 320// 586//
f 138// 139// 141//
f 141// 139// 634//
f 141// 634// 635//
f 336// 327// 337//
f 337// 327// 328//
f 337// 328// 541//
f 541// 328// 511//
f 541// 511// 539//
f 539// 511// 554//
f 316// 312// 317//
f 317// 312// 303//
f 317// 303// 590//
f 590// 303// 305//
f 590// 305// 636//
f 637// 638// 635//
f 635// 638// 639//
f 640// 641// 642//
f 642// 641// 643//
f 642// 643// 635//
f 635// 643// 644//
f 635// 644// 637//
f 639// 645// 635//
f 635// 645// 646//
f 635// 646// 647//
f 140// 141// 621//
f 621// 141// 635//
f 621// 635// 305//
f 305// 635// 647//
f 305// 647// 636//
f 636// 648// 590//
f 590// 648// 649//
f 590// 649// 642//
f 642// 649// 650//
f 642// 650// 651//
f 651// 652// 642//
f 642// 652// 653//
f 642// 653// 640//
f 654// 655// 656//
f 656// 655// 657//
f 658// 656// 634//
f 634// 656// 657//
f 634// 657// 635//
f 635// 657// 659//
f 635// 659// 642//
f 642// 659// 660//
f 642// 660// 661//
f 508// 491// 509//
f 509// 491// 493//
f 509// 493// 527//
f 527// 493// 662//
f 642// 398// 590//
f 590// 398// 403//
f 590// 403// 588//
f 588// 403// 409//
f 588// 409// 587//
f 587// 409// 423//
f 587// 423// 355//
f 355// 423// 422//
f 355// 422// 332//
f 332// 422// 663//
f 332// 663// 328//
f 328// 663// 455//
f 328// 455// 511//
f 511// 455// 515//
f 511// 515// 512//
f 512// 515// 517//
f 664// 665// 662//
f 662// 665// 666//
f 667// 668// 669//
f 669// 668// 153//
f 669// 153// 666//
f 666// 153// 154//
f 666// 154// 662//
f 662// 154// 231//
f 662// 231// 527//
f 527// 231// 524//
f 527// 524// 525//
f 501// 505// 493//
f 493// 505// 496//
f 493// 496// 662//
f 662// 496// 668//
f 662// 668// 664//
f 664// 668// 667//
f 664// 667// 670//
f 424// 671// 422//
f 422// 671// 454//
f 422// 454// 663//
f 663// 454// 453//
f 663// 453// 455//
f 455// 453// 481//
f 455// 481// 456//
f 456// 481// 480//
f 658// 634// 661//
f 661// 634// 672//
f 661// 672// 642//
f 642// 672// 673//
f 642// 673// 398//
f 398// 673// 674//
f 398// 674// 405//
f 135// 137// 139//
f 139// 137// 675//
f 139// 675// 634//
f 634// 675// 676//
f 634// 676// 672//
f 672// 676// 677//
f 672// 677// 673//
f 673// 677// 678//
f 673// 678// 674//
f 504// 490// 496//
f 496// 490// 489//
f 496// 489// 668//
f 668// 489// 679//
f 668// 679// 153//
f 153// 679// 164//
f 153// 164// 155//
f 155// 164// 166//
f 678// 680// 674//
f 674// 680// 681//
f 674// 681// 405//
f 405// 681// 682//
f 405// 682// 406//
f 406// 682// 683//
f 406// 683// 411//
f 411// 683// 684//
f 411// 684// 419//
f 419// 684// 685//
f 419// 685// 420//
f 420// 685// 686//
f 420// 686// 453//
f 453// 686// 687//
f 453// 687// 481//
f 481// 687// 688//
f 481// 688// 483//
f 483// 688// 487//
f 483// 487// 485//
f 485// 487// 486//
f 689// 690// 163//
f 163// 690// 691//
f 691// 692// 163//
f 163// 692// 693//
f 163// 693// 694//
f 695// 696// 697//
f 697// 696// 698//
f 697// 698// 699//
f 142// 144// 700//
f 700// 144// 184//
f 700// 184// 701//
f 701// 184// 150//
f 701// 150// 702//
f 702// 150// 178//
f 702// 178// 703//
f 703// 178// 169//
f 703// 169// 704//
f 704// 169// 163//
f 704// 163// 697//
f 697// 163// 694//
f 697// 694// 695//
f 705// 706// 707//
f 707// 706// 708//
f 707// 708// 709//
f 709// 710// 707//
f 707// 710// 711//
f 707// 711// 712//
f 712// 711// 713//
f 712// 713// 714//
f 714// 715// 712//
f 712// 715// 716//
f 712// 716// 717//
f 699// 718// 697//
f 697// 718// 719//
f 697// 719// 707//
f 707// 719// 720//
f 707// 720// 705//
f 680// 721// 681//
f 681// 721// 722//
f 681// 722// 682//
f 682// 722// 723//
f 682// 723// 683//
f 683// 723// 724//
f 683// 724// 684//
f 684// 724// 725//
f 684// 725// 685//
f 685// 725// 726//
f 685// 726// 686//
f 686// 726// 727//
f 686// 727// 687//
f 687// 727// 728//
f 687// 728// 688//
f 688// 728// 729//
f 688// 729// 487//
f 487// 729// 730//
f 487// 730// 489//
f 489// 730// 731//
f 489// 731// 679//
f 679// 731// 732//
f 679// 732// 164//
f 164// 732// 733//
f 164// 733// 163//
f 163// 733// 712//
f 163// 712// 689//
f 689// 712// 717//
f 721// 136// 734//
f 734// 136// 735//
f 707// 721// 736//
f 736// 721// 734//
f 142// 707// 737//
f 737// 707// 736//
f 136// 142// 735//
f 735// 142// 737//
f 737// 736// 735//
f 735// 736// 734//
usemtl 3
f 738// 689// 739//
f 739// 689// 717//
f 739// 717// 740//
f 740// 717// 716//
f 740// 716// 741//
f 741// 716// 715//
f 741// 715// 742//
f 742// 715// 714//
f 742// 714// 743//
f 743// 714// 713//
f 743// 713// 744//
f 744// 713// 711//
f 744// 711// 745//
f 745// 711// 710//
f 745// 710// 746//
f 746// 710// 709//
f 746// 709// 747//
f 747// 709// 708//
f 747// 708// 748//
f 748// 708// 706//
f 748// 706// 749//
f 749// 706// 705//
f 749// 705// 750//
f 750// 705// 720//
f 750// 720// 751//
f 751// 720// 719//
f 751// 719// 752//
f 752// 719// 718//
f 752// 718// 753//
f 753// 718// 699//
f 753// 699// 754//
f 754// 699// 698//
f 754// 698// 755//
f 755// 698// 696//
f 755// 696// 756//
f 756// 696// 695//
f 756// 695// 757//
f 757// 695// 694//
f 757// 694// 758//
f 758// 694// 693//
f 758// 693// 759//
f 759// 693// 692//
f 759// 692// 760//
f 760// 692// 691//
f 760// 691// 761//
f 761// 691// 690//
f 761// 690// 738//
f 738// 690// 689//
f 760// 761// 762//
f 762// 761// 738//
f 762// 738// 739//
f 757// 758// 762//
f 762// 758// 759//
f 762// 759// 760//
f 754// 755// 762//
f 762// 755// 756//
f 762// 756// 757//
f 751// 752// 762//
f 762// 752// 753//
f 762// 753// 754//
f 748// 749// 762//
f 762// 749// 750//
f 762// 750// 751//
f 745// 746// 762//
f 762// 746// 747//
f 762// 747// 748//
f 742// 743// 762//
f 762// 743// 744//
f 762// 744// 745//
f 739// 740// 762//
f 762// 740// 741//
f 762// 741// 742//
usemtl 4
f 763// 764// 664//
f 664// 764// 665//
f 765// 763// 670//
f 670// 763// 664//
f 766// 765// 667//
f 667// 765// 670//
f 767// 766// 669//
f 669// 766// 667//
f 768// 767// 666//
f 666// 767// 669//
f 764// 768// 665//
f 665// 768// 666//
f 766// 767// 765//
f 765// 767// 768//
f 765// 768// 763//
f 763// 768// 764//
f 516// 769// 517//
f 517// 769// 770//
f 517// 770// 512//
f 512// 770// 771//
f 512// 771// 510//
f 516// 514// 769//
f 769// 514// 513//
f 769// 513// 772//
f 773// 772// 457//
f 457// 772// 513//
f 773// 457// 459//
f 773// 459// 774//
f 459// 461// 774//
f 774// 461// 462//
f 774// 462// 775//
f 775// 462// 478//
f 775// 478// 776//
f 776// 478// 477//
f 776// 477// 777//
f 777// 477// 466//
f 777// 466// 778//
f 778// 466// 465//
f 778// 465// 779//
f 779// 465// 464//
f 779// 464// 780//
f 780// 464// 463//
f 780// 463// 781//
f 781// 463// 479//
f 781// 479// 782//
f 782// 479// 473//
f 782// 473// 783//
f 783// 473// 475//
f 783// 475// 784//
f 784// 475// 476//
f 784// 476// 785//
f 785// 476// 468//
f 785// 468// 786//
f 786// 468// 467//
f 786// 467// 787//
f 787// 467// 469//
f 787// 469// 788//
f 788// 469// 470//
f 788// 470// 789//
f 789// 470// 474//
f 789// 474// 790//
f 790// 474// 472//
f 790// 472// 791//
f 456// 792// 793//
f 791// 472// 471//
f 791// 471// 794//
f 794// 471// 460//
f 794// 460// 793//
f 793// 460// 458//
f 793// 458// 456//
f 795// 792// 480//
f 480// 792// 456//
f 488// 796// 797//
f 795// 480// 482//
f 795// 482// 798//
f 482// 484// 798//
f 798// 484// 485//
f 798// 485// 797//
f 797// 485// 486//
f 797// 486// 488//
f 796// 488// 490//
f 796// 490// 799//
f 490// 504// 799//
f 799// 504// 503//
f 799// 503// 800//
f 800// 503// 502//
f 800// 502// 801//
f 801// 502// 498//
f 801// 498// 802//
f 802// 498// 497//
f 802// 497// 803//
f 803// 497// 507//
f 803// 507// 804//
f 804// 507// 506//
f 804// 506// 805//
f 805// 506// 505//
f 805// 505// 806//
f 806// 505// 501//
f 806// 501// 807//
f 807// 501// 500//
f 807// 500// 808//
f 808// 500// 499//
f 808// 499// 809//
f 809// 499// 495//
f 809// 495// 810//
f 492// 811// 494//
f 494// 811// 810//
f 494// 810// 495//
f 491// 812// 492//
f 492// 812// 813//
f 492// 813// 811//
f 491// 508// 812//
f 812// 508// 510//
f 812// 510// 771//
f 793// 792// 795//
f 788// 801// 787//
f 787// 801// 802//
f 787// 802// 786//
f 786// 802// 803//
f 786// 803// 785//
f 793// 795// 794//
f 794// 795// 798//
f 794// 798// 791//
f 791// 798// 797//
f 791// 797// 790//
f 790// 797// 796//
f 790// 796// 789//
f 789// 796// 799//
f 789// 799// 788//
f 788// 799// 800//
f 788// 800// 801//
f 772// 773// 769//
f 769// 773// 774//
f 769// 774// 770//
f 770// 774// 775//
f 770// 775// 771//
f 771// 775// 776//
f 771// 776// 812//
f 812// 776// 777//
f 812// 777// 813//
f 813// 777// 778//
f 813// 778// 811//
f 811// 778// 779//
f 811// 779// 810//
f 810// 779// 780//
f 810// 780// 809//
f 809// 780// 781//
f 809// 781// 808//
f 806// 784// 805//
f 805// 784// 785//
f 805// 785// 804//
f 804// 785// 803//
f 808// 781// 807//
f 807// 781// 782//
f 807// 782// 806//
f 806// 782// 783//
f 806// 783// 784//
f 814// 815// 427//
f 427// 815// 424//
f 443// 816// 445//
f 445// 816// 814//
f 445// 814// 427//
f 817// 816// 442//
f 442// 816// 443//
f 446// 818// 444//
f 444// 818// 817//
f 444// 817// 442//
f 819// 818// 447//
f 447// 818// 446//
f 450// 820// 448//
f 448// 820// 819//
f 448// 819// 447//
f 821// 820// 451//
f 451// 820// 450//
f 416// 822// 449//
f 449// 822// 821//
f 449// 821// 451//
f 823// 822// 417//
f 417// 822// 416//
f 452// 824// 421//
f 421// 824// 823//
f 421// 823// 417//
f 825// 824// 454//
f 454// 824// 452//
f 424// 815// 671//
f 671// 815// 825//
f 671// 825// 454//
f 825// 815// 814//
f 814// 816// 825//
f 825// 816// 817//
f 825// 817// 824//
f 822// 823// 821//
f 821// 823// 824//
f 821// 824// 820//
f 820// 824// 817//
f 820// 817// 819//
f 819// 817// 818//
f 826// 827// 828//
f 828// 827// 829//
f 828// 829// 830//
f 830// 829// 831//
f 830// 831// 832//
f 832// 831// 833//
f 832// 833// 834//
f 834// 833// 835//
f 834// 835// 836//
f 836// 835// 837//
f 836// 837// 838//
f 838// 837// 839//
f 838// 839// 840//
f 840// 839// 841//
f 840// 841// 842//
f 842// 841// 843//
f 842// 843// 844//
f 844// 843// 845//
f 844// 845// 846//
f 846// 845// 847//
f 846// 847// 848//
f 848// 847// 849//
f 848// 849// 850//
f 850// 849// 851//
f 850// 851// 852//
f 852// 851// 853//
f 852// 853// 854//
f 854// 853// 855//
f 854// 855// 856//
f 856// 855// 857//
f 856// 857// 858//
f 858// 857// 859//
f 858// 859// 860//
f 860// 859// 826//
f 860// 826// 828//
f 834// 836// 426//
f 426// 836// 414//
f 432// 828// 830//
f 834// 426// 425//
f 834// 425// 832//
f 832// 425// 434//
f 832// 434// 830//
f 830// 434// 433//
f 830// 433// 432//
f 828// 432// 429//
f 828// 429// 860//
f 860// 429// 428//
f 860// 428// 858//
f 858// 428// 441//
f 858// 441// 856//
f 856// 441// 440//
f 856// 440// 854//
f 854// 440// 439//
f 854// 439// 852//
f 852// 439// 431//
f 852// 431// 850//
f 850// 431// 430//
f 850// 430// 848//
f 848// 430// 435//
f 848// 435// 846//
f 846// 435// 438//
f 437// 842// 438//
f 438// 842// 844//
f 438// 844// 846//
f 437// 436// 842//
f 842// 436// 418//
f 842// 418// 840//
f 838// 840// 415//
f 415// 840// 418//
f 836// 838// 414//
f 414// 838// 415//
f 841// 839// 861//
f 861// 839// 862//
f 839// 837// 862//
f 862// 837// 863//
f 837// 835// 863//
f 863// 835// 864//
f 827// 865// 866//
f 827// 866// 829//
f 829// 866// 867//
f 829// 867// 831//
f 831// 867// 868//
f 831// 868// 833//
f 833// 868// 864//
f 833// 864// 835//
f 855// 869// 870//
f 855// 870// 857//
f 857// 870// 871//
f 857// 871// 859//
f 859// 871// 872//
f 859// 872// 826//
f 826// 872// 865//
f 826// 865// 827//
f 847// 873// 874//
f 847// 874// 849//
f 849// 874// 875//
f 849// 875// 851//
f 851// 875// 876//
f 851// 876// 853//
f 853// 876// 869//
f 853// 869// 855//
f 841// 861// 877//
f 841// 877// 843//
f 843// 877// 878//
f 843// 878// 845//
f 845// 878// 873//
f 845// 873// 847//
usemtl 2
f 862// 863// 861//
f 861// 863// 864//
f 861// 864// 868//
f 868// 867// 861//
f 861// 867// 866//
f 861// 866// 865//
f 865// 872// 861//
f 861// 872// 871//
f 861// 871// 870//
f 870// 869// 861//
f 861// 869// 876//
f 861// 876// 875//
f 875// 874// 861//
f 861// 874// 873//
f 861// 873// 877//
f 877// 873// 878//
usemtl 4
f 879// 880// 881//
f 881// 880// 882//
f 883// 884// 879//
f 879// 884// 885//
f 879// 885// 880//
f 880// 885// 886//
f 883// 887// 884//
f 884// 887// 888//
f 884// 888// 889//
f 889// 888// 890//
f 889// 890// 891//
f 891// 892// 889//
f 889// 892// 881//
f 889// 881// 893//
f 893// 881// 882//
f 893// 882// 894//
f 889// 893// 404//
f 404// 893// 399//
f 884// 889// 413//
f 413// 889// 404//
f 410// 885// 412//
f 412// 885// 884//
f 412// 884// 413//
f 886// 885// 408//
f 408// 885// 410//
f 880// 886// 407//
f 407// 886// 408//
f 401// 882// 402//
f 402// 882// 880//
f 402// 880// 407//
f 894// 882// 400//
f 400// 882// 401//
f 893// 894// 399//
f 399// 894// 400//
f 879// 881// 895//
f 895// 881// 896//
f 881// 892// 896//
f 896// 892// 897//
f 890// 898// 899//
f 890// 899// 891//
f 891// 899// 897//
f 891// 897// 892//
f 890// 888// 898//
f 898// 888// 900//
f 883// 901// 902//
f 883// 902// 887//
f 887// 902// 900//
f 887// 900// 888//
f 883// 879// 901//
f 901// 879// 895//
usemtl 2
f 898// 900// 899//
f 899// 900// 902//
f 899// 902// 897//
f 897// 902// 901//
f 897// 901// 896//
f 896// 901// 895//
usemtl 4
f 903// 904// 518//
f 518// 904// 519//
f 530// 905// 528//
f 528// 905// 903//
f 528// 903// 518//
f 906// 905// 529//
f 529// 905// 530//
f 907// 906// 531//
f 531// 906// 529//
f 908// 907// 532//
f 532// 907// 531//
f 909// 908// 533//
f 533// 908// 532//
f 910// 909// 534//
f 534// 909// 533//
f 911// 910// 526//
f 526// 910// 534//
f 912// 911// 525//
f 525// 911// 526//
f 913// 912// 524//
f 524// 912// 525//
f 914// 913// 521//
f 521// 913// 524//
f 519// 904// 523//
f 523// 904// 914//
f 523// 914// 521//
f 914// 904// 903//
f 903// 905// 914//
f 914// 905// 906//
f 914// 906// 913//
f 911// 912// 910//
f 910// 912// 913//
f 910// 913// 909//
f 909// 913// 906//
f 909// 906// 908//
f 908// 906// 907//
f 915// 916// 917//
f 918// 919// 920//
f 920// 919// 917//
f 921// 922// 923//
f 924// 925// 926//
f 926// 925// 927//
f 916// 928// 917//
f 917// 928// 929//
f 917// 929// 920//
f 920// 929// 930//
f 920// 930// 924//
f 924// 930// 931//
f 924// 931// 925//
f 932// 933// 934//
f 934// 933// 935//
f 934// 935// 936//
f 936// 935// 937//
f 936// 937// 927//
f 927// 937// 938//
f 927// 938// 926//
f 923// 915// 921//
f 921// 915// 917//
f 921// 917// 939//
f 939// 917// 940//
f 939// 940// 941//
f 941// 940// 942//
f 941// 942// 943//
f 943// 942// 944//
f 943// 944// 945//
f 945// 944// 946//
f 945// 946// 947//
f 947// 946// 948//
f 947// 948// 949//
f 949// 948// 950//
f 949// 950// 951//
f 951// 950// 952//
f 951// 952// 953//
f 953// 952// 954//
f 953// 954// 955//
f 955// 954// 956//
f 955// 956// 957//
f 957// 956// 958//
f 959// 960// 961//
f 961// 960// 962//
f 961// 962// 963//
f 963// 962// 964//
f 963// 964// 932//
f 932// 964// 965//
f 932// 965// 933//
f 966// 967// 968//
f 968// 967// 969//
f 968// 969// 970//
f 970// 969// 971//
f 970// 971// 972//
f 972// 971// 973//
f 972// 973// 959//
f 959// 973// 974//
f 959// 974// 960//
f 921// 975// 922//
f 922// 975// 976//
f 922// 976// 977//
f 977// 976// 978//
f 977// 978// 979//
f 979// 978// 980//
f 979// 980// 981//
f 981// 980// 982//
f 981// 982// 966//
f 966// 982// 983//
f 966// 983// 967//
f 952// 572// 571//
f 952// 571// 954//
f 954// 571// 570//
f 954// 570// 956//
f 956// 570// 537//
f 956// 537// 958//
f 957// 958// 538//
f 538// 958// 537//
f 957// 538// 565//
f 957// 565// 955//
f 955// 565// 569//
f 955// 569// 953//
f 953// 569// 568//
f 953// 568// 951//
f 951// 568// 567//
f 951// 567// 949//
f 949// 567// 578//
f 949// 578// 947//
f 947// 578// 577//
f 947// 577// 945//
f 945// 577// 576//
f 945// 576// 943//
f 943// 576// 575//
f 943// 575// 941//
f 941// 575// 574//
f 941// 574// 939//
f 939// 574// 573//
f 939// 573// 921//
f 975// 921// 566//
f 566// 921// 573//
f 975// 566// 564//
f 975// 564// 976//
f 976// 564// 563//
f 976// 563// 978//
f 978// 563// 562//
f 978// 562// 980//
f 980// 562// 561//
f 980// 561// 982//
f 982// 561// 560//
f 982// 560// 983//
f 983// 560// 559//
f 983// 559// 967//
f 967// 559// 550//
f 967// 550// 969//
f 969// 550// 549//
f 969// 549// 971//
f 971// 549// 548//
f 971// 548// 973//
f 973// 548// 545//
f 973// 545// 974//
f 974// 545// 544//
f 974// 544// 960//
f 583// 933// 965//
f 960// 544// 543//
f 960// 543// 962//
f 962// 543// 536//
f 962// 536// 964//
f 964// 536// 535//
f 964// 535// 965//
f 965// 535// 584//
f 965// 584// 583//
f 933// 583// 580//
f 933// 580// 935//
f 935// 580// 579//
f 935// 579// 937//
f 579// 633// 937//
f 937// 633// 558//
f 937// 558// 938//
f 938// 558// 557//
f 938// 557// 926//
f 926// 557// 556//
f 926// 556// 924//
f 920// 924// 555//
f 555// 924// 556//
f 918// 920// 542//
f 542// 920// 555//
f 919// 918// 540//
f 540// 918// 542//
f 917// 919// 539//
f 539// 919// 540//
f 917// 539// 554//
f 917// 554// 940//
f 940// 554// 553//
f 940// 553// 942//
f 942// 553// 552//
f 942// 552// 944//
f 944// 552// 547//
f 944// 547// 946//
f 946// 547// 546//
f 946// 546// 948//
f 948// 546// 551//
f 948// 551// 950//
f 950// 551// 572//
f 950// 572// 952//
f 977// 984// 985//
f 977// 985// 922//
f 922// 985// 986//
f 922// 986// 923//
f 923// 986// 987//
f 923// 987// 915//
f 968// 988// 989//
f 968// 989// 966//
f 966// 989// 990//
f 966// 990// 981//
f 981// 990// 991//
f 981// 991// 979//
f 979// 991// 984//
f 979// 984// 977//
f 961// 992// 993//
f 961// 993// 959//
f 959// 993// 994//
f 959// 994// 972//
f 972// 994// 995//
f 972// 995// 970//
f 970// 995// 988//
f 970// 988// 968//
f 934// 996// 997//
f 934// 997// 932//
f 932// 997// 998//
f 932// 998// 963//
f 963// 998// 992//
f 963// 992// 961//
f 931// 999// 1000//
f 931// 1000// 925//
f 925// 1000// 1001//
f 925// 1001// 927//
f 927// 1001// 1002//
f 927// 1002// 936//
f 936// 1002// 996//
f 936// 996// 934//
f 928// 1003// 1004//
f 928// 1004// 929//
f 929// 1004// 1005//
f 929// 1005// 930//
f 930// 1005// 999//
f 930// 999// 931//
f 928// 916// 1003//
f 1003// 916// 1006//
f 916// 915// 1006//
f 1006// 915// 987//
usemtl 2
f 1003// 1006// 987//
f 1000// 999// 987//
f 1002// 986// 985//
f 986// 1002// 987//
f 987// 1002// 1001//
f 987// 1001// 1000//
f 999// 1005// 987//
f 987// 1005// 1004//
f 987// 1004// 1003//
f 990// 989// 1002//
f 1002// 989// 988//
f 1002// 988// 995//
f 998// 997// 992//
f 992// 997// 996//
f 992// 996// 1002//
f 985// 984// 1002//
f 1002// 984// 991//
f 1002// 991// 990//
f 995// 994// 1002//
f 1002// 994// 993//
f 1002// 993// 992//
usemtl 4
f 1007// 384// 381//
f 323// 1008// 381//
f 381// 1008// 1009//
f 381// 1009// 1007//
f 323// 322// 1008//
f 1008// 322// 327//
f 1008// 327// 1010//
f 1011// 1010// 336//
f 336// 1010// 327//
f 1012// 1011// 338//
f 338// 1011// 336//
f 342// 1013// 341//
f 341// 1013// 1012//
f 341// 1012// 340//
f 340// 1012// 338//
f 1014// 1013// 146//
f 146// 1013// 342//
f 146// 145// 1014//
f 1014// 145// 358//
f 1014// 358// 1015//
f 1015// 358// 357//
f 1015// 357// 1016//
f 1016// 357// 348//
f 1016// 348// 1017//
f 1017// 348// 347//
f 1017// 347// 1018//
f 1018// 347// 352//
f 1018// 352// 1019//
f 1019// 352// 362//
f 1019// 362// 1020//
f 1020// 362// 361//
f 1020// 361// 1021//
f 1021// 361// 360//
f 1021// 360// 1022//
f 1022// 360// 359//
f 1022// 359// 1023//
f 1023// 359// 377//
f 1023// 377// 1024//
f 1024// 377// 376//
f 1024// 376// 1025//
f 1025// 376// 374//
f 1025// 374// 1026//
f 1026// 374// 372//
f 1026// 372// 1027//
f 1027// 372// 371//
f 1027// 371// 1028//
f 1028// 371// 370//
f 1028// 370// 1029//
f 1029// 370// 369//
f 1029// 369// 1030//
f 1030// 369// 368//
f 1030// 368// 1031//
f 1031// 368// 365//
f 1031// 365// 1032//
f 1032// 365// 380//
f 1032// 380// 1033//
f 1033// 380// 379//
f 1033// 379// 1034//
f 1034// 379// 378//
f 1034// 378// 1035//
f 1035// 378// 367//
f 1035// 367// 1036//
f 1036// 367// 366//
f 1036// 366// 1037//
f 1037// 366// 364//
f 1037// 364// 1038//
f 1038// 364// 363//
f 1038// 363// 1039//
f 1039// 363// 373//
f 1039// 373// 1040//
f 1040// 373// 375//
f 1040// 375// 1041//
f 1041// 375// 346//
f 1041// 346// 1042//
f 1043// 1042// 345//
f 345// 1042// 346//
f 1043// 345// 356//
f 1043// 356// 1044//
f 1044// 356// 354//
f 1044// 354// 1045//
f 1045// 354// 353//
f 1045// 353// 1046//
f 1046// 353// 351//
f 1046// 351// 1047//
f 1047// 351// 350//
f 1047// 350// 1048//
f 1048// 350// 1049//
f 1049// 350// 349//
f 349// 330// 1049//
f 1049// 330// 329//
f 1049// 329// 1050//
f 1050// 329// 335//
f 1050// 335// 1051//
f 1051// 335// 334//
f 1051// 334// 1052//
f 1052// 334// 333//
f 1052// 333// 1053//
f 1053// 333// 326//
f 1053// 326// 1054//
f 1054// 326// 325//
f 1054// 325// 1055//
f 382// 1056// 1057//
f 1055// 325// 331//
f 1055// 331// 1058//
f 1058// 331// 324//
f 1058// 324// 1057//
f 1057// 324// 383//
f 1057// 383// 382//
f 1056// 382// 386//
f 1056// 386// 1059//
f 1059// 386// 397//
f 1059// 397// 1060//
f 1060// 397// 396//
f 1060// 396// 1061//
f 1061// 396// 395//
f 1061// 395// 1062//
f 1062// 395// 389//
f 1062// 389// 1063//
f 1063// 389// 388//
f 1063// 388// 1064//
f 1064// 388// 394//
f 1064// 394// 1065//
f 1065// 394// 393//
f 1065// 393// 1066//
f 1066// 393// 392//
f 1066// 392// 1067//
f 1067// 392// 391//
f 1067// 391// 1068//
f 1068// 391// 390//
f 1068// 390// 1069//
f 1069// 390// 387//
f 1069// 387// 1070//
f 1070// 387// 385//
f 1070// 385// 1071//
f 1071// 385// 384//
f 1071// 384// 1007//
f 1034// 1035// 1048//
f 1048// 1035// 1047//
f 1047// 1035// 1036//
f 1047// 1036// 1046//
f 1066// 1017// 1018//
f 1059// 1026// 1056//
f 1056// 1026// 1027//
f 1066// 1018// 1065//
f 1065// 1018// 1019//
f 1065// 1019// 1064//
f 1064// 1019// 1020//
f 1064// 1020// 1063//
f 1063// 1020// 1021//
f 1063// 1021// 1062//
f 1062// 1021// 1022//
f 1062// 1022// 1061//
f 1061// 1022// 1023//
f 1061// 1023// 1060//
f 1060// 1023// 1024//
f 1060// 1024// 1059//
f 1059// 1024// 1025//
f 1059// 1025// 1026//
f 1017// 1066// 1016//
f 1016// 1066// 1067//
f 1016// 1067// 1015//
f 1013// 1007// 1012//
f 1012// 1007// 1009//
f 1012// 1009// 1011//
f 1011// 1009// 1008//
f 1011// 1008// 1010//
f 1036// 1037// 1046//
f 1046// 1037// 1038//
f 1046// 1038// 1045//
f 1045// 1038// 1039//
f 1045// 1039// 1044//
f 1044// 1039// 1040//
f 1044// 1040// 1043//
f 1043// 1040// 1041//
f 1043// 1041// 1042//
f 1067// 1068// 1015//
f 1015// 1068// 1069//
f 1015// 1069// 1014//
f 1014// 1069// 1070//
f 1014// 1070// 1013//
f 1013// 1070// 1071//
f 1013// 1071// 1007//
f 1048// 1049// 1034//
f 1034// 1049// 1050//
f 1034// 1050// 1033//
f 1033// 1050// 1051//
f 1033// 1051// 1032//
f 1032// 1051// 1052//
f 1032// 1052// 1031//
f 1031// 1052// 1053//
f 1031// 1053// 1030//
f 1030// 1053// 1054//
f 1030// 1054// 1029//
f 1029// 1054// 1055//
f 1029// 1055// 1028//
f 1028// 1055// 1058//
f 1028// 1058// 1027//
f 1027// 1058// 1057//
f 1027// 1057// 1056//
f 1072// 1073// 585//
f 585// 1073// 586//
f 1074// 1072// 597//
f 597// 1072// 585//
f 1074// 597// 600//
f 1074// 600// 1075//
f 1075// 600// 599//
f 1075// 599// 1076//
f 1077// 1076// 598//
f 598// 1076// 599//
f 1078// 1077// 596//
f 596// 1077// 598//
f 1079// 1078// 595//
f 595// 1078// 596//
f 1080// 1079// 594//
f 594// 1079// 595//
f 1081// 1080// 593//
f 593// 1080// 594//
f 617// 1082// 592//
f 592// 1082// 1081//
f 592// 1081// 593//
f 1082// 617// 616//
f 1082// 616// 1083//
f 1083// 616// 613//
f 1083// 613// 1084//
f 1084// 613// 612//
f 1084// 612// 1085//
f 1085// 612// 611//
f 1085// 611// 1086//
f 1086// 611// 608//
f 1086// 608// 1087//
f 1087// 608// 607//
f 1087// 607// 1088//
f 1088// 607// 606//
f 1088// 606// 1089//
f 1090// 1089// 605//
f 605// 1089// 606//
f 1090// 605// 604//
f 1090// 604// 1091//
f 1091// 604// 603//
f 1091// 603// 1092//
f 1092// 603// 602//
f 1092// 602// 1093//
f 1093// 602// 615//
f 1093// 615// 1094//
f 1094// 615// 614//
f 1094// 614// 1095//
f 1095// 614// 610//
f 1095// 610// 1096//
f 1096// 610// 609//
f 1096// 609// 1097//
f 1097// 609// 620//
f 1097// 620// 1098//
f 1098// 620// 619//
f 1098// 619// 1099//
f 586// 1073// 618//
f 618// 1073// 1099//
f 618// 1099// 619//
f 1075// 1076// 1099//
f 1073// 1072// 1099//
f 1099// 1072// 1074//
f 1099// 1074// 1075//
f 1079// 1080// 1078//
f 1078// 1080// 1081//
f 1078// 1081// 1077//
f 1076// 1077// 1099//
f 1099// 1077// 1081//
f 1099// 1081// 1098//
f 1098// 1081// 1082//
f 1098// 1082// 1097//
f 1097// 1082// 1083//
f 1097// 1083// 1096//
f 1096// 1083// 1084//
f 1089// 1090// 1088//
f 1088// 1090// 1091//
f 1088// 1091// 1087//
f 1087// 1091// 1092//
f 1087// 1092// 1086//
f 1086// 1092// 1093//
f 1086// 1093// 1085//
f 1085// 1093// 1094//
f 1085// 1094// 1084//
f 1084// 1094// 1095//
f 1084// 1095// 1096//
f 1100// 1101// 303//
f 303// 1101// 304//
f 308// 1102// 310//
f 310// 1102// 1100//
f 310// 1100// 303//
f 1103// 1102// 307//
f 307// 1102// 308//
f 311// 1104// 309//
f 309// 1104// 1103//
f 309// 1103// 307//
f 1105// 1104// 312//
f 312// 1104// 311//
f 314// 1106// 316//
f 316// 1106// 1105//
f 316// 1105// 312//
f 1107// 1106// 313//
f 313// 1106// 314//
f 317// 1108// 315//
f 315// 1108// 1107//
f 315// 1107// 313//
f 1109// 1108// 591//
f 591// 1108// 317//
f 321// 1110// 589//
f 589// 1110// 1109//
f 589// 1109// 591//
f 1111// 1110// 319//
f 319// 1110// 321//
f 304// 1101// 318//
f 318// 1101// 1111//
f 318// 1111// 319//
f 1111// 1101// 1100//
f 1100// 1102// 1111//
f 1111// 1102// 1103//
f 1111// 1103// 1110//
f 1108// 1109// 1107//
f 1107// 1109// 1110//
f 1107// 1110// 1106//
f 1106// 1110// 1103//
f 1106// 1103// 1105//
f 1105// 1103// 1104//
f 1112// 1113// 1114//
f 1114// 1113// 1115//
f 1114// 1115// 1116//
f 1116// 1115// 1117//
f 1116// 1117// 1118//
f 1118// 1117// 1119//
f 1118// 1119// 1120//
f 1120// 1119// 1121//
f 1120// 1121// 1122//
f 1122// 1121// 1123//
f 1122// 1123// 1124//
f 1124// 1123// 1125//
f 1124// 1125// 1126//
f 1126// 1125// 1127//
f 1126// 1127// 1128//
f 1128// 1127// 1129//
f 1128// 1129// 1130//
f 1130// 1129// 1131//
f 1130// 1131// 1132//
f 1132// 1131// 1133//
f 1132// 1133// 1134//
f 1134// 1133// 1135//
f 1134// 1135// 1136//
f 1136// 1135// 1137//
f 1136// 1137// 1138//
f 1138// 1137// 1139//
f 1138// 1139// 1140//
f 1140// 1139// 1141//
f 1140// 1141// 1142//
f 1142// 1141// 1143//
f 1142// 1143// 1144//
f 1144// 1143// 1145//
f 1144// 1145// 1146//
f 1146// 1145// 1112//
f 1146// 1112// 1114//
f 1120// 1122// 647//
f 647// 1122// 636//
f 1120// 647// 646//
f 1120// 646// 1118//
f 1118// 646// 645//
f 1118// 645// 1116//
f 1116// 645// 639//
f 1116// 639// 1114//
f 1114// 639// 638//
f 1114// 638// 1146//
f 1146// 638// 637//
f 1146// 637// 1144//
f 1144// 637// 644//
f 1144// 644// 1142//
f 1142// 644// 643//
f 1142// 643// 1140//
f 1140// 643// 641//
f 1140// 641// 1138//
f 1138// 641// 640//
f 1138// 640// 1136//
f 1136// 640// 653//
f 1136// 653// 1134//
f 1134// 653// 652//
f 1134// 652// 1132//
f 1132// 652// 651//
f 1132// 651// 1130//
f 1130// 651// 650//
f 1130// 650// 1128//
f 1128// 650// 649//
f 1128// 649// 1126//
f 1124// 1126// 648//
f 648// 1126// 649//
f 1122// 1124// 636//
f 636// 1124// 648//
f 1127// 1125// 1147//
f 1147// 1125// 1148//
f 1125// 1123// 1148//
f 1148// 1123// 1149//
f 1123// 1121// 1149//
f 1149// 1121// 1150//
f 1113// 1151// 1152//
f 1113// 1152// 1115//
f 1115// 1152// 1153//
f 1115// 1153// 1117//
f 1117// 1153// 1154//
f 1117// 1154// 1119//
f 1119// 1154// 1150//
f 1119// 1150// 1121//
f 1141// 1155// 1156//
f 1141// 1156// 1143//
f 1143// 1156// 1157//
f 1143// 1157// 1145//
f 1145// 1157// 1158//
f 1145// 1158// 1112//
f 1112// 1158// 1151//
f 1112// 1151// 1113//
f 1133// 1159// 1160//
f 1133// 1160// 1135//
f 1135// 1160// 1161//
f 1135// 1161// 1137//
f 1137// 1161// 1162//
f 1137// 1162// 1139//
f 1139// 1162// 1155//
f 1139// 1155// 1141//
f 1127// 1147// 1163//
f 1127// 1163// 1129//
f 1129// 1163// 1164//
f 1129// 1164// 1131//
f 1131// 1164// 1159//
f 1131// 1159// 1133//
usemtl 2
f 1148// 1149// 1147//
f 1147// 1149// 1150//
f 1147// 1150// 1154//
f 1154// 1153// 1147//
f 1147// 1153// 1152//
f 1147// 1152// 1151//
f 1151// 1158// 1147//
f 1147// 1158// 1157//
f 1147// 1157// 1156//
f 1156// 1155// 1147//
f 1147// 1155// 1162//
f 1147// 1162// 1161//
f 1161// 1160// 1147//
f 1147// 1160// 1159//
f 1147// 1159// 1163//
f 1163// 1159// 1164//
usemtl 4
f 1165// 1166// 1167//
f 1167// 1166// 1168//
f 1169// 1170// 1165//
f 1165// 1170// 1171//
f 1165// 1171// 1166//
f 1166// 1171// 1172//
f 1169// 1173// 1170//
f 1170// 1173// 1174//
f 1170// 1174// 1175//
f 1175// 1174// 1176//
f 1175// 1176// 1177//
f 1177// 1178// 1175//
f 1175// 1178// 1167//
f 1175// 1167// 1179//
f 1179// 1167// 1168//
f 1179// 1168// 1180//
f 1175// 1179// 661//
f 661// 1179// 658//
f 1170// 1175// 660//
f 660// 1175// 661//
f 1171// 1170// 659//
f 659// 1170// 660//
f 1172// 1171// 657//
f 657// 1171// 659//
f 1166// 1172// 655//
f 655// 1172// 657//
f 1168// 1166// 654//
f 654// 1166// 655//
f 1180// 1168// 656//
f 656// 1168// 654//
f 1179// 1180// 658//
f 658// 1180// 656//
f 1165// 1167// 1181//
f 1181// 1167// 1182//
f 1167// 1178// 1182//
f 1182// 1178// 1183//
f 1176// 1184// 1185//
f 1176// 1185// 1177//
f 1177// 1185// 1183//
f 1177// 1183// 1178//
f 1176// 1174// 1184//
f 1184// 1174// 1186//
f 1169// 1187// 1188//
f 1169// 1188// 1173//
f 1173// 1188// 1186//
f 1173// 1186// 1174//
f 1169// 1165// 1187//
f 1187// 1165// 1181//
usemtl 2
f 1184// 1186// 1185//
f 1185// 1186// 1188//
f 1185// 1188// 1183//
f 1183// 1188// 1187//
f 1183// 1187// 1182//
f 1182// 1187// 1181//
usemtl 4
f 1189// 1190// 1191//
f 1192// 1193// 1194//
f 1195// 1196// 1197//
f 1193// 1192// 1198//
f 1198// 1192// 1195//
f 1198// 1195// 1199//
f 1200// 1201// 1202//
f 1203// 1204// 1191//
f 1191// 1204// 1205//
f 1191// 1205// 1189//
f 1206// 1190// 1207//
f 1207// 1190// 1208//
f 1207// 1208// 1209//
f 1200// 1202// 1210//
f 1201// 1211// 1202//
f 1202// 1211// 1212//
f 1202// 1212// 1213//
f 1213// 1212// 1214//
f 1213// 1214// 1215//
f 1215// 1214// 1216//
f 1215// 1216// 1217//
f 1217// 1216// 1191//
f 1217// 1191// 1218//
f 1219// 1220// 1221//
f 1221// 1220// 1222//
f 1221// 1222// 1223//
f 1223// 1222// 1224//
f 1223// 1224// 1225//
f 1225// 1224// 1226//
f 1227// 1228// 1229//
f 1229// 1228// 1230//
f 1229// 1230// 1231//
f 1231// 1230// 1232//
f 1231// 1232// 1233//
f 1233// 1232// 1234//
f 1233// 1234// 1235//
f 1236// 1237// 1238//
f 1235// 1234// 1239//
f 1239// 1234// 1240//
f 1239// 1240// 1241//
f 1242// 1243// 1244//
f 1244// 1243// 1245//
f 1244// 1245// 1221//
f 1221// 1245// 1246//
f 1221// 1246// 1219//
f 1247// 1248// 1203//
f 1203// 1248// 1249//
f 1203// 1249// 1204//
f 1250// 1251// 1252//
f 1252// 1251// 1253//
f 1252// 1253// 1254//
f 1254// 1253// 1255//
f 1254// 1255// 1256//
f 1256// 1255// 1257//
f 1256// 1257// 1247//
f 1247// 1257// 1258//
f 1247// 1258// 1248//
f 1199// 1195// 1259//
f 1259// 1195// 1197//
f 1259// 1197// 1202//
f 1202// 1197// 1260//
f 1202// 1260// 1210//
f 1224// 1261// 1226//
f 1226// 1261// 1262//
f 1226// 1262// 1263//
f 1263// 1262// 1264//
f 1263// 1264// 1265//
f 1265// 1264// 1266//
f 1265// 1266// 1267//
f 1267// 1266// 1268//
f 1238// 1237// 1269//
f 1269// 1237// 1270//
f 1269// 1270// 1271//
f 1271// 1270// 1272//
f 1271// 1272// 1273//
f 1273// 1272// 1274//
f 1273// 1274// 1275//
f 1275// 1274// 1276//
f 1275// 1276// 1277//
f 1277// 1276// 1278//
f 1277// 1278// 1279//
f 1279// 1278// 1280//
f 1279// 1280// 1281//
f 1281// 1280// 1282//
f 1281// 1282// 1268//
f 1268// 1282// 1283//
f 1268// 1283// 1267//
f 1227// 1229// 1284//
f 1284// 1229// 1285//
f 1284// 1285// 1286//
f 1286// 1285// 1287//
f 1286// 1287// 1288//
f 1288// 1287// 1289//
f 1288// 1289// 1290//
f 1290// 1289// 1291//
f 1290// 1291// 1292//
f 1292// 1291// 1293//
f 1292// 1293// 1294//
f 1294// 1293// 1295//
f 1294// 1295// 1296//
f 1296// 1295// 1297//
f 1296// 1297// 1250//
f 1250// 1297// 1298//
f 1250// 1298// 1251//
f 1206// 1299// 1190//
f 1190// 1299// 1300//
f 1190// 1300// 1191//
f 1191// 1300// 1301//
f 1191// 1301// 1218//
f 1302// 1303// 1304//
f 1240// 1305// 1241//
f 1241// 1305// 1306//
f 1241// 1306// 1307//
f 1307// 1306// 1308//
f 1307// 1308// 1309//
f 1309// 1308// 1310//
f 1309// 1310// 1242//
f 1242// 1310// 1311//
f 1242// 1311// 1243//
f 1194// 1312// 1192//
f 1192// 1312// 1313//
f 1192// 1313// 1314//
f 1314// 1313// 1315//
f 1314// 1315// 1316//
f 1316// 1315// 1317//
f 1316// 1317// 1318//
f 1318// 1317// 1319//
f 1318// 1319// 1320//
f 1320// 1319// 1321//
f 1320// 1321// 1322//
f 1322// 1321// 1323//
f 1322// 1323// 1324//
f 1324// 1323// 1325//
f 1324// 1325// 1326//
f 1326// 1325// 1327//
f 1326// 1327// 1328//
f 1328// 1327// 1329//
f 1328// 1329// 1330//
f 1330// 1329// 1209//
f 1330// 1209// 1331//
f 1331// 1209// 1208//
f 1304// 1332// 1333//
f 1303// 1334// 1304//
f 1304// 1334// 1335//
f 1304// 1335// 1332//
f 1238// 1336// 1236//
f 1236// 1336// 1304//
f 1236// 1304// 1337//
f 1337// 1304// 1333//
f 1304// 1338// 1302//
f 1302// 1338// 1339//
f 1302// 1339// 1340//
f 1340// 1341// 1302//
f 1302// 1341// 1342//
f 1302// 1342// 1343//
f 1267// 230// 229//
f 300// 1226// 1263//
f 1267// 229// 1265//
f 1265// 229// 302//
f 1265// 302// 1263//
f 1263// 302// 301//
f 1263// 301// 300//
f 300// 152// 1226//
f 1226// 152// 151//
f 1226// 151// 1225//
f 1225// 151// 160//
f 1225// 160// 1223//
f 1223// 160// 159//
f 1223// 159// 1221//
f 1221// 159// 158//
f 1221// 158// 1244//
f 1244// 158// 157//
f 1244// 157// 1242//
f 1309// 1242// 156//
f 156// 1242// 157//
f 156// 155// 1309//
f 1309// 155// 166//
f 1309// 166// 1307//
f 1307// 166// 165//
f 1307// 165// 1241//
f 171// 1233// 170//
f 170// 1233// 1235//
f 170// 1235// 161//
f 161// 1235// 1239//
f 161// 1239// 162//
f 162// 1239// 1241//
f 162// 1241// 165//
f 1233// 171// 175//
f 1233// 175// 1231//
f 1231// 175// 177//
f 1231// 177// 1229//
f 1229// 177// 176//
f 1229// 176// 1285//
f 1285// 176// 174//
f 1285// 174// 1287//
f 1287// 174// 173//
f 1287// 173// 1289//
f 1289// 173// 172//
f 1289// 172// 1291//
f 1291// 172// 168//
f 1291// 168// 1293//
f 1293// 168// 167//
f 1293// 167// 1295//
f 190// 1253// 1251//
f 1295// 167// 181//
f 1295// 181// 1297//
f 1297// 181// 180//
f 1297// 180// 1298//
f 180// 179// 1298//
f 1298// 179// 149//
f 1298// 149// 1251//
f 1251// 149// 148//
f 1251// 148// 190//
f 1253// 190// 189//
f 1253// 189// 1255//
f 1255// 189// 188//
f 1255// 188// 1257//
f 1257// 188// 187//
f 1257// 187// 1258//
f 1258// 187// 186//
f 1258// 186// 1248//
f 1248// 186// 185//
f 1248// 185// 1249//
f 1249// 185// 183//
f 1249// 183// 1204//
f 1204// 183// 182//
f 1204// 182// 1205//
f 1205// 182// 193//
f 1205// 193// 1189//
f 193// 192// 1189//
f 1189// 192// 191//
f 1189// 191// 1190//
f 1190// 191// 201//
f 1190// 201// 1208//
f 1208// 201// 200//
f 1208// 200// 1331//
f 200// 199// 1331//
f 1331// 199// 198//
f 1331// 198// 1330//
f 1330// 198// 197//
f 1330// 197// 1328//
f 257// 1314// 1316//
f 1328// 197// 195//
f 1328// 195// 1326//
f 1326// 195// 194//
f 1326// 194// 1324//
f 194// 207// 1324//
f 1324// 207// 206//
f 1324// 206// 1322//
f 1322// 206// 205//
f 1322// 205// 1320//
f 1320// 205// 203//
f 1320// 203// 1318//
f 1318// 203// 202//
f 1318// 202// 1316//
f 1316// 202// 256//
f 1316// 256// 257//
f 1192// 1314// 248//
f 248// 1314// 257//
f 1195// 1192// 227//
f 227// 1192// 248//
f 1196// 1195// 209//
f 209// 1195// 227//
f 1197// 1196// 208//
f 208// 1196// 209//
f 1197// 208// 210//
f 1197// 210// 1260//
f 1260// 210// 211//
f 1260// 211// 1210//
f 1210// 211// 253//
f 1210// 253// 1200//
f 1200// 253// 252//
f 1200// 252// 1201//
f 1201// 252// 251//
f 1201// 251// 1211//
f 1211// 251// 242//
f 1211// 242// 1212//
f 1212// 242// 243//
f 1212// 243// 1214//
f 1214// 243// 239//
f 1214// 239// 1216//
f 1216// 239// 241//
f 1216// 241// 1191//
f 1191// 241// 240//
f 1191// 240// 1203//
f 1203// 240// 238//
f 1203// 238// 1247//
f 1247// 238// 237//
f 1247// 237// 1256//
f 1256// 237// 245//
f 1256// 245// 1254//
f 1254// 245// 244//
f 1254// 244// 1252//
f 1252// 244// 1250//
f 1250// 244// 222//
f 222// 272// 1250//
f 1250// 272// 271//
f 1250// 271// 1296//
f 1296// 271// 278//
f 1296// 278// 1294//
f 278// 299// 1294//
f 1294// 299// 298//
f 1294// 298// 1292//
f 1292// 298// 297//
f 1292// 297// 1290//
f 1290// 297// 288//
f 1290// 288// 1288//
f 1288// 288// 287//
f 1288// 287// 1286//
f 1286// 287// 286//
f 1286// 286// 1284//
f 1284// 286// 280//
f 1284// 280// 1227//
f 1227// 280// 279//
f 1227// 279// 1228//
f 1228// 279// 293//
f 1228// 293// 1230//
f 1230// 293// 295//
f 1230// 295// 1232//
f 1232// 295// 296//
f 1232// 296// 1234//
f 1234// 296// 294//
f 1234// 294// 1240//
f 1240// 294// 292//
f 1240// 292// 1305//
f 1305// 292// 291//
f 1305// 291// 1306//
f 270// 1219// 289//
f 289// 1219// 1246//
f 289// 1246// 290//
f 290// 1246// 1245//
f 290// 1245// 281//
f 281// 1245// 1243//
f 281// 1243// 282//
f 282// 1243// 1311//
f 282// 1311// 283//
f 283// 1311// 1310//
f 283// 1310// 284//
f 284// 1310// 1308//
f 284// 1308// 285//
f 285// 1308// 1306//
f 285// 1306// 291//
f 1220// 1219// 273//
f 273// 1219// 270//
f 1220// 273// 277//
f 1220// 277// 1222//
f 1222// 277// 276//
f 1222// 276// 1224//
f 1224// 276// 275//
f 1224// 275// 1261//
f 1261// 275// 274//
f 1261// 274// 1262//
f 1262// 274// 221//
f 1262// 221// 1264//
f 221// 220// 1264//
f 1264// 220// 219//
f 1264// 219// 1266//
f 1266// 219// 264//
f 1266// 264// 1268//
f 1268// 264// 263//
f 1268// 263// 1281//
f 1281// 263// 262//
f 1281// 262// 1279//
f 1279// 262// 261//
f 1279// 261// 1277//
f 1277// 261// 269//
f 1277// 269// 1275//
f 1275// 269// 268//
f 1275// 268// 1273//
f 1273// 268// 267//
f 1273// 267// 1271//
f 1271// 267// 266//
f 1271// 266// 1269//
f 1238// 1269// 265//
f 265// 1269// 266//
f 1238// 265// 260//
f 1238// 260// 1336//
f 1336// 260// 259//
f 1336// 259// 1304//
f 1304// 259// 258//
f 1304// 258// 1338//
f 1338// 258// 228//
f 1338// 228// 1339//
f 1339// 228// 226//
f 1339// 226// 1340//
f 1340// 226// 225//
f 1340// 225// 1341//
f 1341// 225// 250//
f 1341// 250// 1342//
f 1342// 250// 249//
f 1342// 249// 1343//
f 1343// 249// 247//
f 1343// 247// 1302//
f 1302// 247// 246//
f 1302// 246// 1303//
f 1303// 246// 255//
f 1303// 255// 1334//
f 1334// 255// 254//
f 1334// 254// 1335//
f 1335// 254// 224//
f 1335// 224// 1332//
f 1332// 224// 223//
f 1332// 223// 1333//
f 1333// 223// 236//
f 1333// 236// 1337//
f 1337// 236// 235//
f 1337// 235// 1236//
f 1236// 235// 234//
f 1236// 234// 1237//
f 1270// 1237// 218//
f 218// 1237// 234//
f 1270// 218// 217//
f 1270// 217// 1272//
f 1272// 217// 216//
f 1272// 216// 1274//
f 1274// 216// 233//
f 1274// 233// 1276//
f 1276// 233// 232//
f 1276// 232// 1278//
f 1278// 232// 215//
f 1278// 215// 1280//
f 1280// 215// 213//
f 1280// 213// 1282//
f 1282// 213// 212//
f 1282// 212// 1283//
f 1283// 212// 230//
f 1283// 230// 1267//
f 1199// 1344// 1345//
f 1199// 1345// 1198//
f 1198// 1345// 1346//
f 1198// 1346// 1193//
f 1193// 1346// 1347//
f 1193// 1347// 1194//
f 1194// 1347// 1348//
f 1194// 1348// 1312//
f 1312// 1348// 1349//
f 1312// 1349// 1313//
f 1313// 1349// 1350//
f 1313// 1350// 1315//
f 1315// 1350// 1351//
f 1315// 1351// 1317//
f 1317// 1351// 1352//
f 1317// 1352// 1319//
f 1319// 1352// 1353//
f 1319// 1353// 1321//
f 1321// 1353// 1354//
f 1321// 1354// 1323//
f 1323// 1354// 1355//
f 1323// 1355// 1325//
f 1325// 1355// 1356//
f 1325// 1356// 1327//
f 1327// 1356// 1357//
f 1327// 1357// 1329//
f 1329// 1357// 1358//
f 1329// 1358// 1209//
f 1209// 1358// 1359//
f 1209// 1359// 1207//
f 1207// 1359// 1360//
f 1207// 1360// 1206//
f 1206// 1360// 1361//
f 1206// 1361// 1299//
f 1299// 1361// 1362//
f 1299// 1362// 1300//
f 1300// 1362// 1363//
f 1300// 1363// 1301//
f 1301// 1363// 1364//
f 1301// 1364// 1218//
f 1218// 1364// 1365//
f 1218// 1365// 1217//
f 1217// 1365// 1366//
f 1217// 1366// 1215//
f 1215// 1366// 1367//
f 1215// 1367// 1213//
f 1213// 1367// 1368//
f 1213// 1368// 1202//
f 1202// 1368// 1369//
f 1202// 1369// 1259//
f 1259// 1369// 1344//
f 1259// 1344// 1199//
usemtl 2
f 1369// 1357// 1344//
f 1344// 1357// 1356//
f 1344// 1356// 1345//
f 1366// 1365// 1364//
f 1362// 1361// 1369//
f 1369// 1361// 1360//
f 1349// 1348// 1354//
f 1354// 1348// 1347//
f 1360// 1359// 1369//
f 1369// 1359// 1358//
f 1369// 1358// 1357//
f 1352// 1351// 1350//
f 1356// 1355// 1345//
f 1345// 1355// 1354//
f 1345// 1354// 1346//
f 1346// 1354// 1347//
f 1362// 1369// 1363//
f 1363// 1369// 1368//
f 1363// 1368// 1364//
f 1364// 1368// 1367//
f 1364// 1367// 1366//
f 1349// 1354// 1350//
f 1350// 1354// 1353//
f 1350// 1353// 1352//
usemtl 1
f 1370// 1371// 1372//
f 1372// 1371// 1373//
f 1374// 1370// 1375//
f 1375// 1370// 1372//
f 1376// 1374// 1377//
f 1377// 1374// 1375//
f 1371// 1376// 1373//
f 1373// 1376// 1377//
f 1374// 1376// 1370//
f 1370// 1376// 1371//
f 1377// 1375// 1373//
f 1373// 1375// 1372//
f 1378// 1379// 1380//
f 1380// 1379// 1381//
f 1382// 1378// 1383//
f 1383// 1378// 1380//
f 1384// 1382// 1385//
f 1385// 1382// 1383//
f 1379// 1384// 1381//
f 1381// 1384// 1385//
f 1382// 1384// 1378//
f 1378// 1384// 1379//
f 1385// 1383// 1381//
f 1381// 1383// 1380//
f 1386// 1387// 1388//
f 1388// 1387// 1389//
f 1390// 1386// 1391//
f 1391// 1386// 1388//
f 1392// 1390// 1393//
f 1393// 1390// 1391//
f 1387// 1392// 1389//
f 1389// 1392// 1393//
f 1390// 1392// 1386//
f 1386// 1392// 1387//
f 1393// 1391// 1389//
f 1389// 1391// 1388//
f 1394// 1395// 1396//
f 1396// 1395// 1397//
f 1398// 1394// 1399//
f 1399// 1394// 1396//
f 1400// 1398// 1401//
f 1401// 1398// 1399//
f 1395// 1400// 1397//
f 1397// 1400// 1401//
f 1398// 1400// 1394//
f 1394// 1400// 1395//
f 1401// 1399// 1397//
f 1397// 1399// 1396//
f 1402// 1403// 1404//
f 1404// 1403// 1405//
f 1406// 1402// 1407//
f 1407// 1402// 1404//
f 1408// 1406// 1409//
f 1409// 1406// 1407//
f 1403// 1408// 1405//
f 1405// 1408// 1409//
f 1406// 1408// 1402//
f 1402// 1408// 1403//
f 1409// 1407// 1405//
f 1405// 1407// 1404//
f 1410// 1411// 1412//
f 1412// 1411// 1413//
f 1414// 1410// 1415//
f 1415// 1410// 1412//
f 1416// 1414// 1417//
f 1417// 1414// 1415//
f 1411// 1416// 1413//
f 1413// 1416// 1417//
f 1414// 1416// 1410//
f 1410// 1416// 1411//
f 1417// 1415// 1413//
f 1413// 1415// 1412//
f 1418// 1419// 1420//
f 1420// 1419// 1421//
f 1422// 1418// 1423//
f 1423// 1418// 1420//
f 1424// 1422// 1425//
f 1425// 1422// 1423//
f 1419// 1424// 1421//
f 1421// 1424// 1425//
f 1422// 1424// 1418//
f 1418// 1424// 1419//
f 1425// 1423// 1421//
f 1421// 1423// 1420//
f 1426// 1427// 1428//
f 1428// 1427// 1429//
f 1430// 1426// 1431//
f 1431// 1426// 1428//
f 1432// 1430// 1433//
f 1433// 1430// 1431//
f 1427// 1432// 1429//
f 1429// 1432// 1433//
f 1430// 1432// 1426//
f 1426// 1432// 1427//
f 1433// 1431// 1429//
f 1429// 1431// 1428//
f 1434// 1435// 1436//
f 1436// 1435// 1437//
f 1438// 1434// 1439//
f 1439// 1434// 1436//
f 1440// 1438// 1441//
f 1441// 1438// 1439//
f 1435// 1440// 1437//
f 1437// 1440// 1441//
f 1438// 1440// 1434//
f 1434// 1440// 1435//
f 1441// 1439// 1437//
f 1437// 1439// 1436//
f 1442// 1443// 1444//
f 1444// 1443// 1445//
f 1446// 1442// 1447//
f 1447// 1442// 1444//
f 1448// 1446// 1449//
f 1449// 1446// 1447//
f 1443// 1448// 1445//
f 1445// 1448// 1449//
f 1446// 1448// 1442//
f 1442// 1448// 1443//
f 1449// 1447// 1445//
f 1445// 1447// 1444//
f 1450// 1451// 1452//
f 1452// 1451// 1453//
f 1454// 1450// 1455//
f 1455// 1450// 1452//
f 1456// 1454// 1457//
f 1457// 1454// 1455//
f 1451// 1456// 1453//
f 1453// 1456// 1457//
f 1454// 1456// 1450//
f 1450// 1456// 1451//
f 1457// 1455// 1453//
f 1453// 1455// 1452//
f 1458// 1459// 1460//
f 1460// 1459// 1461//
f 1462// 1458// 1463//
f 1463// 1458// 1460//
f 1464// 1462// 1465//
f 1465// 1462// 1463//
f 1459// 1464// 1461//
f 1461// 1464// 1465//
f 1462// 1464// 1458//
f 1458// 1464// 1459//
f 1465// 1463// 1461//
f 1461// 1463// 1460//
f 1466// 1467// 1468//
f 1468// 1467// 1469//
f 1470// 1466// 1471//
f 1471// 1466// 1468//
f 1472// 1470// 1473//
f 1473// 1470// 1471//
f 1467// 1472// 1469//
f 1469// 1472// 1473//
f 1470// 1472// 1466//
f 1466// 1472// 1467//
f 1473// 1471// 1469//
f 1469// 1471// 1468//
